CommonSans-Regular.ufo
<glyph name="exclam" format="2">
  <advance width="190"/>
  <unicode hex="0021"/>
  <outline>
    <component base="period" xOffset="5"/>
    <contour>
      <point x="50" y="410" type="line"/>
      <point x="50" y="700" type="line"/>
      <point x="140" y="700" type="line"/>
      <point x="140" y="410" type="line"/>
      <point x="120" y="150" type="line"/>
      <point x="70" y="150" type="line"/>
    </contour>
  </outline>
</glyph>
<glyph name="numbersign" format="2">
  <advance width="579"/>
  <unicode hex="0023"/>
  <outline>
    <contour>
      <point x="257" y="0" type="line"/>
      <point x="406" y="700" type="line"/>
      <point x="493" y="700" type="line"/>
      <point x="348" y="0" type="line"/>
    </contour>
    <contour>
      <point x="65" y="0" type="line"/>
      <point x="214" y="700" type="line"/>
      <point x="301" y="700" type="line"/>
      <point x="156" y="0" type="line"/>
    </contour>
    <contour>
      <point x="61" y="500" type="line"/>
      <point x="552" y="500" type="line"/>
      <point x="552" y="420" type="line"/>
      <point x="61" y="420" type="line"/>
    </contour>
    <contour>
      <point x="24" y="252" type="line"/>
      <point x="515" y="252" type="line"/>
      <point x="515" y="172" type="line"/>
      <point x="24" y="172" type="line"/>
    </contour>
  </outline>
</glyph>
<glyph name="percent" format="2">
  <advance width="746"/>
  <unicode hex="0025"/>
  <outline>
    <contour>
      <point x="433" y="179" type="curve" smooth="yes"/>
      <point x="433" y="47"/>
      <point x="468" y="-14"/>
      <point x="575" y="-14" type="curve" smooth="yes"/>
      <point x="681" y="-14"/>
      <point x="716" y="47"/>
      <point x="716" y="179" type="curve" smooth="yes"/>
      <point x="716" y="311"/>
      <point x="680" y="372"/>
      <point x="575" y="372" type="curve" smooth="yes"/>
      <point x="468" y="372"/>
      <point x="433" y="311"/>
    </contour>
    <contour>
      <point x="511" y="179" type="curve" smooth="yes"/>
      <point x="511" y="244"/>
      <point x="511" y="290"/>
      <point x="575" y="290" type="curve" smooth="yes"/>
      <point x="638" y="290"/>
      <point x="638" y="244"/>
      <point x="638" y="179" type="curve" smooth="yes"/>
      <point x="638" y="118"/>
      <point x="634" y="68"/>
      <point x="575" y="68" type="curve" smooth="yes"/>
      <point x="511" y="68"/>
      <point x="511" y="114"/>
    </contour>
    <contour>
      <point x="30" y="543" type="curve" smooth="yes"/>
      <point x="30" y="411"/>
      <point x="65" y="350"/>
      <point x="172" y="350" type="curve" smooth="yes"/>
      <point x="278" y="350"/>
      <point x="313" y="411"/>
      <point x="313" y="543" type="curve" smooth="yes"/>
      <point x="313" y="675"/>
      <point x="277" y="736"/>
      <point x="172" y="736" type="curve" smooth="yes"/>
      <point x="65" y="736"/>
      <point x="30" y="675"/>
    </contour>
    <contour>
      <point x="108" y="543" type="curve" smooth="yes"/>
      <point x="108" y="608"/>
      <point x="108" y="654"/>
      <point x="172" y="654" type="curve" smooth="yes"/>
      <point x="235" y="654"/>
      <point x="235" y="608"/>
      <point x="235" y="543" type="curve" smooth="yes"/>
      <point x="235" y="482"/>
      <point x="231" y="432"/>
      <point x="172" y="432" type="curve" smooth="yes"/>
      <point x="108" y="432"/>
      <point x="108" y="478"/>
    </contour>
    <contour>
      <point x="113" y="0" type="line"/>
      <point x="218" y="0" type="line"/>
      <point x="632" y="700" type="line"/>
      <point x="530" y="700" type="line"/>
    </contour>
  </outline>
</glyph>
<glyph name="ampersand" format="2">
  <advance width="699"/>
  <unicode hex="0026"/>
  <outline>
    <contour>
      <point x="40" y="192" type="curve" smooth="yes"/>
      <point x="40" y="319"/>
      <point x="112" y="373"/>
      <point x="199" y="431" type="curve"/>
      <point x="163" y="481"/>
      <point x="140" y="503"/>
      <point x="140" y="566" type="curve" smooth="yes"/>
      <point x="140" y="652"/>
      <point x="212" y="710"/>
      <point x="298" y="710" type="curve" smooth="yes"/>
      <point x="382" y="710"/>
      <point x="460" y="652"/>
      <point x="460" y="569" type="curve" smooth="yes"/>
      <point x="460" y="487"/>
      <point x="402" y="451"/>
      <point x="325" y="406" type="curve"/>
      <point x="485" y="218" type="line"/>
      <point x="501" y="254"/>
      <point x="507" y="284"/>
      <point x="510" y="330" type="curve"/>
      <point x="550" y="330" type="line"/>
      <point x="590" y="330" type="line"/>
      <point x="586" y="261"/>
      <point x="570" y="222"/>
      <point x="540" y="165" type="curve"/>
      <point x="679" y="0" type="line"/>
      <point x="566" y="0" type="line"/>
      <point x="491" y="90" type="line"/>
      <point x="434" y="37"/>
      <point x="360" y="-10"/>
      <point x="254" y="-10" type="curve" smooth="yes"/>
      <point x="142" y="-10"/>
      <point x="40" y="68"/>
    </contour>
    <contour>
      <point x="120" y="193" type="curve" smooth="yes"/>
      <point x="120" y="113"/>
      <point x="201" y="55"/>
      <point x="257" y="55" type="curve" smooth="yes"/>
      <point x="320" y="55"/>
      <point x="394" y="82"/>
      <point x="442" y="137" type="curve"/>
      <point x="247" y="373" type="line"/>
      <point x="171" y="330"/>
      <point x="120" y="278"/>
    </contour>
    <contour>
      <point x="220" y="565" type="curve" smooth="yes"/>
      <point x="220" y="538"/>
      <point x="239" y="504"/>
      <point x="277" y="463" type="curve"/>
      <point x="288" y="468"/>
      <point x="299" y="473"/>
      <point x="309" y="479" type="curve"/>
      <point x="350" y="501"/>
      <point x="380" y="526"/>
      <point x="380" y="565" type="curve" smooth="yes"/>
      <point x="380" y="611"/>
      <point x="346" y="645"/>
      <point x="294" y="645" type="curve" smooth="yes"/>
      <point x="253" y="645"/>
      <point x="220" y="613"/>
    </contour>
  </outline>
</glyph>
<glyph name="quotesingle" format="2">
  <advance width="180"/>
  <unicode hex="0027"/>
  <outline>
    <contour>
      <point x="50" y="580" type="line"/>
      <point x="50" y="670" type="line"/>
      <point x="130" y="670" type="line"/>
      <point x="130" y="580" type="line"/>
      <point x="110" y="450" type="line"/>
      <point x="70" y="450" type="line"/>
    </contour>
  </outline>
</glyph>
<glyph name="parenright" format="2">
  <advance width="241"/>
  <unicode hex="0029"/>
  <outline>
    <contour>
      <point x="120" y="230" type="curve" smooth="yes"/>
      <point x="120" y="359"/>
      <point x="102" y="491"/>
      <point x="59" y="623" type="curve" smooth="yes"/>
      <point x="53" y="642"/>
      <point x="46" y="661"/>
      <point x="39" y="680" type="curve"/>
      <point x="79" y="680" type="line"/>
      <point x="90" y="658"/>
      <point x="101" y="637"/>
      <point x="110" y="616" type="curve" smooth="yes"/>
      <point x="176" y="471"/>
      <point x="200" y="355"/>
      <point x="200" y="230" type="curve" smooth="yes"/>
      <point x="200" y="109"/>
      <point x="158" y="-14"/>
      <point x="113" y="-125" type="curve" smooth="yes"/>
      <point x="90" y="-180" type="line"/>
      <point x="40" y="-180" type="line"/>
      <point x="89" y="-45"/>
      <point x="120" y="89"/>
    </contour>
  </outline>
</glyph>
<glyph name="asterisk" format="2">
  <advance width="543"/>
  <unicode hex="002A"/>
  <outline>
    <contour>
      <point x="57.4062" y="740" type="line"/>
      <point x="265" y="667" type="line"/>
      <point x="270" y="677" type="line"/>
      <point x="106.406" y="829" type="line"/>
    </contour>
    <contour>
      <point x="138.982" y="494.747" type="line"/>
      <point x="271" y="669" type="line"/>
      <point x="264" y="677" type="line"/>
      <point x="69.9818" y="568.747" type="line"/>
    </contour>
    <contour>
      <point x="404.299" y="504.922" type="line"/>
      <point x="272" y="673" type="line"/>
      <point x="263" y="671" type="line"/>
      <point x="290.888" y="460" type="line"/>
    </contour>
    <contour>
      <point x="485" y="727" type="line"/>
      <point x="267" y="678" type="line"/>
      <point x="267" y="666" type="line"/>
      <point x="485" y="617" type="line"/>
    </contour>
    <contour>
      <point x="282" y="896" type="line"/>
      <point x="261" y="674" type="line"/>
      <point x="273" y="670" type="line"/>
      <point x="387" y="862" type="line"/>
    </contour>
  </outline>
</glyph>
<glyph name="plus" format="2">
  <advance width="564"/>
  <unicode hex="002B"/>
  <outline>
    <contour>
      <point x="66" y="206" type="line"/>
      <point x="498" y="206" type="line"/>
      <point x="498" y="282" type="line"/>
      <point x="66" y="282" type="line"/>
    </contour>
    <contour>
      <point x="244" y="28" type="line"/>
      <point x="320" y="28" type="line"/>
      <point x="320" y="460" type="line"/>
      <point x="244" y="460" type="line"/>
    </contour>
  </outline>
</glyph>
<glyph name="comma" format="2">
  <advance width="185"/>
  <unicode hex="002C"/>
  <outline>
    <contour>
      <point x="48" y="-110" type="line"/>
      <point x="91" y="-110" type="line"/>
      <point x="137" y="0" type="line"/>
      <point x="137" y="90" type="line"/>
      <point x="48" y="90" type="line"/>
      <point x="48" y="0" type="line"/>
      <point x="70" y="0" type="line"/>
    </contour>
  </outline>
</glyph>
<glyph name="hyphen" format="2">
  <advance width="360"/>
  <unicode hex="002D"/>
  <outline>
    <contour>
      <point x="70" y="210" type="line"/>
      <point x="70" y="275" type="line"/>
      <point x="290" y="275" type="line"/>
      <point x="290" y="210" type="line"/>
    </contour>
  </outline>
</glyph>
<glyph name="period" format="2">
  <advance width="180"/>
  <unicode hex="002E"/>
  <outline>
    <contour>
      <point x="50" y="0" type="line"/>
      <point x="50" y="80" type="line"/>
      <point x="130" y="80" type="line"/>
      <point x="130" y="0" type="line"/>
    </contour>
  </outline>
</glyph>
<glyph name="zero" format="2">
  <advance width="568"/>
  <unicode hex="0030"/>
  <outline>
    <contour>
      <point x="48" y="341" type="curve" smooth="yes"/>
      <point x="48" y="136"/>
      <point x="94" y="-12"/>
      <point x="284" y="-12" type="curve" smooth="yes"/>
      <point x="474" y="-12"/>
      <point x="520" y="136"/>
      <point x="520" y="341" type="curve" smooth="yes"/>
      <point x="520" y="545"/>
      <point x="474" y="692"/>
      <point x="284" y="692" type="curve" smooth="yes"/>
      <point x="94" y="692"/>
      <point x="48" y="545"/>
    </contour>
    <contour>
      <point x="148" y="341" type="curve" smooth="yes"/>
      <point x="148" y="477"/>
      <point x="150" y="602"/>
      <point x="286" y="602" type="curve" smooth="yes"/>
      <point x="421" y="602"/>
      <point x="421" y="477"/>
      <point x="421" y="341" type="curve" smooth="yes"/>
      <point x="421" y="204"/>
      <point x="421" y="78"/>
      <point x="286" y="78" type="curve" smooth="yes"/>
      <point x="150" y="78"/>
      <point x="148" y="204"/>
    </contour>
  </outline>
</glyph>
<glyph name="one" format="2">
  <advance width="318"/>
  <unicode hex="0031"/>
  <outline>
    <contour>
      <point x="10" y="539" type="line"/>
      <point x="69" y="539"/>
      <point x="129" y="549"/>
      <point x="156" y="563" type="curve"/>
      <point x="149" y="576" type="line"/>
      <point x="149" y="0" type="line"/>
      <point x="248" y="0" type="line"/>
      <point x="248" y="680" type="line"/>
      <point x="208" y="680" type="line"/>
      <point x="170" y="646"/>
      <point x="116" y="614"/>
      <point x="10" y="614" type="curve"/>
    </contour>
  </outline>
</glyph>
<glyph name="two" format="2">
  <advance width="512"/>
  <unicode hex="0032"/>
  <outline>
    <contour>
      <point x="42" y="0" type="line"/>
      <point x="498" y="0" type="line"/>
      <point x="498" y="90" type="line"/>
      <point x="134" y="90" type="line"/>
      <point x="145" y="75" type="line"/>
      <point x="233" y="172"/>
      <point x="480" y="307"/>
      <point x="480" y="491" type="curve" smooth="yes"/>
      <point x="480" y="611"/>
      <point x="386" y="692"/>
      <point x="246" y="692" type="curve" smooth="yes"/>
      <point x="112" y="692"/>
      <point x="20" y="598"/>
      <point x="20" y="463" type="curve"/>
      <point x="120" y="463" type="line"/>
      <point x="123" y="546"/>
      <point x="174" y="602"/>
      <point x="247" y="602" type="curve" smooth="yes"/>
      <point x="327" y="602"/>
      <point x="380" y="552"/>
      <point x="380" y="480" type="curve" smooth="yes"/>
      <point x="380" y="330"/>
      <point x="130" y="198"/>
      <point x="42" y="93" type="curve"/>
    </contour>
  </outline>
</glyph>
<glyph name="three" format="2">
  <advance width="506"/>
  <unicode hex="0033"/>
  <outline>
    <contour>
      <point x="34" y="162" type="line"/>
      <point x="34" y="45"/>
      <point x="137" y="-12"/>
      <point x="244" y="-12" type="curve" smooth="yes"/>
      <point x="372" y="-12"/>
      <point x="476" y="50"/>
      <point x="476" y="189" type="curve" smooth="yes"/>
      <point x="476" y="281"/>
      <point x="425" y="345"/>
      <point x="342" y="367" type="curve"/>
      <point x="344" y="358" type="line"/>
      <point x="423" y="385"/>
      <point x="450" y="445"/>
      <point x="450" y="512" type="curve" smooth="yes"/>
      <point x="450" y="627"/>
      <point x="372" y="692"/>
      <point x="237" y="692" type="curve" smooth="yes"/>
      <point x="115" y="692"/>
      <point x="34" y="612"/>
      <point x="34" y="492" type="curve"/>
      <point x="134" y="492" type="line"/>
      <point x="134" y="558"/>
      <point x="174" y="602"/>
      <point x="239" y="602" type="curve" smooth="yes"/>
      <point x="306" y="602"/>
      <point x="350" y="562"/>
      <point x="350" y="502" type="curve" smooth="yes"/>
      <point x="350" y="443"/>
      <point x="303" y="399"/>
      <point x="233" y="399" type="curve" smooth="yes"/>
      <point x="183" y="399" type="line"/>
      <point x="183" y="310" type="line"/>
      <point x="230" y="310" type="line" smooth="yes"/>
      <point x="318" y="310"/>
      <point x="376" y="263"/>
      <point x="376" y="191" type="curve" smooth="yes"/>
      <point x="376" y="107"/>
      <point x="311" y="78"/>
      <point x="245" y="78" type="curve" smooth="yes"/>
      <point x="196" y="78"/>
      <point x="134" y="105"/>
      <point x="134" y="162" type="curve"/>
    </contour>
  </outline>
</glyph>
<glyph name="four" format="2">
  <advance width="528"/>
  <unicode hex="0034"/>
  <outline>
    <contour>
      <point x="20" y="173" type="line"/>
      <point x="496" y="173" type="line"/>
      <point x="496" y="263" type="line"/>
      <point x="69" y="263" type="line"/>
      <point x="75" y="183" type="line"/>
      <point x="367" y="629" type="line"/>
      <point x="336" y="629" type="line"/>
      <point x="336" y="0" type="line"/>
      <point x="436" y="0" type="line"/>
      <point x="436" y="680" type="line"/>
      <point x="294" y="680" type="line"/>
      <point x="20" y="260" type="line"/>
    </contour>
  </outline>
</glyph>
<glyph name="five" format="2">
  <advance width="528"/>
  <unicode hex="0035"/>
  <outline>
    <contour>
      <point x="53" y="148" type="curve"/>
      <point x="133" y="148" type="line"/>
      <point x="148" y="100"/>
      <point x="182" y="69"/>
      <point x="262" y="69" type="curve" smooth="yes"/>
      <point x="356" y="69"/>
      <point x="400" y="164"/>
      <point x="400" y="250" type="curve" smooth="yes"/>
      <point x="400" y="375"/>
      <point x="340" y="420"/>
      <point x="293" y="420" type="curve" smooth="yes"/>
      <point x="231" y="420"/>
      <point x="157" y="391"/>
      <point x="145" y="298" type="curve"/>
      <point x="56" y="298" type="line"/>
      <point x="56" y="700" type="line"/>
      <point x="422" y="700" type="line"/>
      <point x="422" y="630" type="line"/>
      <point x="143" y="630" type="line"/>
      <point x="143" y="378" type="line"/>
      <point x="144" y="378"/>
      <point x="128" y="378"/>
      <point x="129" y="378" type="curve"/>
      <point x="155" y="431"/>
      <point x="225" y="493"/>
      <point x="295" y="493" type="curve" smooth="yes"/>
      <point x="413" y="493"/>
      <point x="489" y="392"/>
      <point x="489" y="243" type="curve" smooth="yes"/>
      <point x="489" y="101"/>
      <point x="395" y="-11"/>
      <point x="266" y="-11" type="curve" smooth="yes"/>
      <point x="142" y="-11"/>
      <point x="80" y="51"/>
    </contour>
  </outline>
</glyph>
<glyph name="six" format="2">
  <advance width="528"/>
  <unicode hex="0036"/>
  <outline>
    <contour>
      <point x="258" y="69" type="curve" smooth="yes"/>
      <point x="345" y="69"/>
      <point x="400" y="131"/>
      <point x="400" y="230" type="curve" smooth="yes"/>
      <point x="400" y="354"/>
      <point x="319" y="380"/>
      <point x="271" y="380" type="curve" smooth="yes"/>
      <point x="207" y="380"/>
      <point x="123" y="352"/>
      <point x="123" y="232" type="curve" smooth="yes"/>
      <point x="123" y="129"/>
      <point x="173" y="69"/>
    </contour>
    <contour>
      <point x="36" y="276" type="curve" smooth="yes"/>
      <point x="36" y="515"/>
      <point x="86" y="711"/>
      <point x="266" y="711" type="curve" smooth="yes"/>
      <point x="377" y="711"/>
      <point x="437" y="659"/>
      <point x="467" y="574" type="curve"/>
      <point x="376" y="574" type="line"/>
      <point x="356" y="610"/>
      <point x="342" y="631"/>
      <point x="264" y="631" type="curve" smooth="yes"/>
      <point x="174" y="631"/>
      <point x="139" y="563"/>
      <point x="123" y="363" type="curve"/>
      <point x="126" y="363" type="line"/>
      <point x="152" y="416"/>
      <point x="205" y="453"/>
      <point x="275" y="453" type="curve" smooth="yes"/>
      <point x="393" y="453"/>
      <point x="489" y="372"/>
      <point x="489" y="223" type="curve" smooth="yes"/>
      <point x="489" y="81"/>
      <point x="395" y="-11"/>
      <point x="261" y="-11" type="curve" smooth="yes"/>
      <point x="118" y="-11"/>
      <point x="36" y="93"/>
    </contour>
  </outline>
</glyph>
<glyph name="seven" format="2">
  <advance width="480"/>
  <unicode hex="0037"/>
  <outline>
    <contour>
      <point x="10" y="590" type="line"/>
      <point x="470" y="590" type="line"/>
      <point x="470" y="680" type="line"/>
      <point x="10" y="680" type="line"/>
    </contour>
    <contour>
      <point x="131" y="0" type="curve"/>
      <point x="230" y="0" type="line"/>
      <point x="230" y="264"/>
      <point x="311" y="393"/>
      <point x="470" y="590" type="curve"/>
      <point x="470" y="605" type="line"/>
      <point x="379" y="605" type="line"/>
      <point x="215" y="413"/>
      <point x="131" y="273"/>
    </contour>
  </outline>
</glyph>
<glyph name="eight" format="2">
  <advance width="513"/>
  <unicode hex="0038"/>
  <outline>
    <contour>
      <point x="30" y="181" type="curve" smooth="yes"/>
      <point x="30" y="71"/>
      <point x="105" y="-12"/>
      <point x="255" y="-12" type="curve" smooth="yes"/>
      <point x="405" y="-12"/>
      <point x="483" y="71"/>
      <point x="483" y="181" type="curve" smooth="yes"/>
      <point x="483" y="277"/>
      <point x="420" y="330"/>
      <point x="347" y="356" type="curve"/>
      <point x="349" y="347" type="line"/>
      <point x="409" y="365"/>
      <point x="470" y="411"/>
      <point x="470" y="507" type="curve" smooth="yes"/>
      <point x="470" y="610"/>
      <point x="401" y="692"/>
      <point x="256" y="692" type="curve" smooth="yes"/>
      <point x="128" y="692"/>
      <point x="42" y="610"/>
      <point x="42" y="507" type="curve" smooth="yes"/>
      <point x="42" y="394"/>
      <point x="101" y="358"/>
      <point x="133" y="348" type="curve"/>
      <point x="138" y="357" type="line"/>
      <point x="83" y="328"/>
      <point x="30" y="278"/>
    </contour>
    <contour>
      <point x="130" y="187" type="curve" smooth="yes"/>
      <point x="130" y="257"/>
      <point x="183" y="307"/>
      <point x="255" y="307" type="curve" smooth="yes"/>
      <point x="335" y="307"/>
      <point x="383" y="272"/>
      <point x="383" y="187" type="curve" smooth="yes"/>
      <point x="383" y="118"/>
      <point x="338" y="78"/>
      <point x="255" y="78" type="curve" smooth="yes"/>
      <point x="172" y="78"/>
      <point x="130" y="118"/>
    </contour>
    <contour>
      <point x="141" y="500" type="curve" smooth="yes"/>
      <point x="141" y="557"/>
      <point x="173" y="602"/>
      <point x="257" y="602" type="curve" smooth="yes"/>
      <point x="339" y="602"/>
      <point x="371" y="557"/>
      <point x="371" y="500" type="curve" smooth="yes"/>
      <point x="371" y="441"/>
      <point x="338" y="390"/>
      <point x="257" y="390" type="curve" smooth="yes"/>
      <point x="173" y="390"/>
      <point x="141" y="441"/>
    </contour>
  </outline>
</glyph>
<glyph name="nine" format="2">
  <advance width="547"/>
  <unicode hex="0039"/>
  <outline>
    <contour>
      <point x="140" y="461" type="curve" smooth="yes"/>
      <point x="140" y="538"/>
      <point x="181" y="602"/>
      <point x="269" y="602" type="curve" smooth="yes"/>
      <point x="384" y="602"/>
      <point x="398" y="538"/>
      <point x="398" y="461" type="curve" smooth="yes"/>
      <point x="398" y="356"/>
      <point x="318" y="329"/>
      <point x="257" y="329" type="curve" smooth="yes"/>
      <point x="211" y="329"/>
      <point x="140" y="355"/>
    </contour>
    <contour>
      <point x="62" y="134" type="line"/>
      <point x="91" y="46"/>
      <point x="151" y="-12"/>
      <point x="264" y="-12" type="curve" smooth="yes"/>
      <point x="445" y="-12"/>
      <point x="499" y="152"/>
      <point x="499" y="392" type="curve" smooth="yes"/>
      <point x="499" y="568"/>
      <point x="442" y="692"/>
      <point x="265" y="692" type="curve" smooth="yes"/>
      <point x="135" y="692"/>
      <point x="40" y="604"/>
      <point x="40" y="468" type="curve" smooth="yes"/>
      <point x="40" y="325"/>
      <point x="134" y="247"/>
      <point x="249" y="247" type="curve" smooth="yes"/>
      <point x="318" y="247"/>
      <point x="369" y="282"/>
      <point x="395" y="332" type="curve"/>
      <point x="398" y="332" type="line"/>
      <point x="386" y="134"/>
      <point x="359" y="78"/>
      <point x="267" y="78" type="curve" smooth="yes"/>
      <point x="196" y="78"/>
      <point x="181" y="99"/>
      <point x="163" y="134" type="curve"/>
    </contour>
  </outline>
</glyph>
<glyph name="colon" format="2">
  <advance width="180"/>
  <unicode hex="003A"/>
  <outline>
    <contour>
      <point x="50" y="370" type="line"/>
      <point x="50" y="450" type="line"/>
      <point x="130" y="450" type="line"/>
      <point x="130" y="370" type="line"/>
    </contour>
    <contour>
      <point x="50" y="0" type="line"/>
      <point x="50" y="80" type="line"/>
      <point x="130" y="80" type="line"/>
      <point x="130" y="0" type="line"/>
    </contour>
  </outline>
</glyph>
<glyph name="less" format="2">
  <advance width="514"/>
  <unicode hex="003C"/>
  <outline>
    <contour>
      <point x="34" y="300" type="line"/>
      <point x="34" y="370" type="line"/>
      <point x="466" y="570" type="line"/>
      <point x="466" y="500" type="line"/>
      <point x="97" y="331" type="line"/>
      <point x="97" y="341" type="line"/>
      <point x="466" y="170" type="line"/>
      <point x="466" y="100" type="line"/>
    </contour>
  </outline>
</glyph>
<glyph name="equal" format="2">
  <advance width="450"/>
  <unicode hex="003D"/>
  <outline>
    <contour>
      <point x="48" y="126" type="line"/>
      <point x="402" y="126" type="line"/>
      <point x="402" y="202" type="line"/>
      <point x="48" y="202" type="line"/>
    </contour>
    <contour>
      <point x="48" y="286" type="line"/>
      <point x="402" y="286" type="line"/>
      <point x="402" y="362" type="line"/>
      <point x="48" y="362" type="line"/>
    </contour>
  </outline>
  <guideline angle="0" x="0" y="244"/>
</glyph>
<glyph name="greater" format="2">
  <advance width="514"/>
  <unicode hex="003E"/>
  <outline>
    <contour>
      <point x="34" y="100" type="line"/>
      <point x="34" y="172" type="line"/>
      <point x="403" y="341" type="line"/>
      <point x="403" y="331" type="line"/>
      <point x="34" y="500" type="line"/>
      <point x="34" y="570" type="line"/>
      <point x="468" y="370" type="line"/>
      <point x="468" y="300" type="line"/>
    </contour>
  </outline>
</glyph>
<glyph name="question" format="2">
  <advance width="507"/>
  <unicode hex="003F"/>
  <outline>
    <contour>
      <point x="40" y="480" type="curve"/>
      <point x="132" y="480" type="line"/>
      <point x="136.364" y="564"/>
      <point x="187.51" y="620"/>
      <point x="259.866" y="620" type="curve" smooth="yes"/>
      <point x="328.946" y="620"/>
      <point x="375" y="579.293"/>
      <point x="375" y="518.232" type="curve" smooth="yes"/>
      <point x="375" y="399"/>
      <point x="188" y="354"/>
      <point x="188" y="180" type="curve" smooth="yes"/>
      <point x="188" y="140" type="line"/>
      <point x="280" y="140" type="line"/>
      <point x="280" y="180" type="line" smooth="yes"/>
      <point x="280" y="319"/>
      <point x="467" y="354"/>
      <point x="467" y="509" type="curve" smooth="yes"/>
      <point x="467" y="629.6"/>
      <point x="382.961" y="710"/>
      <point x="256.902" y="710" type="curve" smooth="yes"/>
      <point x="126.761" y="710"/>
      <point x="40" y="618"/>
    </contour>
    <contour>
      <point x="188" y="0" type="line"/>
      <point x="280" y="0" type="line"/>
      <point x="280" y="90" type="line"/>
      <point x="188" y="90" type="line"/>
    </contour>
  </outline>
</glyph>
<glyph name="at" format="2">
  <advance width="778"/>
  <unicode hex="0040"/>
  <outline>
    <contour>
      <point x="295.02" y="189.81" type="curve" smooth="yes"/>
      <point x="295.02" y="259.47"/>
      <point x="337.3" y="309.12"/>
      <point x="400.71" y="309.12" type="curve" smooth="yes"/>
      <point x="427.12" y="309.12"/>
      <point x="454.14" y="301.05"/>
      <point x="471.49" y="287.43" type="curve"/>
      <point x="425.62" y="159" type="line" smooth="yes"/>
      <point x="414.91" y="129"/>
      <point x="387" y="109"/>
      <point x="355.85" y="109" type="curve" smooth="yes"/>
      <point x="319.36" y="109"/>
      <point x="295.02" y="139.38"/>
    </contour>
    <contour>
      <point x="40" y="202" type="curve" smooth="yes"/>
      <point x="40" y="13.6"/>
      <point x="162.8" y="-112"/>
      <point x="347" y="-112" type="curve" smooth="yes"/>
      <point x="418.863" y="-112"/>
      <point x="490.968" y="-95"/>
      <point x="542" y="-66" type="curve"/>
      <point x="521" y="-9" type="line"/>
      <point x="487" y="-29"/>
      <point x="434.385" y="-40"/>
      <point x="367" y="-40" type="curve" smooth="yes"/>
      <point x="226" y="-40"/>
      <point x="132" y="56.9917"/>
      <point x="132" y="202.479" type="curve" smooth="yes"/>
      <point x="132" y="360.592"/>
      <point x="234" y="466"/>
      <point x="387" y="466" type="curve" smooth="yes"/>
      <point x="547.2" y="466"/>
      <point x="654" y="379.597"/>
      <point x="654" y="249.993" type="curve" smooth="yes"/>
      <point x="654" y="160.971"/>
      <point x="610.641" y="90.1577"/>
      <point x="545.603" y="90.1577" type="curve" smooth="yes"/>
      <point x="516.375" y="90.1577"/>
      <point x="507.518" y="110.158"/>
      <point x="507.518" y="135.158" type="curve" smooth="yes"/>
      <point x="507.518" y="154.158"/>
      <point x="514.427" y="174.211"/>
      <point x="520.19" y="190.346" type="curve" smooth="yes"/>
      <point x="579" y="355" type="line"/>
      <point x="498.88" y="355" type="line"/>
      <point x="477.791" y="328.448" type="line"/>
      <point x="521.058" y="316" type="line"/>
      <point x="506.572" y="355"/>
      <point x="445.314" y="381"/>
      <point x="383.192" y="381" type="curve" smooth="yes"/>
      <point x="281.479" y="381"/>
      <point x="203" y="294.105"/>
      <point x="203" y="181.483" type="curve" smooth="yes"/>
      <point x="203" y="101.393"/>
      <point x="249.217" y="48"/>
      <point x="318.542" y="48" type="curve" smooth="yes"/>
      <point x="377.428" y="48"/>
      <point x="439.383" y="76.1027"/>
      <point x="473.431" y="118.257" type="curve"/>
      <point x="445.314" y="138" type="line"/>
      <point x="431.682" y="127.288"/>
      <point x="422.594" y="104.548"/>
      <point x="422.594" y="84.0341" type="curve" smooth="yes"/>
      <point x="422.594" y="44.4137"/>
      <point x="458.578" y="18"/>
      <point x="512.555" y="18" type="curve" smooth="yes"/>
      <point x="647.822" y="18"/>
      <point x="738" y="113.6"/>
      <point x="738" y="257" type="curve" smooth="yes"/>
      <point x="738" y="425.6"/>
      <point x="597.551" y="538"/>
      <point x="386.878" y="538" type="curve" smooth="yes"/>
      <point x="178.751" y="538"/>
      <point x="40" y="403.6"/>
    </contour>
  </outline>
</glyph>
<glyph name="A" format="2">
  <advance width="544"/>
  <unicode hex="0041"/>
  <anchor x="272" y="740" name="top"/>
  <anchor x="272" y="639" name="t.ring"/>
  <anchor x="265" y="-40" name="bottom"/>
  <anchor x="497" y="0" name="b.ogonek"/>
  <outline>
    <contour>
      <point x="133" y="187" type="line"/>
      <point x="414" y="187" type="line"/>
      <point x="414" y="277" type="line"/>
      <point x="133" y="277" type="line"/>
    </contour>
    <contour>
      <point x="10" y="0" type="line"/>
      <point x="111" y="0" type="line"/>
      <point x="245" y="437" type="line" smooth="yes"/>
      <point x="252" y="460"/>
      <point x="263" y="502"/>
      <point x="271" y="545" type="curve"/>
      <point x="267" y="543" type="line"/>
      <point x="277" y="543" type="line"/>
      <point x="273" y="545" type="line"/>
      <point x="281" y="502"/>
      <point x="292" y="460"/>
      <point x="299" y="437" type="curve" smooth="yes"/>
      <point x="434" y="0" type="line"/>
      <point x="534" y="0" type="line"/>
      <point x="326" y="680" type="line"/>
      <point x="218" y="680" type="line"/>
    </contour>
  </outline>
  <guideline angle="90" x="272" y="0"/>
  <guideline angle="73.0156" x="10" y="0"/>
  <guideline angle="253.018" x="294" y="634"/>
  <guideline angle="106.982" x="430" y="0"/>
  <guideline angle="286.984" x="312" y="680"/>
</glyph>
<glyph name="B" format="2">
  <advance width="589"/>
  <unicode hex="0042"/>
  <anchor x="275" y="-40" name="bottom"/>
  <anchor x="275" y="740" name="top"/>
  <outline>
    <contour>
      <point x="60" y="0" type="line"/>
      <point x="160" y="0" type="line"/>
      <point x="160" y="680" type="line"/>
      <point x="60" y="680" type="line"/>
    </contour>
    <contour>
      <point x="121" y="0" type="line"/>
      <point x="282" y="0" type="line" smooth="yes"/>
      <point x="466" y="0"/>
      <point x="541" y="58"/>
      <point x="541" y="200" type="curve" smooth="yes"/>
      <point x="541" y="292"/>
      <point x="481" y="364"/>
      <point x="388" y="379" type="curve"/>
      <point x="408" y="349" type="line"/>
      <point x="481" y="372"/>
      <point x="521" y="429"/>
      <point x="521" y="508" type="curve" smooth="yes"/>
      <point x="521" y="625"/>
      <point x="453" y="680"/>
      <point x="306" y="680" type="curve" smooth="yes"/>
      <point x="121" y="680" type="line"/>
      <point x="121" y="590" type="line"/>
      <point x="306" y="590" type="line" smooth="yes"/>
      <point x="379" y="590"/>
      <point x="420" y="559"/>
      <point x="420" y="504" type="curve" smooth="yes"/>
      <point x="420" y="432"/>
      <point x="395" y="412"/>
      <point x="306" y="412" type="curve" smooth="yes"/>
      <point x="121" y="412" type="line"/>
      <point x="121" y="322" type="line"/>
      <point x="277" y="322" type="line" smooth="yes"/>
      <point x="380" y="322"/>
      <point x="440" y="278"/>
      <point x="440" y="203" type="curve" smooth="yes"/>
      <point x="440" y="125"/>
      <point x="389" y="90"/>
      <point x="277" y="90" type="curve" smooth="yes"/>
      <point x="121" y="90" type="line"/>
    </contour>
  </outline>
  <guideline angle="0" x="0" y="42"/>
  <guideline angle="0" x="0" y="654"/>
  <guideline angle="0" x="0" y="382"/>
  <guideline angle="0" x="0" y="360"/>
  <guideline angle="0" x="0" y="127"/>
  <guideline angle="0" x="0" y="536"/>
  <guideline angle="90" x="275" y="0"/>
</glyph>
<glyph name="C" format="2">
  <advance width="645"/>
  <unicode hex="0043"/>
  <anchor x="320" y="740" name="top"/>
  <anchor x="320" y="-60" name="bottom"/>
  <outline>
    <contour>
      <point x="328" y="70" type="line"/>
      <point x="409" y="70"/>
      <point x="468" y="116"/>
      <point x="488" y="184" type="curve"/>
      <point x="580" y="184" type="line"/>
      <point x="560" y="76"/>
      <point x="473" y="-10"/>
      <point x="328" y="-10" type="curve"/>
    </contour>
    <contour>
      <point x="328" y="-10" type="line"/>
      <point x="158" y="-10"/>
      <point x="50" y="120"/>
      <point x="50" y="340" type="curve" smooth="yes"/>
      <point x="50" y="560"/>
      <point x="158" y="690"/>
      <point x="328" y="690" type="curve"/>
      <point x="328" y="610" type="line"/>
      <point x="208" y="610"/>
      <point x="140" y="514"/>
      <point x="140" y="340" type="curve" smooth="yes"/>
      <point x="140" y="166"/>
      <point x="208" y="70"/>
      <point x="328" y="70" type="curve"/>
    </contour>
    <contour>
      <point x="328" y="690" type="line"/>
      <point x="476" y="690"/>
      <point x="564" y="595"/>
      <point x="595" y="454" type="curve"/>
      <point x="507" y="454" type="line"/>
      <point x="487" y="545"/>
      <point x="433" y="610"/>
      <point x="328" y="610" type="curve"/>
    </contour>
  </outline>
</glyph>
<glyph name="D" format="2">
  <advance width="596"/>
  <unicode hex="0044"/>
  <anchor x="269" y="740" name="top"/>
  <anchor x="269" y="-50" name="bottom"/>
  <anchor x="215" y="0" name="b.cedilla"/>
  <outline>
    <contour>
      <point x="60" y="0" type="line"/>
      <point x="160" y="0" type="line"/>
      <point x="160" y="680" type="line"/>
      <point x="60" y="680" type="line"/>
    </contour>
    <contour>
      <point x="77" y="0" type="line"/>
      <point x="263" y="0" type="line" smooth="yes"/>
      <point x="455" y="0"/>
      <point x="548" y="139"/>
      <point x="548" y="340" type="curve" smooth="yes"/>
      <point x="548" y="538"/>
      <point x="454" y="680"/>
      <point x="263" y="680" type="curve" smooth="yes"/>
      <point x="77" y="680" type="line"/>
      <point x="77" y="590" type="line"/>
      <point x="265" y="590" type="line" smooth="yes"/>
      <point x="404" y="590"/>
      <point x="448" y="483"/>
      <point x="448" y="340" type="curve" smooth="yes"/>
      <point x="448" y="233"/>
      <point x="402" y="90"/>
      <point x="265" y="90" type="curve" smooth="yes"/>
      <point x="77" y="90" type="line"/>
    </contour>
  </outline>
  <guideline angle="90" name="h_1" x="269" y="0"/>
</glyph>
<glyph name="E" format="2">
  <advance width="511"/>
  <unicode hex="0045"/>
  <anchor x="262" y="740" name="top"/>
  <anchor x="262" y="-40" name="bottom"/>
  <anchor x="256" y="0" name="b.cedilla"/>
  <outline>
    <contour>
      <point x="60" y="0" type="line"/>
      <point x="161" y="0" type="line"/>
      <point x="161" y="680" type="line"/>
      <point x="60" y="680" type="line"/>
    </contour>
    <contour>
      <point x="111" y="302" type="line"/>
      <point x="421" y="302" type="line"/>
      <point x="421" y="392" type="line"/>
      <point x="111" y="392" type="line"/>
    </contour>
    <contour>
      <point x="111" y="590" type="line"/>
      <point x="461" y="590" type="line"/>
      <point x="461" y="680" type="line"/>
      <point x="111" y="680" type="line"/>
    </contour>
    <contour>
      <point x="111" y="0" type="line"/>
      <point x="461" y="0" type="line"/>
      <point x="461" y="90" type="line"/>
      <point x="111" y="90" type="line"/>
    </contour>
  </outline>
  <guideline angle="90" name="h_1" x="262" y="0"/>
</glyph>
<glyph name="F" format="2">
  <advance width="510"/>
  <unicode hex="0046"/>
  <outline>
    <component base="I"/>
    <contour>
      <point x="110" y="680" type="line"/>
      <point x="460" y="680" type="line"/>
      <point x="460" y="600" type="line"/>
      <point x="110" y="600" type="line"/>
    </contour>
    <contour>
      <point x="110" y="387" type="line"/>
      <point x="420" y="387" type="line"/>
      <point x="420" y="307" type="line"/>
      <point x="110" y="307" type="line"/>
    </contour>
  </outline>
</glyph>
<glyph name="G" format="2">
  <advance width="646"/>
  <unicode hex="0047"/>
  <anchor x="316" y="740" name="top"/>
  <anchor x="316" y="-40" name="bottom"/>
  <outline>
    <contour>
      <point x="48" y="345" type="curve" smooth="yes"/>
      <point x="48" y="123"/>
      <point x="160" y="-12"/>
      <point x="326" y="-12" type="curve" smooth="yes"/>
      <point x="419" y="-12"/>
      <point x="490" y="31"/>
      <point x="521" y="97" type="curve"/>
      <point x="496" y="87" type="line"/>
      <point x="502" y="-1" type="line"/>
      <point x="589" y="-1" type="line"/>
      <point x="589" y="314" type="line"/>
      <point x="329" y="314" type="line"/>
      <point x="329" y="224" type="line"/>
      <point x="489" y="224" type="line"/>
      <point x="489" y="125" type="line"/>
      <point x="516" y="125" type="line"/>
      <point x="516" y="204" type="line"/>
      <point x="497" y="204" type="line"/>
      <point x="475" y="121"/>
      <point x="418" y="78"/>
      <point x="336" y="78" type="curve" smooth="yes"/>
      <point x="214" y="78"/>
      <point x="148" y="173"/>
      <point x="148" y="343" type="curve" smooth="yes"/>
      <point x="148" y="508"/>
      <point x="209" y="602"/>
      <point x="318" y="602" type="curve" smooth="yes"/>
      <point x="400" y="602"/>
      <point x="457" y="548"/>
      <point x="477" y="455" type="curve"/>
      <point x="577" y="455" type="line"/>
      <point x="548" y="597"/>
      <point x="462" y="692"/>
      <point x="320" y="692" type="curve" smooth="yes"/>
      <point x="154" y="692"/>
      <point x="48" y="561"/>
    </contour>
  </outline>
  <guideline angle="90" name="h_1" x="316" y="0"/>
</glyph>
<glyph name="H" format="2">
  <advance width="608"/>
  <unicode hex="0048"/>
  <anchor x="304" y="740" name="top"/>
  <anchor x="304" y="-40" name="bottom"/>
  <anchor x="469" y="0" name="b.cedilla"/>
  <outline>
    <contour>
      <point x="60" y="0" type="line"/>
      <point x="160" y="0" type="line"/>
      <point x="160" y="680" type="line"/>
      <point x="60" y="680" type="line"/>
    </contour>
    <contour>
      <point x="100" y="314" type="line"/>
      <point x="492" y="314" type="line"/>
      <point x="492" y="404" type="line"/>
      <point x="100" y="404" type="line"/>
    </contour>
    <contour>
      <point x="448" y="0" type="line"/>
      <point x="548" y="0" type="line"/>
      <point x="548" y="680" type="line"/>
      <point x="448" y="680" type="line"/>
    </contour>
  </outline>
  <guideline angle="90" name="h_1" x="304" y="0"/>
</glyph>
<glyph name="I" format="2">
  <advance width="210"/>
  <unicode hex="0049"/>
  <anchor x="105" y="740" name="top"/>
  <outline>
    <contour>
      <point x="60" y="0" type="line"/>
      <point x="60" y="680" type="line"/>
      <point x="150" y="680" type="line"/>
      <point x="150" y="0" type="line"/>
    </contour>
  </outline>
  <guideline angle="90" x="110" y="0"/>
</glyph>
<glyph name="J" format="2">
  <advance width="309"/>
  <unicode hex="004A"/>
  <anchor x="198" y="740" name="top"/>
  <outline>
    <contour>
      <point x="50" y="0" type="line"/>
      <point x="80" y="0" type="line" smooth="yes"/>
      <point x="208" y="0"/>
      <point x="249" y="75"/>
      <point x="249" y="182" type="curve" smooth="yes"/>
      <point x="249" y="680" type="line"/>
      <point x="148" y="680" type="line"/>
      <point x="148" y="178" type="line" smooth="yes"/>
      <point x="148" y="114"/>
      <point x="116" y="98"/>
      <point x="76" y="98" type="curve" smooth="yes"/>
      <point x="50" y="98" type="line"/>
    </contour>
  </outline>
</glyph>
<glyph name="K" format="2">
  <advance width="560"/>
  <unicode hex="004B"/>
  <outline>
    <component base="I"/>
    <contour>
      <point x="146" y="166" type="line"/>
      <point x="146" y="319" type="line"/>
      <point x="400" y="680" type="line"/>
      <point x="510" y="680" type="line"/>
      <point x="342" y="442" type="line"/>
      <point x="550" y="0" type="line"/>
      <point x="440" y="0" type="line"/>
      <point x="274" y="347" type="line"/>
    </contour>
  </outline>
  <guideline angle="0" x="0" y="350"/>
  <guideline angle="295.188" x="352" y="421"/>
  <guideline angle="115.617" x="440" y="0"/>
  <guideline angle="54.8697" x="255" y="319"/>
</glyph>
<glyph name="L" format="2">
  <advance width="520"/>
  <unicode hex="004C"/>
  <anchor x="105" y="740" name="top"/>
  <outline>
    <contour>
      <point x="130" y="80" type="line"/>
      <point x="470" y="80" type="line"/>
      <point x="470" y="0" type="line"/>
      <point x="130" y="0" type="line"/>
    </contour>
    <contour>
      <point x="60" y="0" type="line"/>
      <point x="60" y="680" type="line"/>
      <point x="150" y="680" type="line"/>
      <point x="150" y="0" type="line"/>
    </contour>
  </outline>
</glyph>
<glyph name="M" format="2">
  <advance width="770"/>
  <unicode hex="004D"/>
  <anchor x="385" y="740" name="top"/>
  <outline>
    <contour>
      <point x="70" y="680" type="line"/>
      <point x="160" y="680" type="line"/>
      <point x="338" y="230" type="line" smooth="yes"/>
      <point x="357" y="182"/>
      <point x="409" y="30"/>
      <point x="409" y="0" type="curve"/>
      <point x="338" y="0" type="line"/>
    </contour>
    <contour>
      <point x="610" y="680" type="line"/>
      <point x="700" y="680" type="line"/>
      <point x="432" y="0" type="line"/>
      <point x="361" y="0" type="line"/>
      <point x="361" y="30"/>
      <point x="413" y="182"/>
      <point x="432" y="230" type="curve" smooth="yes"/>
    </contour>
    <contour>
      <point x="60" y="0" type="line"/>
      <point x="60" y="680" type="line"/>
      <point x="150" y="680" type="line"/>
      <point x="150" y="0" type="line"/>
    </contour>
    <contour>
      <point x="620" y="0" type="line"/>
      <point x="620" y="680" type="line"/>
      <point x="710" y="680" type="line"/>
      <point x="710" y="0" type="line"/>
    </contour>
  </outline>
  <guideline angle="90" x="385" y="0"/>
  <guideline angle="0" x="0" y="230"/>
  <guideline angle="90" x="610" y="0"/>
  <guideline angle="111.51" x="338" y="0"/>
  <guideline angle="111.51" x="428" y="0"/>
  <guideline angle="248.49" x="700" y="680"/>
  <guideline angle="248.49" x="610" y="680"/>
</glyph>
<glyph name="N" format="2">
  <advance width="667"/>
  <unicode hex="004E"/>
  <anchor x="329" y="740" name="top"/>
  <anchor x="329" y="-40" name="bottom"/>
  <outline>
    <contour>
      <point x="60" y="0" type="line"/>
      <point x="160" y="0" type="line"/>
      <point x="160" y="443" type="line" smooth="yes"/>
      <point x="160" y="464"/>
      <point x="160" y="492"/>
      <point x="156" y="523" type="curve"/>
      <point x="150" y="523" type="line"/>
      <point x="503" y="0" type="line"/>
      <point x="607" y="0" type="line"/>
      <point x="607" y="680" type="line"/>
      <point x="507" y="680" type="line"/>
      <point x="507" y="237" type="line" smooth="yes"/>
      <point x="507" y="216"/>
      <point x="507" y="188"/>
      <point x="509" y="157" type="curve"/>
      <point x="515" y="157" type="line"/>
      <point x="164" y="680" type="line"/>
      <point x="60" y="680" type="line"/>
    </contour>
  </outline>
  <guideline angle="90" x="329" y="0"/>
</glyph>
<glyph name="O" format="2">
  <advance width="662"/>
  <unicode hex="004F"/>
  <anchor x="333" y="740" name="top"/>
  <anchor x="331" y="-40" name="bottom"/>
  <anchor x="331" y="0" name="b.ogonek"/>
  <outline>
    <contour>
      <point x="48" y="340" type="curve" smooth="yes"/>
      <point x="48" y="119"/>
      <point x="158" y="-12"/>
      <point x="331" y="-12" type="curve" smooth="yes"/>
      <point x="504" y="-12"/>
      <point x="614" y="119"/>
      <point x="614" y="340" type="curve" smooth="yes"/>
      <point x="614" y="561"/>
      <point x="504" y="692"/>
      <point x="331" y="692" type="curve" smooth="yes"/>
      <point x="158" y="692"/>
      <point x="48" y="561"/>
    </contour>
    <contour>
      <point x="149" y="340" type="curve" smooth="yes"/>
      <point x="149" y="508"/>
      <point x="215" y="602"/>
      <point x="331" y="602" type="curve" smooth="yes"/>
      <point x="447" y="602"/>
      <point x="513" y="508"/>
      <point x="513" y="340" type="curve" smooth="yes"/>
      <point x="513" y="172"/>
      <point x="447" y="78"/>
      <point x="331" y="78" type="curve" smooth="yes"/>
      <point x="215" y="78"/>
      <point x="149" y="172"/>
    </contour>
  </outline>
  <guideline angle="0" x="0" y="740"/>
  <guideline angle="90" x="0" y="0"/>
</glyph>
<glyph name="P" format="2">
  <advance width="580"/>
  <unicode hex="0050"/>
  <anchor x="279" y="740" name="top"/>
  <anchor x="279" y="-40" name="bottom"/>
  <outline>
    <contour>
      <point x="59" y="0" type="line"/>
      <point x="160" y="0" type="line"/>
      <point x="160" y="680" type="line"/>
      <point x="59" y="680" type="line"/>
    </contour>
    <contour>
      <point x="120" y="273" type="line"/>
      <point x="296" y="273" type="line" smooth="yes"/>
      <point x="432" y="273"/>
      <point x="520" y="355"/>
      <point x="520" y="483" type="curve" smooth="yes"/>
      <point x="520" y="621"/>
      <point x="453" y="680"/>
      <point x="296" y="680" type="curve" smooth="yes"/>
      <point x="120" y="680" type="line"/>
      <point x="120" y="590" type="line"/>
      <point x="296" y="590" type="line" smooth="yes"/>
      <point x="381" y="590"/>
      <point x="422" y="550"/>
      <point x="422" y="483" type="curve" smooth="yes"/>
      <point x="422" y="403"/>
      <point x="386" y="362"/>
      <point x="296" y="362" type="curve" smooth="yes"/>
      <point x="120" y="362" type="line"/>
    </contour>
  </outline>
  <guideline angle="90" name="h_1" x="279" y="0"/>
</glyph>
<glyph name="Q" format="2">
  <advance width="656"/>
  <unicode hex="0051"/>
  <outline>
    <component base="O"/>
    <contour>
      <point x="433" y="23" type="line"/>
      <point x="531" y="-75" type="line"/>
      <point x="595" y="-11" type="line"/>
      <point x="508" y="76" type="line"/>
    </contour>
    <contour>
      <point x="354" y="103" type="line"/>
      <point x="389" y="68" type="line"/>
      <point x="466" y="119" type="line"/>
      <point x="418" y="167" type="line"/>
    </contour>
  </outline>
</glyph>
<glyph name="R" format="2">
  <advance width="540"/>
  <unicode hex="0052"/>
  <anchor x="260" y="740" name="top"/>
  <anchor x="280" y="-60" name="bottom"/>
  <outline>
    <component base="P"/>
    <contour>
      <point x="242" y="300" type="line"/>
      <point x="410" y="0" type="line"/>
      <point x="520" y="0" type="line"/>
      <point x="352" y="300" type="line"/>
    </contour>
  </outline>
</glyph>
<glyph name="S" format="2">
  <advance width="581"/>
  <unicode hex="0053"/>
  <anchor x="281" y="740" name="top"/>
  <anchor x="281" y="-40" name="bottom"/>
  <anchor x="261" y="0" name="b.cedilla"/>
  <outline>
    <contour>
      <point x="48" y="197" type="line"/>
      <point x="48" y="64"/>
      <point x="135" y="-11"/>
      <point x="283" y="-11" type="curve" smooth="yes"/>
      <point x="426" y="-11"/>
      <point x="533" y="47"/>
      <point x="533" y="191" type="curve" smooth="yes"/>
      <point x="533" y="287"/>
      <point x="477" y="334"/>
      <point x="364" y="377" type="curve" smooth="yes"/>
      <point x="273" y="412" type="line" smooth="yes"/>
      <point x="199" y="440"/>
      <point x="169" y="467"/>
      <point x="169" y="514" type="curve" smooth="yes"/>
      <point x="169" y="570"/>
      <point x="200" y="601"/>
      <point x="289" y="601" type="curve" smooth="yes"/>
      <point x="367" y="601"/>
      <point x="429" y="559"/>
      <point x="429" y="499" type="curve"/>
      <point x="531" y="499" type="line"/>
      <point x="531" y="608"/>
      <point x="442" y="691"/>
      <point x="298" y="691" type="curve" smooth="yes"/>
      <point x="139" y="691"/>
      <point x="66" y="620"/>
      <point x="66" y="519" type="curve" smooth="yes"/>
      <point x="66" y="424"/>
      <point x="114" y="380"/>
      <point x="237" y="333" type="curve" smooth="yes"/>
      <point x="329" y="298" type="line" smooth="yes"/>
      <point x="405" y="269"/>
      <point x="430" y="240"/>
      <point x="430" y="191" type="curve" smooth="yes"/>
      <point x="430" y="123"/>
      <point x="384" y="79"/>
      <point x="290" y="79" type="curve" smooth="yes"/>
      <point x="217" y="79"/>
      <point x="150" y="112"/>
      <point x="150" y="197" type="curve"/>
    </contour>
  </outline>
  <guideline angle="90" name="h_1" x="281" y="0"/>
</glyph>
<glyph name="T" format="2">
  <advance width="480"/>
  <unicode hex="0054"/>
  <anchor x="240" y="740" name="top"/>
  <anchor x="240" y="-40" name="bottom"/>
  <outline>
    <contour>
      <point x="10" y="590" type="line"/>
      <point x="470" y="590" type="line"/>
      <point x="470" y="680" type="line"/>
      <point x="10" y="680" type="line"/>
    </contour>
    <contour>
      <point x="190" y="0" type="line"/>
      <point x="290" y="0" type="line"/>
      <point x="290" y="680" type="line"/>
      <point x="190" y="680" type="line"/>
    </contour>
  </outline>
  <guideline angle="90" name="h_1" x="240" y="0"/>
  <guideline angle="0" x="0" y="590"/>
</glyph>
<glyph name="U" format="2">
  <advance width="560"/>
  <unicode hex="0055"/>
  <anchor x="280" y="740" name="top"/>
  <outline>
    <contour>
      <point x="50" y="230" type="curve" smooth="yes"/>
      <point x="50" y="680" type="line"/>
      <point x="140" y="680" type="line"/>
      <point x="140" y="270" type="line" smooth="yes"/>
      <point x="140" y="111"/>
      <point x="190" y="80"/>
      <point x="280" y="80" type="curve" smooth="yes"/>
      <point x="370" y="80"/>
      <point x="420" y="111"/>
      <point x="420" y="270" type="curve" smooth="yes"/>
      <point x="420" y="680" type="line"/>
      <point x="510" y="680" type="line"/>
      <point x="510" y="230" type="line" smooth="yes"/>
      <point x="510" y="86"/>
      <point x="450" y="-10"/>
      <point x="280" y="-10" type="curve" smooth="yes"/>
      <point x="110" y="-10"/>
      <point x="50" y="86"/>
    </contour>
  </outline>
  <guideline angle="90" x="280" y="0"/>
</glyph>
<glyph name="V" format="2">
  <advance width="544"/>
  <unicode hex="0056"/>
  <anchor x="265" y="-40" name="bottom"/>
  <anchor x="265" y="740" name="top"/>
  <outline>
    <contour>
      <point x="10" y="680" type="line"/>
      <point x="218" y="0" type="line"/>
      <point x="297" y="0" type="line"/>
      <point x="297" y="30"/>
      <point x="262" y="188"/>
      <point x="245" y="243" type="curve" smooth="yes"/>
      <point x="111" y="680" type="line"/>
    </contour>
    <contour>
      <point x="248" y="0" type="curve"/>
      <point x="326" y="0" type="line"/>
      <point x="534" y="680" type="line"/>
      <point x="434" y="680" type="line"/>
      <point x="299" y="243" type="line" smooth="yes"/>
      <point x="283" y="188"/>
      <point x="248" y="30"/>
    </contour>
  </outline>
  <guideline angle="90" name="h_1" x="265" y="0"/>
  <guideline angle="0" x="0" y="230"/>
</glyph>
<glyph name="W" format="2">
  <advance width="968"/>
  <unicode hex="0057"/>
  <anchor x="485" y="740" name="top"/>
  <anchor x="485" y="-40" name="bottom"/>
  <outline>
    <contour>
      <point x="10" y="680" type="line"/>
      <point x="218" y="0" type="line"/>
      <point x="297" y="0" type="line"/>
      <point x="297" y="30"/>
      <point x="262" y="188"/>
      <point x="245" y="243" type="curve" smooth="yes"/>
      <point x="111" y="680" type="line"/>
    </contour>
    <contour>
      <point x="248" y="0" type="curve"/>
      <point x="326" y="0" type="line"/>
      <point x="534" y="680" type="line"/>
      <point x="434" y="680" type="line"/>
      <point x="299" y="243" type="line" smooth="yes"/>
      <point x="283" y="188"/>
      <point x="248" y="30"/>
    </contour>
    <contour>
      <point x="434" y="680" type="line"/>
      <point x="642" y="0" type="line"/>
      <point x="721" y="0" type="line"/>
      <point x="721" y="30"/>
      <point x="686" y="188"/>
      <point x="669" y="243" type="curve" smooth="yes"/>
      <point x="535" y="680" type="line"/>
    </contour>
    <contour>
      <point x="672" y="0" type="curve"/>
      <point x="750" y="0" type="line"/>
      <point x="958" y="680" type="line"/>
      <point x="858" y="680" type="line"/>
      <point x="723" y="243" type="line" smooth="yes"/>
      <point x="707" y="188"/>
      <point x="672" y="30"/>
    </contour>
  </outline>
  <guideline angle="90" name="h_1" x="485" y="0"/>
</glyph>
<glyph name="X" format="2">
  <advance width="544"/>
  <unicode hex="0058"/>
  <outline>
    <contour>
      <point x="135" y="680" type="line"/>
      <point x="25" y="680" type="line"/>
      <point x="219" y="342" type="line"/>
      <point x="268" y="276" type="line"/>
      <point x="424" y="0" type="line"/>
      <point x="534" y="0" type="line"/>
      <point x="322" y="371" type="line"/>
      <point x="274" y="436" type="line"/>
    </contour>
    <contour>
      <point x="228" y="371" type="line"/>
      <point x="10" y="0" type="line"/>
      <point x="121" y="0" type="line"/>
      <point x="283" y="293" type="line"/>
    </contour>
    <contour>
      <point x="312" y="343" type="line"/>
      <point x="516" y="680" type="line"/>
      <point x="409" y="680" type="line"/>
      <point x="257" y="421" type="line"/>
    </contour>
  </outline>
  <guideline angle="120.403" x="534" y="0"/>
  <guideline angle="59.6" x="409" y="680"/>
</glyph>
<glyph name="Y" format="2">
  <advance width="594"/>
  <unicode hex="0059"/>
  <outline>
    <contour>
      <point x="40" y="680" type="line"/>
      <point x="147" y="680" type="line"/>
      <point x="296" y="388" type="line"/>
      <point x="298" y="388" type="line"/>
      <point x="447" y="680" type="line"/>
      <point x="554" y="680" type="line"/>
      <point x="342" y="280" type="line"/>
      <point x="342" y="0" type="line"/>
      <point x="252" y="0" type="line"/>
      <point x="252" y="280" type="line"/>
    </contour>
  </outline>
  <guideline angle="90" x="297" y="0"/>
  <guideline angle="0" x="0" y="680"/>
</glyph>
<glyph name="Z" format="2">
  <advance width="523"/>
  <unicode hex="005A"/>
  <anchor x="260" y="740" name="top"/>
  <anchor x="260" y="-40" name="bottom"/>
  <outline>
    <contour>
      <point x="50" y="0" type="line"/>
      <point x="476" y="0" type="line"/>
      <point x="476" y="90" type="line"/>
      <point x="144" y="90" type="line"/>
      <point x="149" y="70" type="line"/>
      <point x="475" y="600" type="line"/>
      <point x="475" y="680" type="line"/>
      <point x="52" y="680" type="line"/>
      <point x="52" y="590" type="line"/>
      <point x="381" y="590" type="line"/>
      <point x="376" y="610" type="line"/>
      <point x="50" y="80" type="line"/>
    </contour>
  </outline>
  <guideline angle="58.4046" x="50" y="80"/>
  <guideline angle="90" name="h_1" x="260" y="0"/>
</glyph>
<glyph name="bracketright" format="2">
  <advance width="360"/>
  <unicode hex="005D"/>
  <outline>
    <contour>
      <point x="70" y="-21" type="line"/>
      <point x="210" y="-21" type="line"/>
      <point x="210" y="720" type="line"/>
      <point x="70" y="720" type="line"/>
      <point x="70" y="780" type="line"/>
      <point x="290" y="780" type="line"/>
      <point x="290" y="-21" type="line" smooth="yes"/>
      <point x="290" y="-41"/>
      <point x="290" y="-61"/>
      <point x="290" y="-81" type="curve"/>
      <point x="70" y="-81" type="line"/>
    </contour>
  </outline>
</glyph>
<glyph name="grave" format="2">
  <advance width="267"/>
  <unicode hex="0060"/>
  <outline>
    <contour>
      <point x="40" y="700" type="line"/>
      <point x="147" y="540" type="line"/>
      <point x="227" y="540" type="line"/>
      <point x="152" y="700" type="line"/>
    </contour>
  </outline>
  <guideline angle="0" x="0" y="700"/>
</glyph>
<glyph name="a" format="2">
  <advance width="511"/>
  <unicode hex="0061"/>
  <anchor x="254" y="530" name="top"/>
  <anchor x="254" y="-40" name="bottom"/>
  <anchor x="254" y="530" name="t.ring"/>
  <outline>
    <contour>
      <point x="61" y="326" type="curve"/>
      <point x="151" y="326" type="line"/>
      <point x="157" y="373"/>
      <point x="199" y="400"/>
      <point x="254" y="400" type="curve" smooth="yes"/>
      <point x="310" y="400"/>
      <point x="353" y="368"/>
      <point x="353" y="327" type="curve" smooth="yes"/>
      <point x="353" y="60" type="line"/>
      <point x="372" y="0" type="line"/>
      <point x="445" y="0" type="line"/>
      <point x="445" y="315" type="line" smooth="yes"/>
      <point x="445" y="416"/>
      <point x="377" y="472"/>
      <point x="256" y="472" type="curve" smooth="yes"/>
      <point x="152" y="472"/>
      <point x="69" y="412"/>
    </contour>
    <contour>
      <point x="40" y="123" type="curve" smooth="yes"/>
      <point x="40" y="43"/>
      <point x="100" y="-12"/>
      <point x="187" y="-12" type="curve" smooth="yes"/>
      <point x="260" y="-12"/>
      <point x="325" y="17"/>
      <point x="361" y="61" type="curve"/>
      <point x="361" y="127" type="line"/>
      <point x="330" y="88"/>
      <point x="274" y="64"/>
      <point x="213" y="64" type="curve" smooth="yes"/>
      <point x="165" y="64"/>
      <point x="132" y="87"/>
      <point x="132" y="123" type="curve" smooth="yes"/>
      <point x="132" y="172"/>
      <point x="193" y="209"/>
      <point x="285" y="223" type="curve" smooth="yes"/>
      <point x="368" y="236" type="line"/>
      <point x="368" y="289" type="line"/>
      <point x="281" y="281" type="line" smooth="yes"/>
      <point x="132" y="267"/>
      <point x="40" y="210"/>
    </contour>
  </outline>
  <guideline angle="90" name="h_1" x="254" y="0"/>
</glyph>
<glyph name="b" format="2">
  <advance width="537"/>
  <unicode hex="0062"/>
  <anchor x="277" y="740" name="top"/>
  <anchor x="277" y="-40" name="bottom"/>
  <outline>
    <contour>
      <point x="66" y="0" type="line"/>
      <point x="140" y="0" type="line"/>
      <point x="155" y="58" type="line"/>
      <point x="155" y="400" type="line"/>
      <point x="157" y="421"/>
      <point x="158" y="440"/>
      <point x="158" y="460" type="curve" smooth="yes"/>
      <point x="158" y="700" type="line"/>
      <point x="66" y="700" type="line"/>
    </contour>
    <contour>
      <point x="143" y="58" type="line"/>
      <point x="157" y="58" type="line"/>
      <point x="182" y="16"/>
      <point x="233" y="-12"/>
      <point x="287" y="-12" type="curve" smooth="yes"/>
      <point x="415" y="-12"/>
      <point x="497" y="85"/>
      <point x="497" y="230" type="curve" smooth="yes"/>
      <point x="497" y="380"/>
      <point x="425" y="472"/>
      <point x="304" y="472" type="curve" smooth="yes"/>
      <point x="242" y="472"/>
      <point x="185" y="444"/>
      <point x="158" y="400" type="curve"/>
      <point x="143" y="400" type="line"/>
    </contour>
    <contour>
      <point x="155" y="219" type="curve" smooth="yes"/>
      <point x="155" y="239" type="line" smooth="yes"/>
      <point x="155" y="334"/>
      <point x="204" y="396"/>
      <point x="279" y="396" type="curve" smooth="yes"/>
      <point x="359" y="396"/>
      <point x="405" y="335"/>
      <point x="405" y="231" type="curve" smooth="yes"/>
      <point x="405" y="130"/>
      <point x="358" y="64"/>
      <point x="283" y="64" type="curve" smooth="yes"/>
      <point x="210" y="64"/>
      <point x="155" y="130"/>
    </contour>
  </outline>
  <guideline angle="90" name="h_1" x="268.5" y="0"/>
</glyph>
<glyph name="c" format="2">
  <advance width="486"/>
  <unicode hex="0063"/>
  <anchor x="260" y="520" name="top"/>
  <outline>
    <contour>
      <point x="245" y="-11" type="line"/>
      <point x="122" y="-11"/>
      <point x="40" y="86"/>
      <point x="40" y="230" type="curve" smooth="yes"/>
      <point x="40" y="363"/>
      <point x="131" y="471"/>
      <point x="245" y="471" type="curve"/>
      <point x="245" y="406" type="line"/>
      <point x="174" y="406"/>
      <point x="120" y="357"/>
      <point x="120" y="230" type="curve" smooth="yes"/>
      <point x="120" y="109"/>
      <point x="175" y="54"/>
      <point x="245" y="54" type="curve"/>
    </contour>
    <contour>
      <point x="245" y="54" type="line"/>
      <point x="324" y="54"/>
      <point x="354" y="116"/>
      <point x="361" y="149" type="curve"/>
      <point x="446" y="149" type="line"/>
      <point x="426" y="78"/>
      <point x="373" y="-11"/>
      <point x="245" y="-11" type="curve"/>
    </contour>
    <contour>
      <point x="245" y="471" type="line"/>
      <point x="364" y="471"/>
      <point x="423" y="406"/>
      <point x="445" y="321" type="curve"/>
      <point x="359" y="321" type="line"/>
      <point x="356" y="337"/>
      <point x="326" y="406"/>
      <point x="245" y="406" type="curve"/>
    </contour>
  </outline>
</glyph>
<glyph name="d" format="2">
  <advance width="491"/>
  <unicode hex="0064"/>
  <outline>
    <contour>
      <point x="115" y="230" type="curve" smooth="yes"/>
      <point x="115" y="159"/>
      <point x="141" y="55"/>
      <point x="246" y="55" type="curve" smooth="yes"/>
      <point x="331" y="55"/>
      <point x="367" y="143"/>
      <point x="367" y="210" type="curve" smooth="yes"/>
      <point x="367" y="245" type="line" smooth="yes"/>
      <point x="367" y="347"/>
      <point x="311" y="406"/>
      <point x="246" y="406" type="curve" smooth="yes"/>
      <point x="156" y="406"/>
      <point x="115" y="337"/>
    </contour>
    <contour>
      <point x="35" y="230" type="curve" smooth="yes"/>
      <point x="35" y="355"/>
      <point x="96" y="471"/>
      <point x="226" y="471" type="curve" smooth="yes"/>
      <point x="288" y="471"/>
      <point x="352" y="435"/>
      <point x="371" y="377" type="curve"/>
      <point x="364" y="376" type="line"/>
      <point x="364" y="700" type="line"/>
      <point x="444" y="700" type="line"/>
      <point x="444" y="0" type="line"/>
      <point x="377" y="0" type="line"/>
      <point x="367" y="101" type="line"/>
      <point x="372" y="101" type="line"/>
      <point x="346" y="38"/>
      <point x="290" y="-11"/>
      <point x="227" y="-11" type="curve" smooth="yes"/>
      <point x="56" y="-11"/>
      <point x="35" y="144"/>
    </contour>
  </outline>
</glyph>
<glyph name="e" format="2">
  <advance width="498"/>
  <unicode hex="0065"/>
  <anchor x="250" y="520" name="top"/>
  <outline>
    <contour>
      <point x="40" y="240" type="curve" smooth="yes"/>
      <point x="40" y="360"/>
      <point x="109" y="471"/>
      <point x="249" y="471" type="curve" smooth="yes"/>
      <point x="389" y="471"/>
      <point x="458" y="360"/>
      <point x="458" y="240" type="curve" smooth="yes"/>
      <point x="458" y="210" type="line"/>
      <point x="92" y="210" type="line"/>
      <point x="92" y="278" type="line"/>
      <point x="369" y="278" type="line"/>
      <point x="368" y="313"/>
      <point x="354" y="403"/>
      <point x="249" y="403" type="curve" smooth="yes"/>
      <point x="149" y="403"/>
      <point x="122" y="317"/>
      <point x="122" y="241" type="curve" smooth="yes"/>
      <point x="122" y="163"/>
      <point x="146" y="57"/>
      <point x="249" y="57" type="curve" smooth="yes"/>
      <point x="319" y="57"/>
      <point x="355" y="98"/>
      <point x="365" y="142" type="curve"/>
      <point x="448" y="142" type="line"/>
      <point x="433" y="73"/>
      <point x="399" y="-11"/>
      <point x="249" y="-11" type="curve" smooth="yes"/>
      <point x="99" y="-11"/>
      <point x="40" y="120"/>
    </contour>
  </outline>
</glyph>
<glyph name="f" format="2">
  <advance width="348"/>
  <unicode hex="0066"/>
  <anchor x="240" y="-40" name="bottom"/>
  <anchor x="193" y="740" name="top"/>
  <outline>
    <contour>
      <point x="110" y="0" type="line"/>
      <point x="202" y="0" type="line"/>
      <point x="202" y="500" type="line" smooth="yes"/>
      <point x="202" y="599"/>
      <point x="215" y="628"/>
      <point x="284" y="628" type="curve" smooth="yes"/>
      <point x="318" y="628" type="line"/>
      <point x="318" y="700" type="line"/>
      <point x="284" y="700" type="line"/>
      <point x="133" y="693"/>
      <point x="110" y="642"/>
      <point x="110" y="500" type="curve" smooth="yes"/>
    </contour>
    <contour>
      <point x="35" y="393" type="line"/>
      <point x="286" y="393" type="line"/>
      <point x="286" y="460" type="line"/>
      <point x="35" y="460" type="line"/>
    </contour>
  </outline>
  <guideline angle="90" name="h_1" x="193" y="0"/>
</glyph>
<glyph name="g" format="2">
  <advance width="492"/>
  <unicode hex="0067"/>
  <anchor x="241" y="520" name="top"/>
  <outline>
    <contour>
      <point x="52" y="-54" type="curve"/>
      <point x="135" y="-54" type="line"/>
      <point x="153" y="-113"/>
      <point x="206" y="-134"/>
      <point x="244" y="-134" type="curve" smooth="yes"/>
      <point x="316" y="-134"/>
      <point x="367" y="-91"/>
      <point x="367" y="27" type="curve" smooth="yes"/>
      <point x="367" y="50" type="line"/>
      <point x="447" y="50" type="line"/>
      <point x="447" y="27" type="line" smooth="yes"/>
      <point x="447" y="-146"/>
      <point x="362" y="-200"/>
      <point x="244" y="-200" type="curve" smooth="yes"/>
      <point x="114" y="-200"/>
      <point x="62" y="-106"/>
    </contour>
    <contour>
      <point x="115" y="230" type="curve" smooth="yes"/>
      <point x="115" y="159"/>
      <point x="141" y="66"/>
      <point x="246" y="66" type="curve" smooth="yes"/>
      <point x="331" y="66"/>
      <point x="367" y="143"/>
      <point x="367" y="210" type="curve" smooth="yes"/>
      <point x="367" y="245" type="line" smooth="yes"/>
      <point x="367" y="347"/>
      <point x="311" y="406"/>
      <point x="246" y="406" type="curve" smooth="yes"/>
      <point x="156" y="406"/>
      <point x="115" y="337"/>
    </contour>
    <contour>
      <point x="35" y="230" type="curve" smooth="yes"/>
      <point x="35" y="355"/>
      <point x="96" y="471"/>
      <point x="226" y="471" type="curve" smooth="yes"/>
      <point x="288" y="471"/>
      <point x="352" y="435"/>
      <point x="371" y="377" type="curve"/>
      <point x="364" y="376" type="line"/>
      <point x="387" y="460" type="line"/>
      <point x="447" y="460" type="line"/>
      <point x="447" y="50" type="line"/>
      <point x="367" y="50" type="line"/>
      <point x="367" y="101" type="line"/>
      <point x="372" y="101" type="line"/>
      <point x="346" y="38"/>
      <point x="290" y="0"/>
      <point x="227" y="0" type="curve" smooth="yes"/>
      <point x="56" y="0"/>
      <point x="35" y="144"/>
    </contour>
  </outline>
</glyph>
<glyph name="h" format="2">
  <advance width="534"/>
  <unicode hex="0068"/>
  <anchor x="277" y="-40" name="bottom"/>
  <anchor x="277" y="740" name="top"/>
  <anchor x="400" y="0" name="b.cedilla"/>
  <outline>
    <contour>
      <point x="66" y="0" type="line"/>
      <point x="158" y="0" type="line"/>
      <point x="158" y="700" type="line"/>
      <point x="66" y="700" type="line"/>
    </contour>
    <contour>
      <point x="110" y="240" type="line"/>
      <point x="158" y="240" type="line"/>
      <point x="158" y="325"/>
      <point x="216" y="397"/>
      <point x="284" y="397" type="curve" smooth="yes"/>
      <point x="342" y="397"/>
      <point x="376" y="358"/>
      <point x="376" y="290" type="curve" smooth="yes"/>
      <point x="376" y="0" type="line"/>
      <point x="468" y="0" type="line"/>
      <point x="468" y="295" type="line" smooth="yes"/>
      <point x="468" y="409"/>
      <point x="409" y="472"/>
      <point x="304" y="472" type="curve" smooth="yes"/>
      <point x="232" y="472"/>
      <point x="170" y="435"/>
      <point x="125" y="361" type="curve"/>
      <point x="182" y="361" type="line"/>
      <point x="182" y="410" type="line"/>
      <point x="110" y="410" type="line"/>
    </contour>
  </outline>
  <guideline angle="90" name="h_1" x="277" y="0"/>
</glyph>
<glyph name="j" format="2">
  <advance width="230"/>
  <unicode hex="006A"/>
  <outline>
    <contour>
      <point x="80" y="560" type="line"/>
      <point x="80" y="640" type="line"/>
      <point x="160" y="640" type="line"/>
      <point x="160" y="560" type="line"/>
    </contour>
    <contour>
      <point x="-68" y="-100" type="curve"/>
      <point x="-3" y="-100" type="line"/>
      <point x="0" y="-132"/>
      <point x="21" y="-140"/>
      <point x="36" y="-140" type="curve" smooth="yes"/>
      <point x="60" y="-140"/>
      <point x="80" y="-136"/>
      <point x="80" y="-80" type="curve" smooth="yes"/>
      <point x="80" y="460" type="line"/>
      <point x="160" y="460" type="line"/>
      <point x="160" y="-60" type="line" smooth="yes"/>
      <point x="160" y="-181"/>
      <point x="104" y="-200"/>
      <point x="40" y="-200" type="curve" smooth="yes"/>
      <point x="-16" y="-200"/>
      <point x="-64" y="-162"/>
    </contour>
  </outline>
</glyph>
<glyph name="k" format="2">
  <advance width="463"/>
  <unicode hex="006B"/>
  <anchor x="240" y="-40" name="bottom"/>
  <anchor x="255" y="740" name="top"/>
  <outline>
    <contour>
      <point x="145" y="119" type="line"/>
      <point x="422" y="460" type="line"/>
      <point x="307" y="460" type="line"/>
      <point x="145" y="255" type="line"/>
    </contour>
    <contour>
      <point x="179" y="227" type="line"/>
      <point x="330" y="0" type="line"/>
      <point x="444" y="0" type="line"/>
      <point x="243" y="306" type="line"/>
    </contour>
    <contour>
      <point x="66" y="0" type="line"/>
      <point x="157" y="0" type="line"/>
      <point x="157" y="700" type="line"/>
      <point x="66" y="700" type="line"/>
    </contour>
  </outline>
  <guideline angle="52.0013" x="226" y="300"/>
  <guideline angle="302.973" x="245" y="279"/>
  <guideline angle="123.291" x="326" y="0"/>
  <guideline angle="90" name="h_1" x="255" y="0"/>
</glyph>
<glyph name="m" format="2">
  <advance width="816"/>
  <unicode hex="006D"/>
  <anchor x="408" y="-40" name="bottom"/>
  <anchor x="408" y="530" name="top"/>
  <outline>
    <contour>
      <point x="384" y="243" type="line"/>
      <point x="454" y="243" type="line"/>
      <point x="454" y="332"/>
      <point x="503" y="396"/>
      <point x="572" y="396" type="curve" smooth="yes"/>
      <point x="628" y="396"/>
      <point x="658" y="360"/>
      <point x="658" y="293" type="curve" smooth="yes"/>
      <point x="658" y="0" type="line"/>
      <point x="750" y="0" type="line"/>
      <point x="750" y="295" type="line" smooth="yes"/>
      <point x="750" y="408"/>
      <point x="690" y="472"/>
      <point x="583" y="472" type="curve" smooth="yes"/>
      <point x="493" y="472"/>
      <point x="429" y="425"/>
      <point x="399" y="338" type="curve"/>
      <point x="462" y="338" type="line"/>
      <point x="462" y="406" type="line"/>
      <point x="384" y="406" type="line"/>
    </contour>
    <contour>
      <point x="109" y="243" type="line"/>
      <point x="158" y="243" type="line"/>
      <point x="158" y="324"/>
      <point x="214" y="396"/>
      <point x="277" y="396" type="curve" smooth="yes"/>
      <point x="335" y="396"/>
      <point x="362" y="364"/>
      <point x="362" y="293" type="curve" smooth="yes"/>
      <point x="362" y="0" type="line"/>
      <point x="454" y="0" type="line"/>
      <point x="454" y="295" type="line" smooth="yes"/>
      <point x="454" y="407"/>
      <point x="395" y="472"/>
      <point x="292" y="472" type="curve" smooth="yes"/>
      <point x="217" y="472"/>
      <point x="166" y="436"/>
      <point x="130" y="360" type="curve"/>
      <point x="152" y="360" type="line"/>
      <point x="152" y="373" type="line"/>
      <point x="109" y="373" type="line"/>
    </contour>
    <contour>
      <point x="66" y="0" type="line"/>
      <point x="158" y="0" type="line"/>
      <point x="158" y="406" type="line"/>
      <point x="154" y="406" type="line"/>
      <point x="138" y="460" type="line"/>
      <point x="66" y="460" type="line"/>
    </contour>
  </outline>
  <guideline angle="90" name="h_1" x="408" y="0"/>
</glyph>
<glyph name="n" format="2">
  <advance width="534"/>
  <unicode hex="006E"/>
  <anchor x="273" y="540" name="top"/>
  <anchor x="273" y="-50" name="bottom"/>
  <outline>
    <contour>
      <point x="66" y="0" type="line"/>
      <point x="158" y="0" type="line"/>
      <point x="158" y="406" type="line"/>
      <point x="154" y="406" type="line"/>
      <point x="138" y="460" type="line"/>
      <point x="66" y="460" type="line"/>
    </contour>
    <contour>
      <point x="110" y="240" type="line"/>
      <point x="158" y="240" type="line"/>
      <point x="158" y="325"/>
      <point x="216" y="397"/>
      <point x="284" y="397" type="curve" smooth="yes"/>
      <point x="342" y="397"/>
      <point x="376" y="358"/>
      <point x="376" y="290" type="curve" smooth="yes"/>
      <point x="376" y="0" type="line"/>
      <point x="468" y="0" type="line"/>
      <point x="468" y="295" type="line" smooth="yes"/>
      <point x="468" y="409"/>
      <point x="409" y="472"/>
      <point x="304" y="472" type="curve" smooth="yes"/>
      <point x="232" y="472"/>
      <point x="170" y="435"/>
      <point x="125" y="361" type="curve"/>
      <point x="182" y="361" type="line"/>
      <point x="182" y="382" type="line"/>
      <point x="110" y="382" type="line"/>
    </contour>
  </outline>
  <guideline angle="90" name="h_1" x="273" y="0"/>
</glyph>
<glyph name="o" format="2">
  <advance width="480"/>
  <unicode hex="006F"/>
  <anchor x="240" y="520" name="top"/>
  <outline>
    <contour>
      <point x="240" y="-10" type="line"/>
      <point x="117" y="-10"/>
      <point x="35" y="86"/>
      <point x="35" y="230" type="curve" smooth="yes"/>
      <point x="35" y="363"/>
      <point x="126" y="470"/>
      <point x="240" y="470" type="curve"/>
      <point x="240" y="405" type="line"/>
      <point x="169" y="405"/>
      <point x="115" y="357"/>
      <point x="115" y="230" type="curve" smooth="yes"/>
      <point x="115" y="109"/>
      <point x="170" y="55"/>
      <point x="240" y="55" type="curve"/>
    </contour>
    <contour>
      <point x="240" y="470" type="line"/>
      <point x="363" y="470"/>
      <point x="445" y="374"/>
      <point x="445" y="230" type="curve" smooth="yes"/>
      <point x="445" y="97"/>
      <point x="354" y="-10"/>
      <point x="240" y="-10" type="curve"/>
      <point x="240" y="55" type="line"/>
      <point x="311" y="55"/>
      <point x="365" y="103"/>
      <point x="365" y="230" type="curve" smooth="yes"/>
      <point x="365" y="351"/>
      <point x="310" y="405"/>
      <point x="240" y="405" type="curve"/>
    </contour>
  </outline>
</glyph>
<glyph name="p" format="2">
  <advance width="536"/>
  <unicode hex="0070"/>
  <outline>
    <contour>
      <point x="133" y="119" type="curve"/>
      <point x="133" y="350" type="line"/>
      <point x="161" y="423"/>
      <point x="226" y="471"/>
      <point x="300" y="471" type="curve" smooth="yes"/>
      <point x="433" y="471"/>
      <point x="496" y="353"/>
      <point x="496" y="240" type="curve" smooth="yes"/>
      <point x="496" y="87"/>
      <point x="415" y="-11"/>
      <point x="290" y="-11" type="curve" smooth="yes"/>
      <point x="236" y="-11"/>
      <point x="160" y="36"/>
    </contour>
    <contour>
      <point x="150" y="256" type="curve" smooth="yes"/>
      <point x="150" y="173"/>
      <point x="154" y="54"/>
      <point x="276" y="54" type="curve" smooth="yes"/>
      <point x="383" y="54"/>
      <point x="416" y="143"/>
      <point x="416" y="240" type="curve" smooth="yes"/>
      <point x="416" y="347"/>
      <point x="363" y="405"/>
      <point x="281" y="405" type="curve" smooth="yes"/>
      <point x="220" y="405"/>
      <point x="150" y="371"/>
    </contour>
    <contour>
      <point x="70" y="-200" type="line"/>
      <point x="70" y="459" type="line"/>
      <point x="130" y="459" type="line"/>
      <point x="150" y="349" type="line"/>
      <point x="150" y="-200" type="line"/>
    </contour>
  </outline>
</glyph>
<glyph name="q" format="2">
  <advance width="491"/>
  <unicode hex="0071"/>
  <outline>
    <contour>
      <point x="115" y="230" type="curve" smooth="yes"/>
      <point x="115" y="145"/>
      <point x="151" y="55"/>
      <point x="235" y="55" type="curve" smooth="yes"/>
      <point x="327" y="55"/>
      <point x="366" y="133"/>
      <point x="366" y="220" type="curve" smooth="yes"/>
      <point x="366" y="253" type="line" smooth="yes"/>
      <point x="366" y="346"/>
      <point x="311" y="405"/>
      <point x="245" y="405" type="curve" smooth="yes"/>
      <point x="155" y="405"/>
      <point x="115" y="337"/>
    </contour>
    <contour>
      <point x="35" y="230" type="curve" smooth="yes"/>
      <point x="35" y="349"/>
      <point x="95" y="471"/>
      <point x="219" y="471" type="curve" smooth="yes"/>
      <point x="304" y="471"/>
      <point x="348" y="415"/>
      <point x="370" y="360" type="curve"/>
      <point x="363" y="358" type="line"/>
      <point x="386" y="459" type="line"/>
      <point x="446" y="459" type="line"/>
      <point x="446" y="-200" type="line"/>
      <point x="366" y="-200" type="line"/>
      <point x="366" y="91" type="line"/>
      <point x="371" y="91" type="line"/>
      <point x="345" y="28"/>
      <point x="290" y="-11"/>
      <point x="226" y="-11" type="curve" smooth="yes"/>
      <point x="93" y="-11"/>
      <point x="35" y="100"/>
    </contour>
  </outline>
</glyph>
<glyph name="r" format="2">
  <advance width="370"/>
  <unicode hex="0072"/>
  <outline>
    <contour>
      <point x="45" y="0" type="line"/>
      <point x="125" y="0" type="line"/>
      <point x="125" y="233" type="line"/>
      <point x="134" y="293"/>
      <point x="172" y="390"/>
      <point x="246" y="390" type="curve" smooth="yes"/>
      <point x="278" y="390"/>
      <point x="312" y="379"/>
      <point x="335" y="359" type="curve"/>
      <point x="335" y="460" type="line"/>
      <point x="317" y="466"/>
      <point x="295" y="470"/>
      <point x="272" y="470" type="curve" smooth="yes"/>
      <point x="208" y="470"/>
      <point x="140" y="414"/>
      <point x="121" y="360" type="curve"/>
      <point x="125" y="358" type="line"/>
      <point x="115" y="460" type="line"/>
      <point x="45" y="460" type="line"/>
    </contour>
  </outline>
</glyph>
<glyph name="s" format="2">
  <advance width="452"/>
  <unicode hex="0073"/>
  <anchor x="216" y="530" name="top"/>
  <anchor x="216" y="-40" name="bottom"/>
  <anchor x="218" y="0" name="b.cedilla"/>
  <outline>
    <contour>
      <point x="36" y="137" type="line"/>
      <point x="36" y="51"/>
      <point x="131" y="-12"/>
      <point x="237" y="-12" type="curve" smooth="yes"/>
      <point x="319" y="-12"/>
      <point x="418" y="13"/>
      <point x="418" y="131" type="curve" smooth="yes"/>
      <point x="418" y="291"/>
      <point x="143" y="263"/>
      <point x="143" y="337" type="curve" smooth="yes"/>
      <point x="143" y="379"/>
      <point x="175" y="398"/>
      <point x="217" y="398" type="curve" smooth="yes"/>
      <point x="262" y="398"/>
      <point x="298" y="373"/>
      <point x="309" y="334" type="curve"/>
      <point x="399" y="334" type="line"/>
      <point x="399" y="416"/>
      <point x="310" y="472"/>
      <point x="216" y="472" type="curve" smooth="yes"/>
      <point x="106" y="472"/>
      <point x="54" y="408"/>
      <point x="54" y="338" type="curve" smooth="yes"/>
      <point x="54" y="182"/>
      <point x="327" y="232"/>
      <point x="327" y="131" type="curve" smooth="yes"/>
      <point x="327" y="74"/>
      <point x="261" y="62"/>
      <point x="237" y="62" type="curve" smooth="yes"/>
      <point x="173" y="62"/>
      <point x="124" y="100"/>
      <point x="124" y="137" type="curve"/>
    </contour>
  </outline>
  <guideline angle="90" name="h_1" x="216" y="0"/>
</glyph>
<glyph name="t" format="2">
  <advance width="302"/>
  <unicode hex="0074"/>
  <anchor x="210" y="-40" name="bottom"/>
  <anchor x="155" y="660" name="top"/>
  <anchor x="277" y="700" name="t.quoteright"/>
  <outline>
    <contour>
      <point x="30" y="380" type="line"/>
      <point x="281" y="380" type="line"/>
      <point x="281" y="460" type="line"/>
      <point x="112" y="460" type="line"/>
      <point x="30" y="440" type="line"/>
    </contour>
    <contour>
      <point x="105" y="150" type="line" smooth="yes"/>
      <point x="105" y="46"/>
      <point x="157" y="-9"/>
      <point x="257" y="-9" type="curve" smooth="yes"/>
      <point x="289" y="-9" type="line"/>
      <point x="289" y="71" type="line"/>
      <point x="278" y="71" type="line" smooth="yes"/>
      <point x="222" y="71"/>
      <point x="197" y="98"/>
      <point x="197" y="158" type="curve" smooth="yes"/>
      <point x="197" y="610" type="line"/>
      <point x="125" y="610" type="line"/>
      <point x="111" y="453" type="line"/>
      <point x="105" y="453" type="line"/>
    </contour>
  </outline>
  <guideline angle="90" name="h_1" x="153" y="0"/>
</glyph>
<glyph name="u" format="2">
  <advance width="508"/>
  <unicode hex="0075"/>
  <anchor x="244" y="540" name="top"/>
  <outline>
    <contour>
      <point x="448" y="460" type="line"/>
      <point x="448" y="0" type="line"/>
      <point x="389" y="0" type="line"/>
      <point x="369" y="100" type="line"/>
      <point x="369" y="460" type="line"/>
    </contour>
    <contour>
      <point x="215" y="-11" type="curve" smooth="yes"/>
      <point x="66" y="-11"/>
      <point x="60" y="98"/>
      <point x="60" y="165" type="curve" smooth="yes"/>
      <point x="60" y="460" type="line"/>
      <point x="140" y="460" type="line"/>
      <point x="140" y="165" type="line" smooth="yes"/>
      <point x="140" y="121"/>
      <point x="149" y="54"/>
      <point x="237" y="54" type="curve" smooth="yes"/>
      <point x="293" y="54"/>
      <point x="379" y="110"/>
      <point x="379" y="210" type="curve"/>
      <point x="418" y="210" type="line"/>
      <point x="418" y="109" type="line"/>
      <point x="374" y="109" type="line"/>
      <point x="399" y="122" type="line"/>
      <point x="363" y="66"/>
      <point x="312" y="-11"/>
    </contour>
  </outline>
  <guideline angle="90" x="244" y="0"/>
</glyph>
<glyph name="v" format="2">
  <advance width="467"/>
  <unicode hex="0076"/>
  <anchor x="233" y="530" name="top"/>
  <anchor x="233" y="-40" name="bottom"/>
  <outline>
    <contour>
      <point x="162" y="0" type="line"/>
      <point x="298" y="0" type="line"/>
      <point x="453" y="460" type="line"/>
      <point x="355" y="460" type="line"/>
      <point x="225" y="54" type="line"/>
      <point x="241" y="54" type="line"/>
      <point x="111" y="460" type="line"/>
      <point x="14" y="460" type="line"/>
    </contour>
  </outline>
  <guideline angle="90" name="h_1" x="233" y="0"/>
</glyph>
<glyph name="w" format="2">
  <advance width="684"/>
  <unicode hex="0077"/>
  <anchor x="342" y="-40" name="bottom"/>
  <anchor x="342" y="530" name="top"/>
  <outline>
    <contour>
      <point x="153" y="0" type="line"/>
      <point x="249" y="0" type="line"/>
      <point x="330" y="274" type="line" smooth="yes"/>
      <point x="337" y="296"/>
      <point x="340" y="321"/>
      <point x="342" y="344" type="curve"/>
      <point x="336" y="334" type="line"/>
      <point x="348" y="334" type="line"/>
      <point x="342" y="344" type="line"/>
      <point x="344" y="321"/>
      <point x="347" y="296"/>
      <point x="354" y="274" type="curve" smooth="yes"/>
      <point x="435" y="0" type="line"/>
      <point x="531" y="0" type="line"/>
      <point x="670" y="460" type="line"/>
      <point x="578" y="460" type="line"/>
      <point x="495" y="186" type="line" smooth="yes"/>
      <point x="488" y="164"/>
      <point x="485" y="139"/>
      <point x="483" y="116" type="curve"/>
      <point x="495" y="126" type="line"/>
      <point x="471" y="126" type="line"/>
      <point x="483" y="116" type="line"/>
      <point x="481" y="139"/>
      <point x="478" y="164"/>
      <point x="471" y="186" type="curve" smooth="yes"/>
      <point x="390" y="460" type="line"/>
      <point x="294" y="460" type="line"/>
      <point x="213" y="186" type="line" smooth="yes"/>
      <point x="206" y="164"/>
      <point x="203" y="142"/>
      <point x="201" y="116" type="curve"/>
      <point x="207" y="126" type="line"/>
      <point x="195" y="126" type="line"/>
      <point x="201" y="116" type="line"/>
      <point x="199" y="142"/>
      <point x="196" y="164"/>
      <point x="189" y="186" type="curve" smooth="yes"/>
      <point x="106" y="460" type="line"/>
      <point x="14" y="460" type="line"/>
    </contour>
  </outline>
  <guideline angle="90" name="h_1" x="342" y="0"/>
  <guideline angle="90" x="294" y="0"/>
  <guideline angle="90" x="390" y="0"/>
  <guideline angle="90" x="201" y="0"/>
  <guideline angle="90" x="578" y="0"/>
  <guideline angle="90" x="10" y="0"/>
  <guideline angle="90" x="674" y="0"/>
  <guideline angle="90" x="106" y="0"/>
  <guideline angle="90" x="483" y="0"/>
  <guideline angle="0" x="0" y="116"/>
  <guideline angle="0" x="0" y="186"/>
  <guideline angle="0" x="0" y="444"/>
  <guideline angle="0" x="0" y="126"/>
  <guideline angle="0" x="0" y="142"/>
  <guideline angle="0" x="0" y="344"/>
  <guideline angle="0" x="0" y="334"/>
  <guideline angle="0" x="0" y="274"/>
</glyph>
<glyph name="x" format="2">
  <advance width="416"/>
  <unicode hex="0078"/>
  <outline>
    <contour>
      <point x="18" y="0" type="line"/>
      <point x="177" y="256" type="line"/>
      <point x="196" y="280" type="line"/>
      <point x="308" y="460" type="line"/>
      <point x="388" y="460" type="line"/>
      <point x="238" y="219" type="line"/>
      <point x="220" y="197" type="line"/>
      <point x="98" y="0" type="line"/>
    </contour>
    <contour>
      <point x="318" y="0" type="line"/>
      <point x="196" y="197" type="line"/>
      <point x="177" y="221" type="line"/>
      <point x="28" y="460" type="line"/>
      <point x="108" y="460" type="line"/>
      <point x="220" y="280" type="line"/>
      <point x="238" y="257" type="line"/>
      <point x="398" y="0" type="line"/>
    </contour>
  </outline>
  <guideline angle="0" x="0" y="280"/>
  <guideline angle="0" x="0" y="197"/>
  <guideline angle="90" x="179" y="0"/>
  <guideline angle="90" x="236" y="0"/>
</glyph>
<glyph name="y" format="2">
  <advance width="460"/>
  <unicode hex="0079"/>
  <outline>
    <contour>
      <point x="58" y="-190" type="curve"/>
      <point x="58" y="-128" type="line"/>
      <point x="70" y="-132"/>
      <point x="94" y="-135"/>
      <point x="116" y="-135" type="curve" smooth="yes"/>
      <point x="147" y="-135"/>
      <point x="174" y="-103"/>
      <point x="188" y="-50" type="curve"/>
      <point x="354" y="460" type="line"/>
      <point x="430" y="460" type="line"/>
      <point x="258" y="-49" type="line" smooth="yes"/>
      <point x="219" y="-165"/>
      <point x="190" y="-200"/>
      <point x="133" y="-200" type="curve" smooth="yes"/>
      <point x="108" y="-200"/>
      <point x="89" y="-198"/>
    </contour>
    <contour>
      <point x="207" y="-37" type="line"/>
      <point x="30" y="460" type="line"/>
      <point x="110" y="460" type="line"/>
      <point x="248" y="73" type="line"/>
    </contour>
  </outline>
</glyph>
<glyph name="z" format="2">
  <advance width="450"/>
  <unicode hex="007A"/>
  <anchor x="226" y="530" name="top"/>
  <anchor x="226" y="-40" name="bottom"/>
  <outline>
    <contour>
      <point x="40" y="0" type="line"/>
      <point x="410" y="0" type="line"/>
      <point x="410" y="80" type="line"/>
      <point x="144" y="80" type="line"/>
      <point x="149" y="56" type="line"/>
      <point x="410" y="388" type="line"/>
      <point x="410" y="460" type="line"/>
      <point x="40" y="460" type="line"/>
      <point x="40" y="380" type="line"/>
      <point x="316" y="380" type="line"/>
      <point x="312" y="404" type="line"/>
      <point x="40" y="72" type="line"/>
    </contour>
  </outline>
  <guideline angle="90" name="h_1" x="226" y="0"/>
</glyph>
<glyph name="braceleft" format="2">
  <advance width="324"/>
  <unicode hex="007B"/>
  <outline>
    <contour>
      <point x="40" y="326" type="line"/>
      <point x="92" y="312"/>
      <point x="110" y="287"/>
      <point x="110" y="230" type="curve" smooth="yes"/>
      <point x="110" y="97" type="line" smooth="yes"/>
      <point x="110" y="-50"/>
      <point x="140" y="-80"/>
      <point x="284" y="-80" type="curve"/>
      <point x="284" y="-26" type="line"/>
      <point x="216" y="-26"/>
      <point x="190" y="2"/>
      <point x="190" y="74" type="curve" smooth="yes"/>
      <point x="190" y="234" type="line" smooth="yes"/>
      <point x="190" y="284"/>
      <point x="165" y="329"/>
      <point x="126" y="348" type="curve"/>
      <point x="169" y="374"/>
      <point x="190" y="410"/>
      <point x="190" y="460" type="curve" smooth="yes"/>
      <point x="190" y="628" type="line" smooth="yes"/>
      <point x="190" y="701"/>
      <point x="212" y="722"/>
      <point x="284" y="722" type="curve"/>
      <point x="284" y="780" type="line"/>
      <point x="151" y="780"/>
      <point x="110" y="741"/>
      <point x="110" y="615" type="curve" smooth="yes"/>
      <point x="110" y="468" type="line" smooth="yes"/>
      <point x="110" y="412"/>
      <point x="94" y="390"/>
      <point x="40" y="374" type="curve"/>
    </contour>
  </outline>
</glyph>
<glyph name="bar" format="2">
  <advance width="220"/>
  <unicode hex="007C"/>
  <outline>
    <contour>
      <point x="70" y="-80" type="line"/>
      <point x="70" y="780" type="line"/>
      <point x="150" y="780" type="line"/>
      <point x="150" y="-80" type="line"/>
    </contour>
  </outline>
</glyph>
<glyph name="braceright" format="2">
  <advance width="324"/>
  <unicode hex="007D"/>
  <outline>
    <contour>
      <point x="40" y="-26" type="line"/>
      <point x="124" y="-26"/>
      <point x="134" y="12"/>
      <point x="134" y="101" type="curve" smooth="yes"/>
      <point x="134" y="234" type="line" smooth="yes"/>
      <point x="134" y="287"/>
      <point x="162" y="330"/>
      <point x="198" y="348" type="curve"/>
      <point x="183" y="357"/>
      <point x="169" y="368"/>
      <point x="159" y="381" type="curve" smooth="yes"/>
      <point x="143" y="401"/>
      <point x="134" y="426"/>
      <point x="134" y="460" type="curve" smooth="yes"/>
      <point x="134" y="628" type="line" smooth="yes"/>
      <point x="134" y="701"/>
      <point x="112" y="722"/>
      <point x="40" y="722" type="curve"/>
      <point x="40" y="780" type="line"/>
      <point x="83" y="780"/>
      <point x="146" y="774"/>
      <point x="179" y="749" type="curve" smooth="yes"/>
      <point x="210" y="725"/>
      <point x="214" y="682"/>
      <point x="214" y="615" type="curve" smooth="yes"/>
      <point x="214" y="468" type="line" smooth="yes"/>
      <point x="214" y="408"/>
      <point x="235" y="389"/>
      <point x="284" y="374" type="curve"/>
      <point x="284" y="326" type="line"/>
      <point x="232" y="312"/>
      <point x="214" y="287"/>
      <point x="214" y="230" type="curve" smooth="yes"/>
      <point x="214" y="97" type="line" smooth="yes"/>
      <point x="214" y="-55"/>
      <point x="180" y="-80"/>
      <point x="40" y="-80" type="curve"/>
    </contour>
  </outline>
</glyph>
<glyph name="asciitilde" format="2">
  <advance width="530"/>
  <unicode hex="007E"/>
  <outline>
    <contour>
      <point x="60" y="183" type="line"/>
      <point x="84" y="270"/>
      <point x="143" y="303"/>
      <point x="190" y="303" type="curve" smooth="yes"/>
      <point x="247" y="303"/>
      <point x="299" y="263"/>
      <point x="350" y="263" type="curve" smooth="yes"/>
      <point x="379" y="263"/>
      <point x="410" y="271"/>
      <point x="420" y="303" type="curve"/>
      <point x="470" y="303" type="line"/>
      <point x="446" y="207"/>
      <point x="397" y="183"/>
      <point x="350" y="183" type="curve" smooth="yes"/>
      <point x="296" y="183"/>
      <point x="243" y="223"/>
      <point x="190" y="223" type="curve" smooth="yes"/>
      <point x="163" y="223"/>
      <point x="120" y="211"/>
      <point x="110" y="183" type="curve"/>
    </contour>
  </outline>
</glyph>
<glyph name="exclamdown" format="2">
  <advance width="190"/>
  <unicode hex="00A1"/>
  <outline>
    <contour>
      <point x="50" y="50" type="line"/>
      <point x="70" y="310" type="line"/>
      <point x="120" y="310" type="line"/>
      <point x="140" y="50" type="line"/>
      <point x="140" y="-240" type="line"/>
      <point x="50" y="-240" type="line"/>
    </contour>
    <contour>
      <point x="55" y="380" type="line"/>
      <point x="55" y="460" type="line"/>
      <point x="135" y="460" type="line"/>
      <point x="135" y="380" type="line"/>
    </contour>
  </outline>
</glyph>
<glyph name="cent" format="2">
  <advance width="495"/>
  <unicode hex="00A2"/>
  <outline>
    <contour>
      <point x="49" y="228" type="curve" smooth="yes"/>
      <point x="49" y="448"/>
      <point x="202" y="473"/>
      <point x="253" y="473" type="curve" smooth="yes"/>
      <point x="258" y="473"/>
      <point x="269" y="473"/>
      <point x="296" y="469" type="curve"/>
      <point x="346" y="637" type="line"/>
      <point x="393" y="623" type="line"/>
      <point x="345" y="455" type="line"/>
      <point x="405" y="429"/>
      <point x="426" y="385"/>
      <point x="436" y="353" type="curve"/>
      <point x="443" y="326" type="line"/>
      <point x="367" y="314" type="line"/>
      <point x="363" y="333"/>
      <point x="355" y="363"/>
      <point x="326" y="388" type="curve"/>
      <point x="229" y="55" type="line"/>
      <point x="237" y="53"/>
      <point x="243" y="52"/>
      <point x="255" y="52" type="curve" smooth="yes"/>
      <point x="310" y="52"/>
      <point x="362" y="88"/>
      <point x="374" y="169" type="curve"/>
      <point x="451" y="160" type="line"/>
      <point x="447" y="140"/>
      <point x="442" y="122"/>
      <point x="435" y="106" type="curve" smooth="yes"/>
      <point x="395" y="11"/>
      <point x="307" y="-12"/>
      <point x="256" y="-12" type="curve" smooth="yes"/>
      <point x="236" y="-12"/>
      <point x="223" y="-9"/>
      <point x="212" y="-6" type="curve"/>
      <point x="161" y="-178" type="line"/>
      <point x="112" y="-164" type="line"/>
      <point x="162" y="9" type="line"/>
      <point x="95" y="41"/>
      <point x="49" y="116"/>
    </contour>
    <contour>
      <point x="129" y="232" type="curve" smooth="yes"/>
      <point x="129" y="210"/>
      <point x="128" y="116"/>
      <point x="182" y="77" type="curve"/>
      <point x="279" y="409" type="line"/>
      <point x="145" y="420"/>
      <point x="129" y="298"/>
    </contour>
  </outline>
</glyph>
<glyph name="currency" format="2">
  <advance width="495"/>
  <unicode hex="00A4"/>
  <outline>
    <contour>
      <point x="247" y="132" type="curve" smooth="yes"/>
      <point x="144" y="132"/>
      <point x="63" y="212"/>
      <point x="63" y="315" type="curve" smooth="yes"/>
      <point x="63" y="418"/>
      <point x="145" y="500"/>
      <point x="247" y="500" type="curve" smooth="yes"/>
      <point x="348" y="500"/>
      <point x="431" y="417"/>
      <point x="431" y="315" type="curve" smooth="yes"/>
      <point x="431" y="213"/>
      <point x="350" y="132"/>
    </contour>
    <contour>
      <point x="134" y="316" type="curve" smooth="yes"/>
      <point x="134" y="253"/>
      <point x="184" y="203"/>
      <point x="247" y="203" type="curve" smooth="yes"/>
      <point x="310" y="203"/>
      <point x="360" y="253"/>
      <point x="360" y="316" type="curve" smooth="yes"/>
      <point x="360" y="379"/>
      <point x="310" y="429"/>
      <point x="247" y="429" type="curve" smooth="yes"/>
      <point x="184" y="429"/>
      <point x="134" y="379"/>
    </contour>
    <contour>
      <point x="158" y="460" type="line"/>
      <point x="107" y="409" type="line"/>
      <point x="34" y="483" type="line"/>
      <point x="85" y="534" type="line"/>
    </contour>
    <contour>
      <point x="389" y="407" type="line"/>
      <point x="338" y="458" type="line"/>
      <point x="410" y="530" type="line"/>
      <point x="461" y="479" type="line"/>
    </contour>
    <contour>
      <point x="34" y="154" type="line"/>
      <point x="102" y="222" type="line"/>
      <point x="153" y="171" type="line"/>
      <point x="85" y="103" type="line"/>
    </contour>
    <contour>
      <point x="339" y="174" type="line"/>
      <point x="390" y="225" type="line"/>
      <point x="460" y="154" type="line"/>
      <point x="409" y="103" type="line"/>
    </contour>
  </outline>
</glyph>
<glyph name="yen" format="2">
  <advance width="513"/>
  <unicode hex="00A5"/>
  <outline>
    <contour>
      <point x="10" y="637" type="line"/>
      <point x="97" y="637" type="line"/>
      <point x="223" y="413" type="line" smooth="yes"/>
      <point x="235" y="392"/>
      <point x="247" y="369"/>
      <point x="256" y="346" type="curve"/>
      <point x="265" y="369"/>
      <point x="275" y="386"/>
      <point x="291" y="417" type="curve" smooth="yes"/>
      <point x="410" y="637" type="line"/>
      <point x="503" y="637" type="line"/>
      <point x="337" y="346" type="line"/>
      <point x="475" y="346" type="line"/>
      <point x="475" y="286" type="line"/>
      <point x="302" y="286" type="line"/>
      <point x="302" y="207" type="line"/>
      <point x="475" y="207" type="line"/>
      <point x="475" y="147" type="line"/>
      <point x="302" y="147" type="line"/>
      <point x="302" y="0" type="line"/>
      <point x="212" y="0" type="line"/>
      <point x="212" y="147" type="line"/>
      <point x="37" y="147" type="line"/>
      <point x="37" y="207" type="line"/>
      <point x="212" y="207" type="line"/>
      <point x="212" y="286" type="line"/>
      <point x="37" y="286" type="line"/>
      <point x="37" y="346" type="line"/>
      <point x="176" y="346" type="line"/>
    </contour>
  </outline>
</glyph>
<glyph name="section" format="2">
  <advance width="465"/>
  <unicode hex="00A7"/>
  <outline>
    <contour>
      <point x="40" y="400" type="curve" smooth="yes"/>
      <point x="40" y="457"/>
      <point x="77" y="498"/>
      <point x="123" y="515" type="curve"/>
      <point x="100" y="530"/>
      <point x="85" y="555"/>
      <point x="85" y="580" type="curve" smooth="yes"/>
      <point x="85" y="647"/>
      <point x="143" y="691"/>
      <point x="229" y="691" type="curve" smooth="yes"/>
      <point x="322" y="691"/>
      <point x="375" y="640"/>
      <point x="375" y="549" type="curve"/>
      <point x="295" y="549" type="line"/>
      <point x="295" y="599"/>
      <point x="278" y="626"/>
      <point x="229" y="626" type="curve" smooth="yes"/>
      <point x="200" y="626"/>
      <point x="165" y="618"/>
      <point x="165" y="582" type="curve" smooth="yes"/>
      <point x="165" y="564"/>
      <point x="176" y="552"/>
      <point x="239" y="511" type="curve" smooth="yes"/>
      <point x="360" y="432" type="line" smooth="yes"/>
      <point x="398" y="407"/>
      <point x="425" y="378"/>
      <point x="425" y="319" type="curve" smooth="yes"/>
      <point x="425" y="264"/>
      <point x="382" y="234"/>
      <point x="341" y="215" type="curve"/>
      <point x="366" y="199"/>
      <point x="387" y="157"/>
      <point x="387" y="116" type="curve" smooth="yes"/>
      <point x="387" y="40"/>
      <point x="328" y="-11"/>
      <point x="241" y="-11" type="curve" smooth="yes"/>
      <point x="142" y="-11"/>
      <point x="75" y="53"/>
      <point x="75" y="148" type="curve"/>
      <point x="155" y="148" type="line"/>
      <point x="155" y="78"/>
      <point x="215" y="54"/>
      <point x="243" y="54" type="curve" smooth="yes"/>
      <point x="285" y="54"/>
      <point x="307" y="75"/>
      <point x="307" y="112" type="curve" smooth="yes"/>
      <point x="307" y="143"/>
      <point x="296" y="173"/>
      <point x="247" y="202" type="curve" smooth="yes"/>
      <point x="140" y="265" type="line" smooth="yes"/>
      <point x="74" y="304"/>
      <point x="40" y="349"/>
    </contour>
    <contour>
      <point x="120" y="402" type="curve" smooth="yes"/>
      <point x="120" y="360"/>
      <point x="144" y="340"/>
      <point x="173" y="322" type="curve" smooth="yes"/>
      <point x="271" y="263" type="line" smooth="yes"/>
      <point x="278" y="259"/>
      <point x="286" y="257"/>
      <point x="293" y="257" type="curve" smooth="yes"/>
      <point x="321" y="257"/>
      <point x="345" y="285"/>
      <point x="345" y="314" type="curve" smooth="yes"/>
      <point x="345" y="344"/>
      <point x="341" y="377"/>
      <point x="280" y="413" type="curve" smooth="yes"/>
      <point x="173" y="476" type="line"/>
      <point x="140" y="469"/>
      <point x="120" y="434"/>
    </contour>
  </outline>
</glyph>
<glyph name="dieresis" format="2">
  <advance width="358"/>
  <unicode hex="00A8"/>
  <anchor x="179" y="540" name="_aboveUC"/>
  <anchor x="179" y="540" name="_aboveLC"/>
  <outline>
    <contour>
      <point x="60" y="540" type="line"/>
      <point x="60" y="620" type="line"/>
      <point x="140" y="620" type="line"/>
      <point x="140" y="540" type="line"/>
    </contour>
    <contour>
      <point x="218" y="540" type="line"/>
      <point x="218" y="620" type="line"/>
      <point x="298" y="620" type="line"/>
      <point x="298" y="540" type="line"/>
    </contour>
  </outline>
</glyph>
<glyph name="copyright" format="2">
  <advance width="572"/>
  <unicode hex="00A9"/>
  <outline>
    <contour>
      <point x="178" y="220" type="curve" smooth="yes"/>
      <point x="178" y="143"/>
      <point x="221" y="89"/>
      <point x="291" y="89" type="curve" smooth="yes"/>
      <point x="339" y="89"/>
      <point x="372" y="127"/>
      <point x="386" y="170" type="curve"/>
      <point x="334" y="170" type="line"/>
      <point x="324" y="147"/>
      <point x="307" y="139"/>
      <point x="287" y="139" type="curve" smooth="yes"/>
      <point x="256" y="139"/>
      <point x="229" y="166"/>
      <point x="229" y="221" type="curve" smooth="yes"/>
      <point x="229" y="276"/>
      <point x="257" y="303"/>
      <point x="288" y="303" type="curve" smooth="yes"/>
      <point x="307" y="303"/>
      <point x="326" y="296"/>
      <point x="334" y="266" type="curve"/>
      <point x="386" y="266" type="line"/>
      <point x="375" y="317"/>
      <point x="343" y="352"/>
      <point x="289" y="352" type="curve" smooth="yes"/>
      <point x="223" y="352"/>
      <point x="178" y="297"/>
    </contour>
    <contour>
      <point x="50" y="228" type="curve" smooth="yes"/>
      <point x="50" y="97"/>
      <point x="156" y="-10"/>
      <point x="286" y="-10" type="curve" smooth="yes"/>
      <point x="416" y="-10"/>
      <point x="522" y="96"/>
      <point x="522" y="226" type="curve" smooth="yes"/>
      <point x="522" y="357"/>
      <point x="416" y="464"/>
      <point x="286" y="464" type="curve" smooth="yes"/>
      <point x="156" y="464"/>
      <point x="50" y="358"/>
    </contour>
    <contour>
      <point x="108" y="228" type="curve" smooth="yes"/>
      <point x="108" y="326"/>
      <point x="188" y="406"/>
      <point x="286" y="406" type="curve" smooth="yes"/>
      <point x="384" y="406"/>
      <point x="464" y="325"/>
      <point x="464" y="226" type="curve" smooth="yes"/>
      <point x="464" y="128"/>
      <point x="384" y="48"/>
      <point x="286" y="48" type="curve" smooth="yes"/>
      <point x="188" y="48"/>
      <point x="108" y="129"/>
    </contour>
  </outline>
</glyph>
<glyph name="ordfeminine" format="2">
  <advance width="329"/>
  <unicode hex="00AA"/>
  <outline>
    <contour>
      <point x="19" y="419" type="curve" smooth="yes"/>
      <point x="19" y="498"/>
      <point x="91" y="507"/>
      <point x="138" y="514" type="curve" smooth="yes"/>
      <point x="171" y="519"/>
      <point x="197" y="522"/>
      <point x="231" y="530" type="curve"/>
      <point x="231" y="560"/>
      <point x="230" y="597"/>
      <point x="162" y="597" type="curve" smooth="yes"/>
      <point x="133" y="597"/>
      <point x="97" y="590"/>
      <point x="90" y="543" type="curve"/>
      <point x="30" y="558" type="line"/>
      <point x="35" y="593"/>
      <point x="61" y="648"/>
      <point x="163" y="648" type="curve" smooth="yes"/>
      <point x="224" y="648"/>
      <point x="293" y="635"/>
      <point x="293" y="543" type="curve" smooth="yes"/>
      <point x="293" y="438" type="line" smooth="yes"/>
      <point x="293" y="390"/>
      <point x="293" y="352"/>
      <point x="310" y="332" type="curve"/>
      <point x="246" y="332" type="line"/>
      <point x="240" y="344"/>
      <point x="237" y="353"/>
      <point x="237" y="370" type="curve"/>
      <point x="211" y="348"/>
      <point x="172" y="324"/>
      <point x="125" y="324" type="curve" smooth="yes"/>
      <point x="85" y="324"/>
      <point x="19" y="344"/>
    </contour>
    <contour>
      <point x="84" y="418" type="curve" smooth="yes"/>
      <point x="84" y="391"/>
      <point x="110" y="376"/>
      <point x="140" y="376" type="curve" smooth="yes"/>
      <point x="176" y="376"/>
      <point x="214" y="398"/>
      <point x="226" y="433" type="curve"/>
      <point x="230" y="442"/>
      <point x="230" y="446"/>
      <point x="230" y="480" type="curve"/>
      <point x="214" y="475"/>
      <point x="188" y="470"/>
      <point x="160" y="466" type="curve" smooth="yes"/>
      <point x="107" y="458"/>
      <point x="84" y="453"/>
    </contour>
  </outline>
</glyph>
<glyph name="guillemotleft" format="2">
  <advance width="495"/>
  <unicode hex="00AB"/>
  <outline>
    <contour>
      <point x="61" y="230" type="line"/>
      <point x="199" y="428" type="line"/>
      <point x="263" y="428" type="line"/>
      <point x="150" y="230" type="line"/>
      <point x="263" y="31" type="line"/>
      <point x="199" y="31" type="line"/>
    </contour>
    <contour>
      <point x="231" y="230" type="line"/>
      <point x="369" y="428" type="line"/>
      <point x="433" y="428" type="line"/>
      <point x="320" y="230" type="line"/>
      <point x="433" y="31" type="line"/>
      <point x="369" y="31" type="line"/>
    </contour>
  </outline>
</glyph>
<glyph name="uni00AD" format="2">
  <advance width="320"/>
  <unicode hex="00AD"/>
  <outline>
    <contour>
      <point x="50" y="210" type="line"/>
      <point x="50" y="275" type="line"/>
      <point x="270" y="275" type="line"/>
      <point x="270" y="210" type="line"/>
    </contour>
  </outline>
</glyph>
<glyph name="registered" format="2">
  <advance width="572"/>
  <unicode hex="00AE"/>
  <outline>
    <contour>
      <point x="50" y="228" type="curve" smooth="yes"/>
      <point x="50" y="358"/>
      <point x="156" y="464"/>
      <point x="286" y="464" type="curve" smooth="yes"/>
      <point x="416" y="464"/>
      <point x="522" y="357"/>
      <point x="522" y="226" type="curve" smooth="yes"/>
      <point x="522" y="96"/>
      <point x="416" y="-10"/>
      <point x="286" y="-10" type="curve" smooth="yes"/>
      <point x="156" y="-10"/>
      <point x="50" y="97"/>
    </contour>
    <contour>
      <point x="108" y="228" type="curve" smooth="yes"/>
      <point x="108" y="129"/>
      <point x="188" y="48"/>
      <point x="286" y="48" type="curve" smooth="yes"/>
      <point x="384" y="48"/>
      <point x="464" y="128"/>
      <point x="464" y="226" type="curve" smooth="yes"/>
      <point x="464" y="325"/>
      <point x="384" y="406"/>
      <point x="286" y="406" type="curve" smooth="yes"/>
      <point x="188" y="406"/>
      <point x="108" y="326"/>
    </contour>
    <contour>
      <point x="199" y="95" type="line"/>
      <point x="199" y="357" type="line"/>
      <point x="302" y="357" type="line"/>
      <point x="351" y="356"/>
      <point x="389" y="331"/>
      <point x="389" y="277" type="curve" smooth="yes"/>
      <point x="389" y="245"/>
      <point x="376" y="209"/>
      <point x="325" y="204" type="curve"/>
      <point x="390" y="95" type="line"/>
      <point x="332" y="95" type="line"/>
      <point x="270" y="203" type="line"/>
      <point x="249" y="203" type="line"/>
      <point x="249" y="95" type="line"/>
    </contour>
    <contour>
      <point x="249" y="253" type="line"/>
      <point x="302" y="253" type="line" smooth="yes"/>
      <point x="334" y="253"/>
      <point x="339" y="259"/>
      <point x="339" y="279" type="curve" smooth="yes"/>
      <point x="339" y="299"/>
      <point x="330" y="307"/>
      <point x="302" y="307" type="curve"/>
      <point x="301" y="307" type="line"/>
      <point x="249" y="307" type="line"/>
    </contour>
  </outline>
</glyph>
<glyph name="macron" format="2">
  <advance width="370"/>
  <unicode hex="00AF"/>
  <anchor x="200" y="490" name="_aboveUC"/>
  <anchor x="185" y="470" name="_aboveLC"/>
  <outline>
    <contour>
      <point x="50" y="520" type="line"/>
      <point x="50" y="590" type="line"/>
      <point x="320" y="590" type="line"/>
      <point x="320" y="520" type="line"/>
    </contour>
  </outline>
</glyph>
<glyph name="two.superior" format="2">
  <advance width="368"/>
  <unicode hex="00B2"/>
  <outline>
    <contour>
      <point x="53" y="354" type="line"/>
      <point x="53" y="413" type="line"/>
      <point x="162" y="510" type="line" smooth="yes"/>
      <point x="199" y="543"/>
      <point x="219" y="562"/>
      <point x="219" y="581" type="curve" smooth="yes"/>
      <point x="219" y="605"/>
      <point x="198" y="620"/>
      <point x="176" y="620" type="curve" smooth="yes"/>
      <point x="144" y="620"/>
      <point x="127" y="601"/>
      <point x="127" y="567" type="curve"/>
      <point x="47" y="567" type="line"/>
      <point x="47" y="638"/>
      <point x="98" y="690"/>
      <point x="179" y="690" type="curve" smooth="yes"/>
      <point x="251" y="690"/>
      <point x="299" y="650"/>
      <point x="299" y="590" type="curve" smooth="yes"/>
      <point x="299" y="553"/>
      <point x="288" y="525"/>
      <point x="227" y="470" type="curve" smooth="yes"/>
      <point x="109" y="365" type="line"/>
      <point x="96" y="419" type="line"/>
      <point x="310" y="419" type="line"/>
      <point x="310" y="354" type="line"/>
    </contour>
  </outline>
</glyph>
<glyph name="three.superior" format="2">
  <advance width="375"/>
  <unicode hex="00B3"/>
  <outline>
    <contour>
      <point x="21" y="454" type="line"/>
      <point x="29" y="392"/>
      <point x="71" y="343"/>
      <point x="161" y="343" type="curve" smooth="yes"/>
      <point x="224" y="343"/>
      <point x="297" y="374"/>
      <point x="297" y="453" type="curve" smooth="yes"/>
      <point x="297" y="502"/>
      <point x="266" y="536"/>
      <point x="216" y="541" type="curve"/>
      <point x="216" y="529" type="line"/>
      <point x="254" y="534"/>
      <point x="279" y="563"/>
      <point x="279" y="602" type="curve" smooth="yes"/>
      <point x="279" y="658"/>
      <point x="236" y="691"/>
      <point x="164" y="691" type="curve" smooth="yes"/>
      <point x="93" y="691"/>
      <point x="45" y="652"/>
      <point x="24" y="585" type="curve"/>
      <point x="108" y="585" type="line"/>
      <point x="117" y="606"/>
      <point x="133" y="615"/>
      <point x="159" y="615" type="curve" smooth="yes"/>
      <point x="173" y="615"/>
      <point x="190" y="608"/>
      <point x="190" y="586" type="curve" smooth="yes"/>
      <point x="190" y="562"/>
      <point x="156" y="554"/>
      <point x="130" y="554" type="curve"/>
      <point x="130" y="498" type="line"/>
      <point x="142" y="499"/>
      <point x="145" y="499"/>
      <point x="153" y="499" type="curve" smooth="yes"/>
      <point x="188" y="499"/>
      <point x="208" y="485"/>
      <point x="208" y="457" type="curve" smooth="yes"/>
      <point x="208" y="433"/>
      <point x="187" y="419"/>
      <point x="159" y="419" type="curve" smooth="yes"/>
      <point x="127" y="419"/>
      <point x="109" y="435"/>
      <point x="104" y="454" type="curve"/>
    </contour>
  </outline>
  <guideline angle="0" x="0" y="344"/>
</glyph>
<glyph name="uni00B3" format="2">
  <advance width="296"/>
  <unicode hex="00B3"/>
  <outline>
    <contour>
      <point x="14" y="404" type="curve"/>
      <point x="77" y="410" type="line"/>
      <point x="84" y="392"/>
      <point x="95" y="361"/>
      <point x="144" y="361" type="curve" smooth="yes"/>
      <point x="182" y="361"/>
      <point x="213" y="384"/>
      <point x="213" y="419" type="curve" smooth="yes"/>
      <point x="213" y="454"/>
      <point x="186" y="464"/>
      <point x="160" y="466" type="curve"/>
      <point x="154" y="467"/>
      <point x="149" y="467"/>
      <point x="144" y="467" type="curve" smooth="yes"/>
      <point x="136" y="467"/>
      <point x="132" y="467"/>
      <point x="120" y="466" type="curve"/>
      <point x="129" y="514" type="line"/>
      <point x="151" y="514"/>
      <point x="198" y="520"/>
      <point x="198" y="558" type="curve" smooth="yes"/>
      <point x="198" y="577"/>
      <point x="183" y="596"/>
      <point x="145" y="596" type="curve" smooth="yes"/>
      <point x="105" y="596"/>
      <point x="92" y="577"/>
      <point x="84" y="553" type="curve"/>
      <point x="21" y="562" type="line"/>
      <point x="38" y="612"/>
      <point x="68" y="645"/>
      <point x="146" y="645" type="curve" smooth="yes"/>
      <point x="163" y="645"/>
      <point x="265" y="645"/>
      <point x="265" y="564" type="curve" smooth="yes"/>
      <point x="265" y="534"/>
      <point x="248" y="506"/>
      <point x="206" y="495" type="curve"/>
      <point x="206" y="485"/>
      <point x="280" y="460"/>
      <point x="280" y="411" type="curve" smooth="yes"/>
      <point x="280" y="360"/>
      <point x="238" y="311"/>
      <point x="149" y="311" type="curve" smooth="yes"/>
      <point x="63" y="311"/>
      <point x="22" y="351"/>
    </contour>
  </outline>
</glyph>
<glyph name="acute" format="2">
  <advance width="276"/>
  <unicode hex="00B4"/>
  <anchor x="111" y="540" name="_aboveUC"/>
  <outline>
    <contour>
      <point x="60" y="540" type="line"/>
      <point x="110" y="720" type="line"/>
      <point x="216" y="720" type="line"/>
      <point x="150" y="540" type="line"/>
    </contour>
  </outline>
</glyph>
<glyph name="paragraph" format="2">
  <advance width="478"/>
  <unicode hex="00B6"/>
  <outline>
    <contour>
      <point x="174" y="-177" type="line"/>
      <point x="247" y="-177" type="line"/>
      <point x="247" y="562" type="line"/>
      <point x="344" y="562" type="line"/>
      <point x="344" y="-177" type="line"/>
      <point x="417" y="-177" type="line"/>
      <point x="417" y="562" type="line"/>
      <point x="480" y="562" type="line"/>
      <point x="480" y="637" type="line"/>
      <point x="191" y="637" type="line" smooth="yes"/>
      <point x="84" y="637"/>
      <point x="-1" y="572"/>
      <point x="-1" y="454" type="curve" smooth="yes"/>
      <point x="-1" y="365"/>
      <point x="54" y="284"/>
      <point x="174" y="277" type="curve"/>
    </contour>
  </outline>
</glyph>
<glyph name="cedilla" format="2">
  <advance width="452"/>
  <unicode hex="00B8"/>
  <outline>
    <contour>
      <point x="146" y="-144" type="line"/>
      <point x="148" y="-144" type="line"/>
      <point x="160" y="-157"/>
      <point x="181" y="-167"/>
      <point x="201" y="-167" type="curve" smooth="yes"/>
      <point x="235" y="-167"/>
      <point x="254" y="-153"/>
      <point x="254" y="-131" type="curve" smooth="yes"/>
      <point x="254" y="-101"/>
      <point x="223" y="-84"/>
      <point x="174" y="-80" type="curve"/>
      <point x="170" y="-77" type="line"/>
      <point x="206" y="0" type="line"/>
      <point x="252" y="0" type="line"/>
      <point x="225" y="-59" type="line"/>
      <point x="222" y="-33" type="line"/>
      <point x="293" y="-40"/>
      <point x="327" y="-70"/>
      <point x="327" y="-125" type="curve" smooth="yes"/>
      <point x="327" y="-178"/>
      <point x="279" y="-220"/>
      <point x="211" y="-220" type="curve" smooth="yes"/>
      <point x="180" y="-220"/>
      <point x="152" y="-208"/>
      <point x="126" y="-190" type="curve"/>
      <point x="126" y="-188" type="line"/>
    </contour>
  </outline>
  <guideline angle="65.1707" x="221" y="-67"/>
  <guideline angle="65.1707" x="175" y="-67"/>
  <guideline angle="65.556" x="124" y="-193"/>
</glyph>
<glyph name="one.superior" format="2">
  <advance width="225"/>
  <unicode hex="00B9"/>
  <outline>
    <contour>
      <point x="32" y="525" type="curve"/>
      <point x="32" y="599" type="line"/>
      <point x="69" y="608"/>
      <point x="120" y="649"/>
      <point x="145" y="680" type="curve"/>
      <point x="199" y="680" type="line"/>
      <point x="199" y="354" type="line"/>
      <point x="119" y="354" type="line"/>
      <point x="119" y="607" type="line"/>
      <point x="138" y="582" type="line"/>
      <point x="110" y="557"/>
      <point x="70" y="535"/>
    </contour>
  </outline>
</glyph>
<glyph name="ordmasculine" format="2">
  <advance width="399"/>
  <unicode hex="00BA"/>
  <outline>
    <contour>
      <point x="40" y="574" type="curve" smooth="yes"/>
      <point x="40" y="469.789"/>
      <point x="103.647" y="413"/>
      <point x="200.06" y="413" type="curve" smooth="yes"/>
      <point x="293.528" y="413"/>
      <point x="359" y="477.238"/>
      <point x="359" y="577" type="curve" smooth="yes"/>
      <point x="359" y="676.762"/>
      <point x="292.975" y="740"/>
      <point x="198.94" y="740" type="curve" smooth="yes"/>
      <point x="102.991" y="740"/>
      <point x="40" y="678.211"/>
    </contour>
    <contour>
      <point x="112" y="575.991" type="curve" smooth="yes"/>
      <point x="112" y="647.176"/>
      <point x="144.859" y="684"/>
      <point x="198.935" y="684" type="curve" smooth="yes"/>
      <point x="249.38" y="684"/>
      <point x="287" y="643.166"/>
      <point x="287" y="579.047" type="curve" smooth="yes"/>
      <point x="287" y="514.929"/>
      <point x="253.568" y="469"/>
      <point x="198.935" y="469" type="curve" smooth="yes"/>
      <point x="148.43" y="469"/>
      <point x="112" y="504.806"/>
    </contour>
  </outline>
</glyph>
<glyph name="guillemotright" format="2">
  <advance width="495"/>
  <unicode hex="00BB"/>
  <outline>
    <contour>
      <point x="61" y="31" type="line"/>
      <point x="125" y="31" type="line"/>
      <point x="263" y="230" type="line"/>
      <point x="125" y="428" type="line"/>
      <point x="61" y="428" type="line"/>
      <point x="174" y="230" type="line"/>
    </contour>
    <contour>
      <point x="231" y="31" type="line"/>
      <point x="295" y="31" type="line"/>
      <point x="433" y="230" type="line"/>
      <point x="295" y="428" type="line"/>
      <point x="231" y="428" type="line"/>
      <point x="344" y="230" type="line"/>
    </contour>
  </outline>
</glyph>
<glyph name="onehalf" format="2">
  <advance width="742"/>
  <unicode hex="00BD"/>
  <outline>
    <component base="two.superior" xOffset="397" yOffset="-354"/>
    <contour>
      <point x="32" y="526" type="line"/>
      <point x="70" y="536"/>
      <point x="110" y="558"/>
      <point x="138" y="583" type="curve"/>
      <point x="119" y="608" type="line"/>
      <point x="119" y="355" type="line"/>
      <point x="199" y="355" type="line"/>
      <point x="199" y="681" type="line"/>
      <point x="145" y="681" type="line"/>
      <point x="120" y="650"/>
      <point x="69" y="609"/>
      <point x="32" y="600" type="curve"/>
    </contour>
    <contour>
      <point x="92" y="0" type="line"/>
      <point x="190" y="0" type="line"/>
      <point x="676" y="681" type="line"/>
      <point x="578" y="681" type="line"/>
    </contour>
  </outline>
</glyph>
<glyph name="threequarters" format="2">
  <advance width="760"/>
  <unicode hex="00BE"/>
  <outline>
    <contour>
      <point x="21" y="454" type="line"/>
      <point x="29" y="391"/>
      <point x="71" y="341"/>
      <point x="161" y="341" type="curve" smooth="yes"/>
      <point x="224" y="341"/>
      <point x="297" y="372"/>
      <point x="297" y="452" type="curve" smooth="yes"/>
      <point x="297" y="502"/>
      <point x="266" y="536"/>
      <point x="216" y="541" type="curve"/>
      <point x="216" y="529" type="line"/>
      <point x="254" y="534"/>
      <point x="279" y="563"/>
      <point x="279" y="602" type="curve" smooth="yes"/>
      <point x="279" y="658"/>
      <point x="236" y="691"/>
      <point x="164" y="691" type="curve" smooth="yes"/>
      <point x="93" y="691"/>
      <point x="45" y="652"/>
      <point x="24" y="585" type="curve"/>
      <point x="108" y="585" type="line"/>
      <point x="117" y="606"/>
      <point x="133" y="615"/>
      <point x="159" y="615" type="curve" smooth="yes"/>
      <point x="173" y="615"/>
      <point x="190" y="608"/>
      <point x="190" y="586" type="curve" smooth="yes"/>
      <point x="190" y="562"/>
      <point x="156" y="554"/>
      <point x="130" y="554" type="curve"/>
      <point x="130" y="498" type="line"/>
      <point x="142" y="499"/>
      <point x="145" y="499"/>
      <point x="153" y="499" type="curve" smooth="yes"/>
      <point x="188" y="499"/>
      <point x="208" y="484"/>
      <point x="208" y="456" type="curve" smooth="yes"/>
      <point x="208" y="432"/>
      <point x="187" y="417"/>
      <point x="159" y="417" type="curve" smooth="yes"/>
      <point x="127" y="417"/>
      <point x="109" y="434"/>
      <point x="104" y="454" type="curve"/>
    </contour>
    <contour>
      <point x="105" y="0" type="line"/>
      <point x="216" y="0" type="line"/>
      <point x="702" y="680" type="line"/>
      <point x="591" y="680" type="line"/>
    </contour>
    <contour>
      <point x="428" y="57" type="line"/>
      <point x="704" y="57" type="line"/>
      <point x="704" y="127" type="line"/>
      <point x="499" y="127" type="line"/>
      <point x="507" y="106" type="line"/>
      <point x="598" y="237" type="line"/>
      <point x="585" y="240" type="line"/>
      <point x="585" y="0" type="line"/>
      <point x="669" y="0" type="line"/>
      <point x="669" y="326" type="line"/>
      <point x="578" y="326" type="line"/>
      <point x="428" y="121" type="line"/>
    </contour>
  </outline>
</glyph>
<glyph name="AE" format="2">
  <advance width="850"/>
  <unicode hex="00C6"/>
  <anchor x="410" y="740" name="top"/>
  <outline>
    <contour>
      <point x="10" y="0" type="line"/>
      <point x="115" y="0" type="line"/>
      <point x="324" y="612" type="line"/>
      <point x="295" y="590" type="line"/>
      <point x="390" y="590" type="line"/>
      <point x="390" y="0" type="line"/>
      <point x="800" y="0" type="line"/>
      <point x="800" y="90" type="line"/>
      <point x="490" y="90" type="line"/>
      <point x="490" y="302" type="line"/>
      <point x="760" y="302" type="line"/>
      <point x="760" y="392" type="line"/>
      <point x="490" y="392" type="line"/>
      <point x="490" y="590" type="line"/>
      <point x="800" y="590" type="line"/>
      <point x="800" y="680" type="line"/>
      <point x="240" y="680" type="line"/>
    </contour>
    <contour>
      <point x="165" y="252" type="line"/>
      <point x="415" y="252" type="line"/>
      <point x="415" y="342" type="line"/>
      <point x="185" y="342" type="line"/>
    </contour>
  </outline>
</glyph>
<glyph name="Eth" format="2">
  <advance width="660"/>
  <unicode hex="00D0"/>
  <outline>
    <contour>
      <point x="10" y="400" type="line"/>
      <point x="290" y="400" type="line"/>
      <point x="290" y="320" type="line"/>
      <point x="10" y="320" type="line"/>
    </contour>
    <contour>
      <point x="70" y="0" type="line"/>
      <point x="70" y="80" type="line"/>
      <point x="258" y="80" type="line" smooth="yes"/>
      <point x="405" y="80"/>
      <point x="450" y="233"/>
      <point x="450" y="340" type="curve" smooth="yes"/>
      <point x="450" y="483"/>
      <point x="407" y="600"/>
      <point x="258" y="600" type="curve" smooth="yes"/>
      <point x="70" y="600" type="line"/>
      <point x="70" y="680" type="line"/>
      <point x="258" y="680" type="line" smooth="yes"/>
      <point x="448" y="680"/>
      <point x="540" y="534"/>
      <point x="540" y="340" type="curve" smooth="yes"/>
      <point x="540" y="143"/>
      <point x="449" y="0"/>
      <point x="258" y="0" type="curve" smooth="yes"/>
    </contour>
    <contour>
      <point x="60" y="0" type="line"/>
      <point x="60" y="680" type="line"/>
      <point x="150" y="680" type="line"/>
      <point x="150" y="0" type="line"/>
    </contour>
  </outline>
</glyph>
<glyph name="multiply" format="2">
  <advance width="520"/>
  <unicode hex="00D7"/>
  <outline>
    <contour>
      <point x="70" y="178" type="line"/>
      <point x="207" y="314" type="line"/>
      <point x="71" y="451" type="line"/>
      <point x="124" y="505" type="line"/>
      <point x="261" y="368" type="line"/>
      <point x="397" y="504" type="line"/>
      <point x="449" y="451" type="line"/>
      <point x="313" y="315" type="line"/>
      <point x="449" y="179" type="line"/>
      <point x="397" y="125" type="line"/>
      <point x="260" y="263" type="line"/>
      <point x="123" y="125" type="line"/>
    </contour>
  </outline>
</glyph>
<glyph name="Oslash" format="2">
  <advance width="660"/>
  <unicode hex="00D8"/>
  <outline>
    <contour>
      <point x="576" y="690" type="line"/>
      <point x="-16" y="-10" type="line"/>
      <point x="84" y="-10" type="line"/>
      <point x="676" y="690" type="line"/>
    </contour>
    <contour>
      <point x="328" y="70" type="line"/>
      <point x="208" y="70"/>
      <point x="140" y="166"/>
      <point x="140" y="340" type="curve" smooth="yes"/>
      <point x="140" y="514"/>
      <point x="208" y="610"/>
      <point x="328" y="610" type="curve"/>
      <point x="328" y="690" type="line"/>
      <point x="158" y="690"/>
      <point x="50" y="560"/>
      <point x="50" y="340" type="curve" smooth="yes"/>
      <point x="50" y="120"/>
      <point x="158" y="-10"/>
      <point x="328" y="-10" type="curve"/>
    </contour>
    <contour>
      <point x="328" y="610" type="line"/>
      <point x="448" y="610"/>
      <point x="516" y="514"/>
      <point x="516" y="340" type="curve" smooth="yes"/>
      <point x="516" y="166"/>
      <point x="448" y="70"/>
      <point x="328" y="70" type="curve"/>
      <point x="328" y="-10" type="line"/>
      <point x="498" y="-10"/>
      <point x="606" y="120"/>
      <point x="606" y="340" type="curve" smooth="yes"/>
      <point x="606" y="560"/>
      <point x="498" y="690"/>
      <point x="328" y="690" type="curve"/>
    </contour>
  </outline>
</glyph>
<glyph name="Thorn" format="2">
  <advance width="522"/>
  <unicode hex="00DE"/>
  <outline>
    <contour>
      <point x="60" y="0" type="line"/>
      <point x="160" y="0" type="line"/>
      <point x="160" y="681" type="line"/>
      <point x="60" y="681" type="line"/>
    </contour>
    <contour>
      <point x="141" y="142" type="line"/>
      <point x="193" y="142" type="line" smooth="yes"/>
      <point x="395" y="142"/>
      <point x="474" y="217"/>
      <point x="474" y="350" type="curve" smooth="yes"/>
      <point x="474" y="485"/>
      <point x="398" y="556"/>
      <point x="199" y="556" type="curve" smooth="yes"/>
      <point x="141" y="556" type="line"/>
      <point x="141" y="480" type="line"/>
      <point x="193" y="480" type="line" smooth="yes"/>
      <point x="340" y="480"/>
      <point x="374" y="399"/>
      <point x="374" y="350" type="curve" smooth="yes"/>
      <point x="374" y="249"/>
      <point x="322" y="218"/>
      <point x="193" y="218" type="curve" smooth="yes"/>
      <point x="141" y="218" type="line"/>
    </contour>
  </outline>
</glyph>
<glyph name="germandbls" format="2">
  <advance width="536"/>
  <unicode hex="00DF"/>
  <outline>
    <contour>
      <point x="45" y="-30" type="line"/>
      <point x="45" y="492" type="line" smooth="yes"/>
      <point x="45" y="604"/>
      <point x="116" y="700"/>
      <point x="248" y="700" type="curve" smooth="yes"/>
      <point x="378" y="700"/>
      <point x="458" y="628"/>
      <point x="458" y="518" type="curve" smooth="yes"/>
      <point x="458" y="421"/>
      <point x="391" y="387"/>
      <point x="365" y="370" type="curve"/>
      <point x="445" y="347"/>
      <point x="491" y="255"/>
      <point x="491" y="190" type="curve" smooth="yes"/>
      <point x="491" y="48"/>
      <point x="382" y="-10"/>
      <point x="239" y="-10" type="curve" smooth="yes"/>
      <point x="211" y="-10"/>
      <point x="200" y="-8"/>
      <point x="186" y="-4" type="curve"/>
      <point x="186" y="63" type="line"/>
      <point x="201" y="58"/>
      <point x="216" y="55"/>
      <point x="230" y="55" type="curve" smooth="yes"/>
      <point x="253" y="55"/>
      <point x="274" y="56"/>
      <point x="293" y="60" type="curve" smooth="yes"/>
      <point x="369" y="74"/>
      <point x="411" y="117"/>
      <point x="411" y="190" type="curve" smooth="yes"/>
      <point x="411" y="292"/>
      <point x="338" y="327"/>
      <point x="230" y="327" type="curve" smooth="yes"/>
      <point x="214" y="327" type="line"/>
      <point x="214" y="397" type="line"/>
      <point x="246" y="397"/>
      <point x="272" y="400"/>
      <point x="293" y="406" type="curve" smooth="yes"/>
      <point x="357" y="424"/>
      <point x="378" y="466"/>
      <point x="378" y="510" type="curve" smooth="yes"/>
      <point x="378" y="583"/>
      <point x="334" y="635"/>
      <point x="247" y="635" type="curve" smooth="yes"/>
      <point x="150" y="635"/>
      <point x="125" y="573"/>
      <point x="125" y="480" type="curve" smooth="yes"/>
      <point x="125" y="-30" type="line"/>
    </contour>
  </outline>
</glyph>
<glyph name="ae" format="2">
  <advance width="757"/>
  <unicode hex="00E6"/>
  <outline>
    <contour>
      <point x="411" y="290" type="curve"/>
      <point x="650" y="290" type="line"/>
      <point x="637" y="358"/>
      <point x="602" y="390"/>
      <point x="532" y="390" type="curve" smooth="yes"/>
      <point x="473" y="390"/>
      <point x="421" y="353"/>
    </contour>
    <contour>
      <point x="110" y="136" type="curve" smooth="yes"/>
      <point x="110" y="69"/>
      <point x="163" y="55"/>
      <point x="189" y="55" type="curve" smooth="yes"/>
      <point x="234" y="55"/>
      <point x="307" y="97"/>
      <point x="327" y="141" type="curve"/>
      <point x="327" y="176"/>
      <point x="326" y="211"/>
      <point x="326" y="246" type="curve"/>
      <point x="292" y="238"/>
      <point x="110" y="231"/>
    </contour>
    <contour>
      <point x="30" y="128" type="curve" smooth="yes"/>
      <point x="30" y="270"/>
      <point x="206" y="274"/>
      <point x="327" y="294" type="curve"/>
      <point x="327" y="320" type="line" smooth="yes"/>
      <point x="327" y="355"/>
      <point x="302" y="377"/>
      <point x="272" y="387" type="curve" smooth="yes"/>
      <point x="257" y="392"/>
      <point x="241" y="395"/>
      <point x="227" y="395" type="curve" smooth="yes"/>
      <point x="171" y="395"/>
      <point x="124" y="369"/>
      <point x="120" y="320" type="curve"/>
      <point x="55" y="320" type="line"/>
      <point x="57" y="339"/>
      <point x="61" y="355"/>
      <point x="67" y="369" type="curve" smooth="yes"/>
      <point x="97" y="440"/>
      <point x="175" y="460"/>
      <point x="228" y="460" type="curve" smooth="yes"/>
      <point x="243" y="460"/>
      <point x="258" y="459"/>
      <point x="272" y="457" type="curve" smooth="yes"/>
      <point x="315" y="450"/>
      <point x="352" y="432"/>
      <point x="376" y="398" type="curve"/>
      <point x="409" y="441"/>
      <point x="460" y="470"/>
      <point x="531" y="470" type="curve" smooth="yes"/>
      <point x="669" y="470"/>
      <point x="726" y="350"/>
      <point x="726" y="210" type="curve"/>
      <point x="410" y="210" type="line"/>
      <point x="414" y="169"/>
      <point x="427" y="126"/>
      <point x="455" y="99" type="curve" smooth="yes"/>
      <point x="473" y="81"/>
      <point x="498" y="70"/>
      <point x="532" y="70" type="curve" smooth="yes"/>
      <point x="576" y="70"/>
      <point x="623" y="88"/>
      <point x="646" y="114" type="curve"/>
      <point x="708" y="98" type="line"/>
      <point x="693" y="58"/>
      <point x="634" y="-10"/>
      <point x="532" y="-10" type="curve" smooth="yes"/>
      <point x="510" y="-10"/>
      <point x="492" y="-8"/>
      <point x="476" y="-5" type="curve" smooth="yes"/>
      <point x="411" y="8"/>
      <point x="386" y="45"/>
      <point x="367" y="74" type="curve"/>
      <point x="334" y="44"/>
      <point x="293" y="8"/>
      <point x="229" y="-5" type="curve" smooth="yes"/>
      <point x="213" y="-8"/>
      <point x="196" y="-10"/>
      <point x="177" y="-10" type="curve" smooth="yes"/>
      <point x="93" y="-10"/>
      <point x="30" y="43"/>
    </contour>
  </outline>
</glyph>
<glyph name="ccedilla" format="2">
  <advance width="452"/>
  <unicode hex="00E7"/>
  <outline>
    <contour>
      <point x="139" y="-167" type="line"/>
      <point x="150" y="-170"/>
      <point x="169" y="-173"/>
      <point x="187" y="-173" type="curve"/>
      <point x="189" y="-173"/>
      <point x="191" y="-173"/>
      <point x="193" y="-173" type="curve"/>
      <point x="236" y="-173"/>
      <point x="252" y="-150"/>
      <point x="252" y="-121" type="curve" smooth="yes"/>
      <point x="252" y="-85"/>
      <point x="201" y="-73"/>
      <point x="173" y="-70" type="curve"/>
      <point x="204" y="-3" type="line"/>
      <point x="265" y="-3" type="line"/>
      <point x="242" y="-49" type="line"/>
      <point x="265" y="-57"/>
      <point x="309" y="-73"/>
      <point x="309" y="-126" type="curve" smooth="yes"/>
      <point x="309" y="-180"/>
      <point x="264" y="-212"/>
      <point x="209" y="-212" type="curve" smooth="yes"/>
      <point x="176" y="-212"/>
      <point x="147" y="-202"/>
      <point x="139" y="-196" type="curve"/>
    </contour>
    <contour>
      <point x="34" y="230" type="curve" smooth="yes"/>
      <point x="34" y="348"/>
      <point x="96" y="470"/>
      <point x="234" y="470" type="curve" smooth="yes"/>
      <point x="328" y="470"/>
      <point x="399" y="420"/>
      <point x="415" y="334" type="curve"/>
      <point x="338" y="333" type="line"/>
      <point x="315" y="369"/>
      <point x="279" y="390"/>
      <point x="233" y="390" type="curve" smooth="yes"/>
      <point x="164" y="390"/>
      <point x="113" y="328"/>
      <point x="113" y="230" type="curve" smooth="yes"/>
      <point x="113" y="156"/>
      <point x="148" y="70"/>
      <point x="233" y="70" type="curve" smooth="yes"/>
      <point x="273" y="70"/>
      <point x="303" y="88"/>
      <point x="324" y="114" type="curve"/>
      <point x="416" y="114" type="line"/>
      <point x="377" y="48"/>
      <point x="331" y="-10"/>
      <point x="234" y="-10" type="curve" smooth="yes"/>
      <point x="86" y="-10"/>
      <point x="34" y="122"/>
    </contour>
  </outline>
</glyph>
<glyph name="eacute" format="2">
  <advance width="518"/>
  <unicode hex="00E9"/>
  <outline>
    <component base="e"/>
    <contour>
      <point x="210" y="520" type="line"/>
      <point x="260" y="680" type="line"/>
      <point x="340" y="680" type="line"/>
      <point x="274" y="520" type="line"/>
    </contour>
  </outline>
</glyph>
<glyph name="eth" format="2">
  <advance width="528"/>
  <unicode hex="00F0"/>
  <outline>
    <contour>
      <point x="132" y="628" type="line"/>
      <point x="299" y="554"/>
      <point x="382" y="421"/>
      <point x="382" y="219" type="curve"/>
      <point x="474" y="219" type="line"/>
      <point x="474" y="438"/>
      <point x="364" y="615"/>
      <point x="185" y="693" type="curve"/>
    </contour>
    <contour>
      <point x="196" y="502" type="line"/>
      <point x="437" y="603" type="line"/>
      <point x="399" y="651" type="line"/>
      <point x="158" y="550" type="line"/>
    </contour>
    <contour>
      <point x="40" y="215" type="curve" smooth="yes"/>
      <point x="40" y="83"/>
      <point x="131" y="-12"/>
      <point x="257" y="-12" type="curve" smooth="yes"/>
      <point x="383" y="-12"/>
      <point x="474" y="83"/>
      <point x="474" y="215" type="curve" smooth="yes"/>
      <point x="474" y="350"/>
      <point x="381" y="452"/>
      <point x="257" y="452" type="curve" smooth="yes"/>
      <point x="133" y="452"/>
      <point x="40" y="350"/>
    </contour>
    <contour>
      <point x="132" y="215" type="curve" smooth="yes"/>
      <point x="132" y="312"/>
      <point x="182" y="376"/>
      <point x="257" y="376" type="curve" smooth="yes"/>
      <point x="332" y="376"/>
      <point x="382" y="312"/>
      <point x="382" y="215" type="curve" smooth="yes"/>
      <point x="382" y="122"/>
      <point x="335" y="64"/>
      <point x="257" y="64" type="curve" smooth="yes"/>
      <point x="179" y="64"/>
      <point x="132" y="122"/>
    </contour>
  </outline>
  <guideline angle="51.3402" x="174" y="680"/>
  <guideline angle="128.157" x="179" y="523"/>
  <guideline angle="128.157" x="420" y="624"/>
  <guideline angle="22.7379" x="179" y="523"/>
</glyph>
<glyph name="ntilde" format="2">
  <advance width="478"/>
  <unicode hex="00F1"/>
  <outline>
    <component base="tilde" xOffset="36"/>
    <contour>
      <point x="45" y="0" type="line"/>
      <point x="45" y="460" type="line"/>
      <point x="104" y="460" type="line"/>
      <point x="124" y="360" type="line"/>
      <point x="124" y="0" type="line"/>
    </contour>
  </outline>
</glyph>
<glyph name="oacute" format="2">
  <advance width="480"/>
  <unicode hex="00F3"/>
  <outline>
    <component base="uni043E"/>
    <contour>
      <point x="208" y="520" type="line"/>
      <point x="258" y="680" type="line"/>
      <point x="338" y="680" type="line"/>
      <point x="272" y="520" type="line"/>
    </contour>
  </outline>
</glyph>
<glyph name="divide" format="2">
  <advance width="502"/>
  <unicode hex="00F7"/>
  <outline>
    <contour>
      <point x="206" y="54" type="line"/>
      <point x="296" y="54" type="line"/>
      <point x="296" y="144" type="line"/>
      <point x="206" y="144" type="line"/>
    </contour>
    <contour>
      <point x="40" y="206" type="line"/>
      <point x="462" y="206" type="line"/>
      <point x="462" y="282" type="line"/>
      <point x="40" y="282" type="line"/>
    </contour>
    <contour>
      <point x="206" y="344" type="line"/>
      <point x="296" y="344" type="line"/>
      <point x="296" y="434" type="line"/>
      <point x="206" y="434" type="line"/>
    </contour>
  </outline>
  <guideline angle="90" x="251" y="0"/>
</glyph>
<glyph name="oslash" format="2">
  <advance width="588"/>
  <unicode hex="00F8"/>
  <outline>
    <component base="o" xOffset="34"/>
    <contour>
      <point x="40" y="0" type="line"/>
      <point x="132" y="0" type="line"/>
      <point x="548" y="460" type="line"/>
      <point x="456" y="460" type="line"/>
    </contour>
  </outline>
</glyph>
<glyph name="uacute" format="2">
  <advance width="478"/>
  <unicode hex="00FA"/>
  <outline>
    <component base="u"/>
    <contour>
      <point x="207" y="520" type="line"/>
      <point x="257" y="680" type="line"/>
      <point x="337" y="680" type="line"/>
      <point x="271" y="520" type="line"/>
    </contour>
  </outline>
</glyph>
<glyph name="Aogonek" format="2">
  <advance width="560"/>
  <unicode hex="0104"/>
  <outline>
    <contour>
      <point x="20" y="0" type="line"/>
      <point x="230" y="700" type="line"/>
      <point x="330" y="700" type="line"/>
      <point x="540" y="0" type="line"/>
      <point x="450" y="0" type="line"/>
      <point x="370" y="282" type="line"/>
      <point x="190" y="282" type="line"/>
      <point x="110" y="0" type="line"/>
    </contour>
    <contour>
      <point x="210" y="372" type="line"/>
      <point x="350" y="372" type="line"/>
      <point x="280" y="610" type="line"/>
    </contour>
    <contour>
      <point x="371" y="-124" type="curve" smooth="yes"/>
      <point x="371" y="-70"/>
      <point x="408" y="-25"/>
      <point x="442" y="0" type="curve"/>
      <point x="500" y="0" type="line"/>
      <point x="459" y="-31"/>
      <point x="432" y="-69"/>
      <point x="432" y="-108" type="curve" smooth="yes"/>
      <point x="432" y="-130"/>
      <point x="444" y="-145"/>
      <point x="461" y="-151" type="curve"/>
      <point x="466" y="-153"/>
      <point x="472" y="-154"/>
      <point x="478" y="-154" type="curve" smooth="yes"/>
      <point x="492" y="-154"/>
      <point x="507" y="-149"/>
      <point x="518" y="-141" type="curve"/>
      <point x="540" y="-182" type="line"/>
      <point x="527" y="-191" type="line"/>
      <point x="508" y="-202"/>
      <point x="481" y="-209"/>
      <point x="461" y="-209" type="curve" smooth="yes"/>
      <point x="411" y="-209"/>
      <point x="371" y="-180"/>
    </contour>
  </outline>
</glyph>
<glyph name="aogonek" format="2">
  <advance width="493"/>
  <unicode hex="0105"/>
  <outline>
    <contour>
      <point x="45" y="128" type="curve" smooth="yes"/>
      <point x="45" y="279"/>
      <point x="252" y="269"/>
      <point x="342" y="294" type="curve"/>
      <point x="342" y="330" type="line" smooth="yes"/>
      <point x="342" y="383"/>
      <point x="284" y="405"/>
      <point x="242" y="405" type="curve" smooth="yes"/>
      <point x="187" y="405"/>
      <point x="139" y="378"/>
      <point x="135" y="330" type="curve"/>
      <point x="70" y="330" type="line"/>
      <point x="77" y="417"/>
      <point x="154" y="470"/>
      <point x="243" y="470" type="curve" smooth="yes"/>
      <point x="340" y="470"/>
      <point x="423" y="432"/>
      <point x="423" y="319" type="curve"/>
      <point x="422" y="86" type="line"/>
      <point x="422" y="54"/>
      <point x="439" y="26"/>
      <point x="463" y="0" type="curve"/>
      <point x="373" y="0" type="line"/>
      <point x="354" y="26"/>
      <point x="349" y="34"/>
      <point x="342" y="74" type="curve"/>
      <point x="310" y="37"/>
      <point x="267" y="-10"/>
      <point x="192" y="-10" type="curve" smooth="yes"/>
      <point x="108" y="-10"/>
      <point x="45" y="43"/>
    </contour>
    <contour>
      <point x="125" y="126" type="curve" smooth="yes"/>
      <point x="125" y="77"/>
      <point x="165" y="60"/>
      <point x="204" y="60" type="curve" smooth="yes"/>
      <point x="248" y="60"/>
      <point x="326" y="116"/>
      <point x="342" y="141" type="curve"/>
      <point x="342" y="245" type="line"/>
      <point x="289" y="219"/>
      <point x="125" y="231"/>
    </contour>
    <contour>
      <point x="294" y="-124" type="curve" smooth="yes"/>
      <point x="294" y="-70"/>
      <point x="331" y="-25"/>
      <point x="365" y="0" type="curve"/>
      <point x="423" y="0" type="line"/>
      <point x="382" y="-31"/>
      <point x="355" y="-69"/>
      <point x="355" y="-108" type="curve" smooth="yes"/>
      <point x="355" y="-130"/>
      <point x="367" y="-145"/>
      <point x="384" y="-151" type="curve"/>
      <point x="389" y="-153"/>
      <point x="395" y="-154"/>
      <point x="401" y="-154" type="curve" smooth="yes"/>
      <point x="415" y="-154"/>
      <point x="430" y="-149"/>
      <point x="441" y="-141" type="curve"/>
      <point x="463" y="-182" type="line"/>
      <point x="450" y="-191" type="line"/>
      <point x="431" y="-202"/>
      <point x="404" y="-209"/>
      <point x="384" y="-209" type="curve" smooth="yes"/>
      <point x="334" y="-209"/>
      <point x="294" y="-180"/>
    </contour>
  </outline>
</glyph>
<glyph name="Dcroat" format="2">
  <advance width="705"/>
  <unicode hex="0110"/>
  <outline>
    <contour>
      <point x="190" y="80" type="line"/>
      <point x="378" y="80" type="line" smooth="yes"/>
      <point x="528" y="80"/>
      <point x="570" y="241"/>
      <point x="570" y="350" type="curve" smooth="yes"/>
      <point x="570" y="498"/>
      <point x="527" y="620"/>
      <point x="378" y="620" type="curve" smooth="yes"/>
      <point x="190" y="620" type="line"/>
      <point x="190" y="400" type="line"/>
      <point x="240" y="400" type="line"/>
      <point x="240" y="320" type="line"/>
      <point x="190" y="320" type="line"/>
    </contour>
    <contour>
      <point x="20" y="320" type="line"/>
      <point x="20" y="400" type="line"/>
      <point x="100" y="400" type="line"/>
      <point x="100" y="700" type="line"/>
      <point x="378" y="700" type="line" smooth="yes"/>
      <point x="568" y="700"/>
      <point x="660" y="550"/>
      <point x="660" y="350" type="curve" smooth="yes"/>
      <point x="660" y="147"/>
      <point x="569" y="0"/>
      <point x="378" y="0" type="curve" smooth="yes"/>
      <point x="100" y="0" type="line"/>
      <point x="100" y="320" type="line"/>
    </contour>
  </outline>
</glyph>
<glyph name="dcroat" format="2">
  <advance width="491"/>
  <unicode hex="0111"/>
  <outline>
    <component base="d"/>
    <contour>
      <point x="250" y="530" type="line"/>
      <point x="250" y="610" type="line"/>
      <point x="490" y="610" type="line"/>
      <point x="490" y="530" type="line"/>
    </contour>
  </outline>
</glyph>
<glyph name="gcommaaccent" format="2">
  <advance width="491"/>
  <unicode hex="0123"/>
  <outline>
    <contour>
      <point x="185" y="520" type="line"/>
      <point x="185" y="600" type="line"/>
      <point x="231" y="730" type="line"/>
      <point x="265" y="730" type="line"/>
      <point x="243" y="600" type="line"/>
      <point x="265" y="600" type="line"/>
      <point x="265" y="520" type="line"/>
    </contour>
    <contour>
      <point x="115" y="230" type="curve" smooth="yes"/>
      <point x="115" y="155"/>
      <point x="141" y="55"/>
      <point x="245" y="55" type="curve" smooth="yes"/>
      <point x="330" y="55"/>
      <point x="366" y="138"/>
      <point x="366" y="210" type="curve" smooth="yes"/>
      <point x="366" y="245" type="line" smooth="yes"/>
      <point x="366" y="347"/>
      <point x="310" y="405"/>
      <point x="245" y="405" type="curve" smooth="yes"/>
      <point x="156" y="405"/>
      <point x="115" y="337"/>
    </contour>
    <contour>
      <point x="35" y="230" type="line"/>
      <point x="35" y="355"/>
      <point x="96" y="470"/>
      <point x="225" y="470" type="curve" smooth="yes"/>
      <point x="283" y="470"/>
      <point x="343" y="439"/>
      <point x="366" y="388" type="curve"/>
      <point x="366" y="459" type="line"/>
      <point x="446" y="459" type="line"/>
      <point x="446" y="17" type="line" smooth="yes"/>
      <point x="446" y="-148"/>
      <point x="368" y="-200"/>
      <point x="257" y="-200" type="curve" smooth="yes"/>
      <point x="131" y="-200"/>
      <point x="83" y="-119"/>
      <point x="71" y="-74" type="curve"/>
      <point x="154" y="-60" type="line"/>
      <point x="172" y="-107"/>
      <point x="220" y="-122"/>
      <point x="254" y="-122" type="curve" smooth="yes"/>
      <point x="257" y="-122"/>
      <point x="260" y="-122"/>
      <point x="263" y="-122" type="curve"/>
      <point x="320" y="-116"/>
      <point x="366" y="-85"/>
      <point x="366" y="17" type="curve" smooth="yes"/>
      <point x="366" y="79" type="line"/>
      <point x="338" y="23"/>
      <point x="285" y="-11"/>
      <point x="226" y="-11" type="curve" smooth="yes"/>
      <point x="97" y="-11"/>
      <point x="36" y="105"/>
      <point x="36" y="229" type="curve"/>
    </contour>
  </outline>
</glyph>
<glyph name="Hbar" format="2">
  <advance width="608"/>
  <unicode hex="0126"/>
  <anchor x="304" y="-40" name="bottom"/>
  <anchor x="469" y="0" name="b.cedilla"/>
  <outline>
    <component base="H"/>
    <contour>
      <point x="20" y="520" type="line"/>
      <point x="588" y="520" type="line"/>
      <point x="588" y="600" type="line"/>
      <point x="20" y="600" type="line"/>
    </contour>
  </outline>
</glyph>
<glyph name="hbar" format="2">
  <advance width="478"/>
  <unicode hex="0127"/>
  <outline>
    <contour>
      <point x="15" y="530" type="line"/>
      <point x="15" y="610" type="line"/>
      <point x="305" y="610" type="line"/>
      <point x="305" y="530" type="line"/>
    </contour>
    <contour>
      <point x="70" y="0" type="line"/>
      <point x="70" y="700" type="line"/>
      <point x="150" y="700" type="line"/>
      <point x="150" y="0" type="line"/>
    </contour>
    <contour>
      <point x="314" y="471" type="curve" smooth="yes"/>
      <point x="463" y="471"/>
      <point x="469" y="362"/>
      <point x="469" y="295" type="curve" smooth="yes"/>
      <point x="469" y="0" type="line"/>
      <point x="389" y="0" type="line"/>
      <point x="389" y="295" type="line" smooth="yes"/>
      <point x="389" y="339"/>
      <point x="380" y="406"/>
      <point x="292" y="406" type="curve" smooth="yes"/>
      <point x="236" y="406"/>
      <point x="150" y="350"/>
      <point x="150" y="250" type="curve"/>
      <point x="111" y="250" type="line"/>
      <point x="111" y="351" type="line"/>
      <point x="155" y="351" type="line"/>
      <point x="130" y="338" type="line"/>
      <point x="166" y="394"/>
      <point x="217" y="471"/>
    </contour>
  </outline>
</glyph>
<glyph name="Imacron" format="2">
  <advance width="190"/>
  <unicode hex="012A"/>
  <outline>
    <component base="I" xOffset="-10"/>
    <contour>
      <point x="-40" y="750" type="line"/>
      <point x="-40" y="820" type="line"/>
      <point x="230" y="820" type="line"/>
      <point x="230" y="750" type="line"/>
    </contour>
  </outline>
</glyph>
<glyph name="dotlessi" format="2">
  <advance width="240"/>
  <unicode hex="0131"/>
  <anchor x="120" y="540" name="top"/>
  <outline>
    <contour>
      <point x="80" y="0" type="line"/>
      <point x="80" y="460" type="line"/>
      <point x="160" y="460" type="line"/>
      <point x="160" y="0" type="line"/>
    </contour>
  </outline>
  <guideline angle="0" x="0" y="540"/>
</glyph>
<glyph name="kcommaaccent" format="2">
  <advance width="422"/>
  <unicode hex="0137"/>
  <outline>
    <contour>
      <point x="183" y="-60" type="curve"/>
      <point x="263" y="-60" type="line"/>
      <point x="263" y="-140" type="line"/>
      <point x="217" y="-270" type="line"/>
      <point x="183" y="-270" type="line"/>
      <point x="205" y="-140" type="line"/>
      <point x="183" y="-140" type="line"/>
      <point x="183" y="-113"/>
      <point x="183" y="-87"/>
    </contour>
    <contour>
      <point x="44" y="0" type="line"/>
      <point x="44" y="233"/>
      <point x="44" y="467"/>
      <point x="44" y="700" type="curve"/>
      <point x="124" y="700" type="line"/>
      <point x="124" y="290" type="line"/>
      <point x="156" y="300" type="line"/>
      <point x="281" y="460" type="line"/>
      <point x="381" y="460" type="line"/>
      <point x="228" y="266" type="line"/>
      <point x="401" y="0" type="line"/>
      <point x="301" y="0" type="line"/>
      <point x="156" y="220" type="line"/>
      <point x="124" y="210" type="line"/>
      <point x="124" y="0" type="line"/>
    </contour>
  </outline>
</glyph>
<glyph name="kgreenlandic" format="2">
  <advance width="463"/>
  <unicode hex="0138"/>
  <outline>
    <contour>
      <point x="66" y="0" type="line"/>
      <point x="158" y="0" type="line"/>
      <point x="158" y="460" type="line"/>
      <point x="66" y="444" type="line"/>
    </contour>
    <contour>
      <point x="145" y="119" type="line"/>
      <point x="422" y="460" type="line"/>
      <point x="307" y="460" type="line"/>
      <point x="145" y="255" type="line"/>
    </contour>
    <contour>
      <point x="179" y="227" type="line"/>
      <point x="330" y="0" type="line"/>
      <point x="444" y="0" type="line"/>
      <point x="243" y="306" type="line"/>
    </contour>
  </outline>
</glyph>
<glyph name="lacute" format="2">
  <advance width="220"/>
  <unicode hex="013A"/>
  <outline>
    <contour>
      <point x="48" y="760" type="line"/>
      <point x="98" y="940" type="line"/>
      <point x="178" y="940" type="line"/>
      <point x="112" y="760" type="line"/>
    </contour>
    <contour>
      <point x="70" y="0" type="line"/>
      <point x="70" y="700" type="line"/>
      <point x="150" y="700" type="line"/>
      <point x="150" y="0" type="line"/>
    </contour>
  </outline>
</glyph>
<glyph name="Lslash" format="2">
  <advance width="506"/>
  <unicode hex="0141"/>
  <outline>
    <contour>
      <point x="11" y="217" type="line"/>
      <point x="11" y="305" type="line"/>
      <point x="260" y="521" type="line"/>
      <point x="260" y="433" type="line"/>
    </contour>
    <contour>
      <point x="130" y="80" type="line"/>
      <point x="470" y="80" type="line"/>
      <point x="470" y="0" type="line"/>
      <point x="130" y="0" type="line"/>
    </contour>
    <contour>
      <point x="60" y="0" type="line"/>
      <point x="60" y="680" type="line"/>
      <point x="150" y="680" type="line"/>
      <point x="150" y="0" type="line"/>
    </contour>
  </outline>
</glyph>
<glyph name="lslash" format="2">
  <advance width="220"/>
  <unicode hex="0142"/>
  <outline>
    <component base="l"/>
    <contour>
      <point x="11" y="217" type="line"/>
      <point x="11" y="305" type="line"/>
      <point x="260" y="521" type="line"/>
      <point x="260" y="433" type="line"/>
    </contour>
  </outline>
</glyph>
<glyph name="Nacute" format="2">
  <advance width="600"/>
  <unicode hex="0143"/>
  <outline>
    <component base="N" xOffset="-50"/>
    <contour>
      <point x="268" y="750" type="line"/>
      <point x="318" y="910" type="line"/>
      <point x="398" y="910" type="line"/>
      <point x="332" y="750" type="line"/>
    </contour>
  </outline>
</glyph>
<glyph name="nacute" format="2">
  <advance width="478"/>
  <unicode hex="0144"/>
  <outline>
    <contour>
      <point x="207" y="520" type="line"/>
      <point x="257" y="680" type="line"/>
      <point x="337" y="680" type="line"/>
      <point x="271" y="520" type="line"/>
    </contour>
    <contour>
      <point x="45" y="0" type="line"/>
      <point x="45" y="460" type="line"/>
      <point x="104" y="460" type="line"/>
      <point x="124" y="360" type="line"/>
      <point x="124" y="0" type="line"/>
    </contour>
  </outline>
</glyph>
<glyph name="Ncaron" format="2">
  <advance width="560"/>
  <unicode hex="0147"/>
  <outline>
    <contour>
      <point x="120" y="950" type="line"/>
      <point x="184" y="950" type="line"/>
      <point x="280" y="823" type="line"/>
      <point x="376" y="950" type="line"/>
      <point x="440" y="950" type="line"/>
      <point x="320" y="770" type="line"/>
      <point x="240" y="770" type="line"/>
    </contour>
    <contour>
      <point x="50" y="0" type="line"/>
      <point x="50" y="700" type="line"/>
      <point x="190" y="700" type="line"/>
      <point x="420" y="105" type="line"/>
      <point x="420" y="700" type="line"/>
      <point x="510" y="700" type="line"/>
      <point x="510" y="0" type="line"/>
      <point x="370" y="0" type="line"/>
      <point x="140" y="597" type="line"/>
      <point x="140" y="0" type="line"/>
    </contour>
  </outline>
</glyph>
<glyph name="ncaron" format="2">
  <advance width="478"/>
  <unicode hex="0148"/>
  <outline>
    <component base="caron" xOffset="69"/>
    <contour>
      <point x="45" y="0" type="line"/>
      <point x="45" y="460" type="line"/>
      <point x="104" y="460" type="line"/>
      <point x="124" y="360" type="line"/>
      <point x="124" y="0" type="line"/>
    </contour>
  </outline>
</glyph>
<glyph name="eng" format="2">
  <advance width="478"/>
  <unicode hex="014B"/>
  <outline>
    <contour>
      <point x="308" y="-120" type="line"/>
      <point x="357" y="-120"/>
      <point x="378" y="-92"/>
      <point x="378" y="-30" type="curve" smooth="yes"/>
      <point x="378" y="92" type="line"/>
      <point x="458" y="92" type="line"/>
      <point x="458" y="-62" type="line" smooth="yes"/>
      <point x="458" y="-144"/>
      <point x="396" y="-200"/>
      <point x="328" y="-200" type="curve" smooth="yes"/>
      <point x="308" y="-200" type="line"/>
    </contour>
    <contour>
      <point x="70" y="0" type="line"/>
      <point x="70" y="460" type="line"/>
      <point x="129" y="460" type="line"/>
      <point x="149" y="360" type="line"/>
      <point x="149" y="0" type="line"/>
    </contour>
    <contour>
      <point x="303" y="470" type="curve" smooth="yes"/>
      <point x="452" y="470"/>
      <point x="458" y="362"/>
      <point x="458" y="295" type="curve" smooth="yes"/>
      <point x="458" y="0" type="line"/>
      <point x="378" y="0" type="line"/>
      <point x="378" y="295" type="line" smooth="yes"/>
      <point x="378" y="339"/>
      <point x="369" y="405"/>
      <point x="281" y="405" type="curve" smooth="yes"/>
      <point x="225" y="405"/>
      <point x="139" y="350"/>
      <point x="139" y="250" type="curve"/>
      <point x="100" y="250" type="line"/>
      <point x="100" y="351" type="line"/>
      <point x="144" y="351" type="line"/>
      <point x="119" y="338" type="line"/>
      <point x="155" y="394"/>
      <point x="206" y="470"/>
    </contour>
  </outline>
</glyph>
<glyph name="OE" format="2">
  <advance width="966"/>
  <unicode hex="0152"/>
  <outline>
    <contour>
      <point x="328" y="-10" type="line"/>
      <point x="158" y="-10"/>
      <point x="50" y="120"/>
      <point x="50" y="340" type="curve" smooth="yes"/>
      <point x="50" y="560"/>
      <point x="158" y="690"/>
      <point x="328" y="690" type="curve"/>
      <point x="328" y="610" type="line"/>
      <point x="208" y="610"/>
      <point x="140" y="514"/>
      <point x="140" y="340" type="curve" smooth="yes"/>
      <point x="140" y="166"/>
      <point x="208" y="70"/>
      <point x="328" y="70" type="curve"/>
    </contour>
    <contour>
      <point x="516" y="0" type="line"/>
      <point x="516" y="680" type="line"/>
      <point x="606" y="680" type="line"/>
      <point x="606" y="0" type="line"/>
    </contour>
    <contour>
      <point x="566" y="80" type="line"/>
      <point x="916" y="80" type="line"/>
      <point x="916" y="0" type="line"/>
      <point x="566" y="0" type="line"/>
    </contour>
    <contour>
      <point x="566" y="680" type="line"/>
      <point x="916" y="680" type="line"/>
      <point x="916" y="600" type="line"/>
      <point x="566" y="600" type="line"/>
    </contour>
    <contour>
      <point x="566" y="387" type="line"/>
      <point x="876" y="387" type="line"/>
      <point x="876" y="307" type="line"/>
      <point x="566" y="307" type="line"/>
    </contour>
    <contour>
      <point x="328" y="70" type="line"/>
      <point x="448" y="70"/>
      <point x="516" y="162"/>
      <point x="516" y="330" type="curve"/>
      <point x="576" y="310" type="line"/>
      <point x="576" y="109"/>
      <point x="480" y="-10"/>
      <point x="328" y="-10" type="curve"/>
    </contour>
    <contour>
      <point x="516" y="350" type="line"/>
      <point x="516" y="518"/>
      <point x="448" y="610"/>
      <point x="328" y="610" type="curve"/>
      <point x="328" y="690" type="line"/>
      <point x="480" y="690"/>
      <point x="576" y="571"/>
      <point x="576" y="370" type="curve"/>
    </contour>
  </outline>
</glyph>
<glyph name="oe" format="2">
  <advance width="801"/>
  <unicode hex="0153"/>
  <outline>
    <contour>
      <point x="115" y="230" type="curve" smooth="yes"/>
      <point x="115" y="109"/>
      <point x="170" y="55"/>
      <point x="240" y="55" type="curve" smooth="yes"/>
      <point x="312" y="55"/>
      <point x="365" y="105"/>
      <point x="365" y="230" type="curve" smooth="yes"/>
      <point x="365" y="357"/>
      <point x="311" y="405"/>
      <point x="240" y="405" type="curve" smooth="yes"/>
      <point x="169" y="405"/>
      <point x="115" y="357"/>
    </contour>
    <contour>
      <point x="450" y="290" type="curve"/>
      <point x="689" y="290" type="line"/>
      <point x="676" y="358"/>
      <point x="641" y="390"/>
      <point x="571" y="390" type="curve" smooth="yes"/>
      <point x="512" y="390"/>
      <point x="460" y="353"/>
    </contour>
    <contour>
      <point x="33" y="231" type="curve" smooth="yes"/>
      <point x="33" y="369"/>
      <point x="97" y="471"/>
      <point x="238" y="471" type="curve" smooth="yes"/>
      <point x="317" y="471"/>
      <point x="372" y="439"/>
      <point x="405" y="386" type="curve"/>
      <point x="438" y="435"/>
      <point x="492" y="470"/>
      <point x="570" y="470" type="curve" smooth="yes"/>
      <point x="709" y="470"/>
      <point x="765" y="350"/>
      <point x="765" y="210" type="curve"/>
      <point x="449" y="210" type="line"/>
      <point x="454" y="158"/>
      <point x="473" y="105"/>
      <point x="517" y="82" type="curve" smooth="yes"/>
      <point x="532" y="74"/>
      <point x="550" y="70"/>
      <point x="571" y="70" type="curve" smooth="yes"/>
      <point x="615" y="70"/>
      <point x="662" y="88"/>
      <point x="685" y="114" type="curve"/>
      <point x="746" y="100" type="line"/>
      <point x="729" y="58"/>
      <point x="671" y="-8"/>
      <point x="570" y="-8" type="curve" smooth="yes"/>
      <point x="489" y="-8"/>
      <point x="436" y="28"/>
      <point x="404" y="79" type="curve"/>
      <point x="370" y="25"/>
      <point x="314" y="-9"/>
      <point x="238" y="-9" type="curve" smooth="yes"/>
      <point x="86" y="-9"/>
      <point x="33" y="103"/>
    </contour>
  </outline>
</glyph>
<glyph name="Rcommaaccent" format="2">
  <advance width="580"/>
  <unicode hex="0156"/>
  <outline>
    <component base="uni0326" xOffset="370"/>
    <contour>
      <point x="242" y="300" type="line"/>
      <point x="410" y="0" type="line"/>
      <point x="520" y="0" type="line"/>
      <point x="352" y="300" type="line"/>
    </contour>
  </outline>
</glyph>
<glyph name="Rcaron" format="2">
  <advance width="580"/>
  <unicode hex="0158"/>
  <outline>
    <component base="caron" xOffset="90" yOffset="230"/>
    <contour>
      <point x="242" y="300" type="line"/>
      <point x="410" y="0" type="line"/>
      <point x="520" y="0" type="line"/>
      <point x="352" y="300" type="line"/>
    </contour>
  </outline>
</glyph>
<glyph name="Sacute" format="2">
  <advance width="582"/>
  <unicode hex="015A"/>
  <outline>
    <component base="S" xOffset="1"/>
    <contour>
      <point x="258" y="750" type="line"/>
      <point x="308" y="910" type="line"/>
      <point x="388" y="910" type="line"/>
      <point x="322" y="750" type="line"/>
    </contour>
  </outline>
</glyph>
<glyph name="sacute" format="2">
  <advance width="452"/>
  <unicode hex="015B"/>
  <outline>
    <component base="s"/>
    <contour>
      <point x="178" y="520" type="line"/>
      <point x="228" y="680" type="line"/>
      <point x="308" y="680" type="line"/>
      <point x="242" y="520" type="line"/>
    </contour>
  </outline>
</glyph>
<glyph name="Tbar" format="2">
  <advance width="480"/>
  <unicode hex="0166"/>
  <outline>
    <contour>
      <point x="50" y="310" type="line"/>
      <point x="50" y="390" type="line"/>
      <point x="430" y="390" type="line"/>
      <point x="430" y="310" type="line"/>
    </contour>
    <contour>
      <point x="10" y="600" type="line"/>
      <point x="10" y="680" type="line"/>
      <point x="470" y="680" type="line"/>
      <point x="470" y="600" type="line"/>
    </contour>
    <contour>
      <point x="195" y="0" type="line"/>
      <point x="195" y="680" type="line"/>
      <point x="285" y="680" type="line"/>
      <point x="285" y="0" type="line"/>
    </contour>
  </outline>
</glyph>
<glyph name="tbar" format="2">
  <advance width="325"/>
  <unicode hex="0167"/>
  <outline>
    <contour>
      <point x="30" y="233" type="line"/>
      <point x="281" y="233" type="line"/>
      <point x="281" y="313" type="line"/>
      <point x="30" y="313" type="line"/>
    </contour>
    <contour>
      <point x="30" y="380" type="line"/>
      <point x="281" y="380" type="line"/>
      <point x="281" y="460" type="line"/>
      <point x="112" y="460" type="line"/>
      <point x="30" y="440" type="line"/>
    </contour>
    <contour>
      <point x="105" y="180" type="line" smooth="yes"/>
      <point x="105" y="44"/>
      <point x="129" y="-9"/>
      <point x="279" y="-9" type="curve" smooth="yes"/>
      <point x="312" y="-9" type="line"/>
      <point x="312" y="63" type="line"/>
      <point x="278" y="63" type="line" smooth="yes"/>
      <point x="209" y="63"/>
      <point x="197" y="90"/>
      <point x="197" y="188" type="curve" smooth="yes"/>
      <point x="197" y="610" type="line"/>
      <point x="125" y="610" type="line"/>
      <point x="111" y="453" type="line"/>
      <point x="105" y="453" type="line"/>
    </contour>
  </outline>
</glyph>
<glyph name="zdotaccent" format="2">
  <advance width="450"/>
  <unicode hex="017C"/>
  <outline>
    <contour>
      <point x="40" y="0" type="line"/>
      <point x="40" y="65" type="line"/>
      <point x="310" y="395" type="line"/>
      <point x="40" y="395" type="line"/>
      <point x="40" y="460" type="line"/>
      <point x="410" y="460" type="line"/>
      <point x="410" y="395" type="line"/>
      <point x="150" y="65" type="line"/>
      <point x="410" y="65" type="line"/>
      <point x="410" y="0" type="line"/>
    </contour>
    <contour>
      <point x="185" y="520" type="line"/>
      <point x="185" y="600" type="line"/>
      <point x="265" y="600" type="line"/>
      <point x="265" y="520" type="line"/>
    </contour>
  </outline>
</glyph>
<glyph name="longs" format="2">
  <advance width="272"/>
  <unicode hex="017F"/>
  <anchor x="141" y="740" name="top"/>
  <outline>
    <contour>
      <point x="80" y="0" type="line"/>
      <point x="172" y="0" type="line"/>
      <point x="172" y="552" type="line" smooth="yes"/>
      <point x="172" y="594"/>
      <point x="193" y="620"/>
      <point x="224" y="620" type="curve" smooth="yes"/>
      <point x="278" y="620" type="line"/>
      <point x="278" y="700" type="line"/>
      <point x="224" y="700" type="line" smooth="yes"/>
      <point x="130" y="700"/>
      <point x="80" y="651"/>
      <point x="80" y="560" type="curve" smooth="yes"/>
    </contour>
    <contour>
      <point x="5" y="380" type="line"/>
      <point x="116" y="380" type="line"/>
      <point x="116" y="460" type="line"/>
      <point x="5" y="460" type="line"/>
    </contour>
  </outline>
</glyph>
<glyph name="Schwa" format="2">
  <advance width="658"/>
  <unicode hex="018F"/>
  <outline>
    <contour>
      <point x="48" y="361" type="line"/>
      <point x="48" y="113"/>
      <point x="149" y="-12"/>
      <point x="327" y="-12" type="curve" smooth="yes"/>
      <point x="494" y="-12"/>
      <point x="610" y="122"/>
      <point x="610" y="340" type="curve" smooth="yes"/>
      <point x="610" y="561"/>
      <point x="500" y="692"/>
      <point x="327" y="692" type="curve" smooth="yes"/>
      <point x="193" y="692"/>
      <point x="96" y="613"/>
      <point x="60" y="473" type="curve"/>
      <point x="163" y="473" type="line"/>
      <point x="190" y="557"/>
      <point x="246" y="602"/>
      <point x="327" y="602" type="curve" smooth="yes"/>
      <point x="443" y="602"/>
      <point x="509" y="508"/>
      <point x="509" y="340" type="curve" smooth="yes"/>
      <point x="509" y="173"/>
      <point x="443" y="78"/>
      <point x="327" y="78" type="curve" smooth="yes"/>
      <point x="213" y="78"/>
      <point x="149" y="164"/>
      <point x="149" y="361" type="curve"/>
    </contour>
    <contour>
      <point x="89" y="273" type="line"/>
      <point x="560" y="273" type="line"/>
      <point x="560" y="361" type="line"/>
      <point x="89" y="361" type="line"/>
    </contour>
  </outline>
  <guideline angle="0" x="0" y="473"/>
</glyph>
<glyph name="florin" format="2">
  <advance width="416"/>
  <unicode hex="0192"/>
  <outline>
    <contour>
      <point x="-80" y="-176" type="line"/>
      <point x="-24" y="-187"/>
      <point x="11" y="-187"/>
      <point x="17" y="-187" type="curve" smooth="yes"/>
      <point x="95.1385" y="-187"/>
      <point x="115.518" y="-137.579"/>
      <point x="136" y="-44" type="curve" smooth="yes"/>
      <point x="267.104" y="555" type="line" smooth="yes"/>
      <point x="276.096" y="596.084"/>
      <point x="297.306" y="628"/>
      <point x="329.738" y="628" type="curve" smooth="yes"/>
      <point x="342.104" y="628"/>
      <point x="361.506" y="623.579"/>
      <point x="380.104" y="618" type="curve" smooth="yes"/>
      <point x="390.104" y="615" type="line"/>
      <point x="405.104" y="683" type="line"/>
      <point x="397.104" y="686" type="line" smooth="yes"/>
      <point x="373.104" y="695"/>
      <point x="347.104" y="700"/>
      <point x="312.104" y="700" type="curve" smooth="yes"/>
      <point x="251.076" y="700"/>
      <point x="204.494" y="647.817"/>
      <point x="188.104" y="571" type="curve" smooth="yes"/>
      <point x="62" y="-20" type="line" smooth="yes"/>
      <point x="45.4635" y="-97.5002"/>
      <point x="30.1148" y="-115.087"/>
      <point x="1.50327" y="-115.087" type="curve" smooth="yes"/>
      <point x="-7.49673" y="-115.087"/>
      <point x="-19.4851" y="-114.02"/>
      <point x="-36.4967" y="-111.087" type="curve" smooth="yes"/>
      <point x="-65.4967" y="-106.087" type="line"/>
    </contour>
    <contour>
      <point x="64" y="380" type="line"/>
      <point x="319" y="380" type="line"/>
      <point x="339" y="460" type="line"/>
      <point x="84" y="460" type="line"/>
    </contour>
  </outline>
</glyph>
<glyph name="Obar" format="2">
  <advance width="661"/>
  <unicode hex="019F"/>
  <anchor x="333" y="740" name="top"/>
  <outline>
    <component base="O"/>
    <contour>
      <point x="93" y="313" type="line"/>
      <point x="564" y="313" type="line"/>
      <point x="564" y="401" type="line"/>
      <point x="93" y="401" type="line"/>
    </contour>
  </outline>
</glyph>
<glyph name="uni01C4" format="2">
  <advance width="1170"/>
  <unicode hex="01C4"/>
  <outline>
    <contour>
      <point x="755" y="950" type="line"/>
      <point x="819" y="950" type="line"/>
      <point x="915" y="823" type="line"/>
      <point x="1011" y="950" type="line"/>
      <point x="1075" y="950" type="line"/>
      <point x="955" y="770" type="line"/>
      <point x="875" y="770" type="line"/>
    </contour>
    <contour>
      <point x="710" y="0" type="line"/>
      <point x="710" y="80" type="line"/>
      <point x="1030" y="620" type="line"/>
      <point x="710" y="620" type="line"/>
      <point x="710" y="700" type="line"/>
      <point x="1120" y="700" type="line"/>
      <point x="1120" y="620" type="line"/>
      <point x="800" y="80" type="line"/>
      <point x="1120" y="80" type="line"/>
      <point x="1120" y="0" type="line"/>
    </contour>
    <contour>
      <point x="50" y="0" type="line"/>
      <point x="50" y="700" type="line"/>
      <point x="328" y="700" type="line" smooth="yes"/>
      <point x="518" y="700"/>
      <point x="610" y="550"/>
      <point x="610" y="350" type="curve" smooth="yes"/>
      <point x="610" y="147"/>
      <point x="519" y="0"/>
      <point x="328" y="0" type="curve" smooth="yes"/>
    </contour>
    <contour>
      <point x="140" y="80" type="line"/>
      <point x="328" y="80" type="line" smooth="yes"/>
      <point x="478" y="80"/>
      <point x="520" y="241"/>
      <point x="520" y="350" type="curve" smooth="yes"/>
      <point x="520" y="498"/>
      <point x="477" y="620"/>
      <point x="328" y="620" type="curve" smooth="yes"/>
      <point x="140" y="620" type="line"/>
    </contour>
  </outline>
</glyph>
<glyph name="uni01C7" format="2">
  <advance width="796"/>
  <unicode hex="01C7"/>
  <outline>
    <component base="J" xOffset="510"/>
    <contour>
      <point x="120" y="80" type="line"/>
      <point x="460" y="80" type="line"/>
      <point x="460" y="0" type="line"/>
      <point x="120" y="0" type="line"/>
    </contour>
  </outline>
</glyph>
<glyph name="uni01C8" format="2">
  <advance width="740"/>
  <unicode hex="01C8"/>
  <outline>
    <component base="j" xOffset="510"/>
    <contour>
      <point x="120" y="80" type="line"/>
      <point x="460" y="80" type="line"/>
      <point x="460" y="0" type="line"/>
      <point x="120" y="0" type="line"/>
    </contour>
  </outline>
</glyph>
<glyph name="uni01CB" format="2">
  <advance width="830"/>
  <unicode hex="01CB"/>
  <outline>
    <component base="N" xOffset="-50"/>
    <contour>
      <point x="680" y="560" type="line"/>
      <point x="680" y="640" type="line"/>
      <point x="760" y="640" type="line"/>
      <point x="760" y="560" type="line"/>
    </contour>
    <contour>
      <point x="532" y="-100" type="curve"/>
      <point x="597" y="-100" type="line"/>
      <point x="600" y="-132"/>
      <point x="621" y="-140"/>
      <point x="636" y="-140" type="curve" smooth="yes"/>
      <point x="660" y="-140"/>
      <point x="680" y="-136"/>
      <point x="680" y="-80" type="curve" smooth="yes"/>
      <point x="680" y="460" type="line"/>
      <point x="760" y="460" type="line"/>
      <point x="760" y="-60" type="line" smooth="yes"/>
      <point x="760" y="-181"/>
      <point x="704" y="-200"/>
      <point x="640" y="-200" type="curve" smooth="yes"/>
      <point x="584" y="-200"/>
      <point x="536" y="-162"/>
    </contour>
  </outline>
</glyph>
<glyph name="uni01D7" format="2">
  <advance width="560"/>
  <unicode hex="01D7"/>
  <outline>
    <contour>
      <point x="248" y="910" type="line"/>
      <point x="298" y="1090" type="line"/>
      <point x="378" y="1090" type="line"/>
      <point x="312" y="910" type="line"/>
    </contour>
    <contour>
      <point x="161" y="770" type="line"/>
      <point x="161" y="850" type="line"/>
      <point x="241" y="850" type="line"/>
      <point x="241" y="770" type="line"/>
    </contour>
    <contour>
      <point x="318" y="770" type="line"/>
      <point x="318" y="850" type="line"/>
      <point x="398" y="850" type="line"/>
      <point x="398" y="770" type="line"/>
    </contour>
    <contour>
      <point x="49" y="224" type="curve" smooth="yes"/>
      <point x="49" y="700" type="line"/>
      <point x="139" y="700" type="line"/>
      <point x="139" y="274" type="line" smooth="yes"/>
      <point x="139" y="231"/>
      <point x="146" y="195"/>
      <point x="159" y="166" type="curve" smooth="yes"/>
      <point x="185" y="109"/>
      <point x="232" y="80"/>
      <point x="289" y="80" type="curve" smooth="yes"/>
      <point x="378" y="80"/>
      <point x="419" y="147"/>
      <point x="419" y="274" type="curve" smooth="yes"/>
      <point x="419" y="700" type="line"/>
      <point x="509" y="700" type="line"/>
      <point x="509" y="224" type="line" smooth="yes"/>
      <point x="509" y="100"/>
      <point x="464" y="-10"/>
      <point x="289" y="-10" type="curve" smooth="yes"/>
      <point x="91" y="-10"/>
      <point x="49" y="106"/>
    </contour>
  </outline>
</glyph>
<glyph name="uni01DD" format="2">
  <advance width="471"/>
  <unicode hex="01DD"/>
  <outline>
    <contour>
      <point x="36" y="250" type="line"/>
      <point x="36" y="199" type="line" smooth="yes"/>
      <point x="36" y="82"/>
      <point x="109" y="-10"/>
      <point x="231" y="-10" type="curve" smooth="yes"/>
      <point x="376" y="-10"/>
      <point x="437" y="112"/>
      <point x="437" y="220" type="curve" smooth="yes"/>
      <point x="437" y="338"/>
      <point x="387" y="470"/>
      <point x="231" y="470" type="curve" smooth="yes"/>
      <point x="130" y="470"/>
      <point x="72" y="404"/>
      <point x="55" y="362" type="curve"/>
      <point x="116" y="346" type="line"/>
      <point x="139" y="372"/>
      <point x="186" y="390"/>
      <point x="230" y="390" type="curve" smooth="yes"/>
      <point x="330" y="390"/>
      <point x="356" y="288"/>
      <point x="356" y="206" type="curve" smooth="yes"/>
      <point x="356" y="130"/>
      <point x="312" y="70"/>
      <point x="231" y="70" type="curve" smooth="yes"/>
      <point x="155" y="70"/>
      <point x="110" y="107"/>
      <point x="110" y="189" type="curve" smooth="yes"/>
      <point x="110" y="250" type="line"/>
    </contour>
    <contour>
      <point x="70" y="250" type="line"/>
      <point x="70" y="170" type="line"/>
      <point x="404" y="170" type="line"/>
      <point x="404" y="250" type="line"/>
    </contour>
  </outline>
</glyph>
<glyph name="uni01DF" format="2">
  <advance width="493"/>
  <unicode hex="01DF"/>
  <outline>
    <contour>
      <point x="45" y="128" type="curve" smooth="yes"/>
      <point x="45" y="279"/>
      <point x="252" y="269"/>
      <point x="342" y="294" type="curve"/>
      <point x="342" y="330" type="line" smooth="yes"/>
      <point x="342" y="383"/>
      <point x="284" y="405"/>
      <point x="242" y="405" type="curve" smooth="yes"/>
      <point x="187" y="405"/>
      <point x="139" y="378"/>
      <point x="135" y="330" type="curve"/>
      <point x="70" y="330" type="line"/>
      <point x="77" y="417"/>
      <point x="154" y="470"/>
      <point x="243" y="470" type="curve" smooth="yes"/>
      <point x="340" y="470"/>
      <point x="423" y="432"/>
      <point x="423" y="319" type="curve"/>
      <point x="422" y="86" type="line"/>
      <point x="422" y="54"/>
      <point x="439" y="26"/>
      <point x="463" y="0" type="curve"/>
      <point x="373" y="0" type="line"/>
      <point x="354" y="26"/>
      <point x="349" y="34"/>
      <point x="342" y="74" type="curve"/>
      <point x="310" y="37"/>
      <point x="267" y="-10"/>
      <point x="192" y="-10" type="curve" smooth="yes"/>
      <point x="108" y="-10"/>
      <point x="45" y="43"/>
    </contour>
    <contour>
      <point x="125" y="126" type="curve" smooth="yes"/>
      <point x="125" y="77"/>
      <point x="165" y="60"/>
      <point x="204" y="60" type="curve" smooth="yes"/>
      <point x="248" y="60"/>
      <point x="326" y="116"/>
      <point x="342" y="141" type="curve"/>
      <point x="342" y="245" type="line"/>
      <point x="289" y="219"/>
      <point x="125" y="231"/>
    </contour>
    <contour>
      <point x="128" y="520" type="line"/>
      <point x="128" y="600" type="line"/>
      <point x="208" y="600" type="line"/>
      <point x="208" y="520" type="line"/>
    </contour>
    <contour>
      <point x="285" y="520" type="line"/>
      <point x="285" y="600" type="line"/>
      <point x="365" y="600" type="line"/>
      <point x="365" y="520" type="line"/>
    </contour>
    <contour>
      <point x="111" y="645" type="line"/>
      <point x="111" y="710" type="line"/>
      <point x="381" y="710" type="line"/>
      <point x="381" y="645" type="line"/>
    </contour>
  </outline>
</glyph>
<glyph name="uni01E1" format="2">
  <advance width="503"/>
  <unicode hex="01E1"/>
  <outline>
    <contour>
      <point x="93" y="670" type="line"/>
      <point x="93" y="750" type="line"/>
      <point x="363" y="750" type="line"/>
      <point x="363" y="670" type="line"/>
    </contour>
    <contour>
      <point x="188" y="530" type="line"/>
      <point x="188" y="610" type="line"/>
      <point x="268" y="610" type="line"/>
      <point x="268" y="530" type="line"/>
    </contour>
    <contour>
      <point x="30" y="128" type="curve" smooth="yes"/>
      <point x="30" y="270"/>
      <point x="206" y="274"/>
      <point x="327" y="294" type="curve"/>
      <point x="327" y="320" type="line" smooth="yes"/>
      <point x="327" y="373"/>
      <point x="269" y="395"/>
      <point x="227" y="395" type="curve" smooth="yes"/>
      <point x="172" y="395"/>
      <point x="124" y="368"/>
      <point x="120" y="320" type="curve"/>
      <point x="87" y="320" type="line"/>
      <point x="55" y="320" type="line"/>
      <point x="62" y="431"/>
      <point x="166" y="460"/>
      <point x="228" y="460" type="curve" smooth="yes"/>
      <point x="325" y="460"/>
      <point x="407" y="418"/>
      <point x="407" y="285" type="curve" smooth="yes"/>
      <point x="407" y="86" type="line" smooth="yes"/>
      <point x="407" y="55"/>
      <point x="458" y="76"/>
      <point x="458" y="22" type="curve" smooth="yes"/>
      <point x="458" y="-10" type="line"/>
      <point x="363" y="-10"/>
      <point x="335" y="23"/>
      <point x="327" y="74" type="curve"/>
      <point x="295" y="37"/>
      <point x="252" y="-10"/>
      <point x="177" y="-10" type="curve" smooth="yes"/>
      <point x="93" y="-10"/>
      <point x="30" y="43"/>
    </contour>
    <contour>
      <point x="110" y="136" type="curve" smooth="yes"/>
      <point x="110" y="69"/>
      <point x="163" y="55"/>
      <point x="189" y="55" type="curve" smooth="yes"/>
      <point x="198" y="55"/>
      <point x="208" y="57"/>
      <point x="219" y="60" type="curve" smooth="yes"/>
      <point x="261" y="72"/>
      <point x="311" y="106"/>
      <point x="327" y="141" type="curve"/>
      <point x="327" y="176"/>
      <point x="326" y="211"/>
      <point x="326" y="246" type="curve"/>
      <point x="292" y="238"/>
      <point x="110" y="231"/>
    </contour>
  </outline>
</glyph>
<glyph name="Gcaron" format="2">
  <advance width="647"/>
  <unicode hex="01E6"/>
  <outline>
    <contour>
      <point x="168" y="950" type="line"/>
      <point x="232" y="950" type="line"/>
      <point x="328" y="823" type="line"/>
      <point x="424" y="950" type="line"/>
      <point x="488" y="950" type="line"/>
      <point x="368" y="770" type="line"/>
      <point x="288" y="770" type="line"/>
    </contour>
    <contour>
      <point x="50" y="350" type="curve" smooth="yes"/>
      <point x="50" y="560"/>
      <point x="146" y="710"/>
      <point x="328" y="710" type="curve" smooth="yes"/>
      <point x="477" y="710"/>
      <point x="566" y="615"/>
      <point x="597" y="474" type="curve"/>
      <point x="508" y="474" type="line"/>
      <point x="502" y="497"/>
      <point x="495" y="518"/>
      <point x="485" y="537" type="curve" smooth="yes"/>
      <point x="456" y="594"/>
      <point x="407" y="630"/>
      <point x="328" y="630" type="curve" smooth="yes"/>
      <point x="189" y="630"/>
      <point x="140" y="502"/>
      <point x="140" y="350" type="curve" smooth="yes"/>
      <point x="140" y="200"/>
      <point x="187" y="70"/>
      <point x="328" y="70" type="curve" smooth="yes"/>
      <point x="415" y="70"/>
      <point x="468" y="120"/>
      <point x="498" y="184" type="curve"/>
      <point x="498" y="240" type="line"/>
      <point x="327" y="240" type="line"/>
      <point x="327" y="320" type="line"/>
      <point x="587" y="320" type="line"/>
      <point x="587" y="0" type="line"/>
      <point x="498" y="0" type="line"/>
      <point x="498" y="85" type="line"/>
      <point x="456" y="24"/>
      <point x="401" y="-10"/>
      <point x="334" y="-10" type="curve" smooth="yes"/>
      <point x="141" y="-10"/>
      <point x="50" y="138"/>
    </contour>
  </outline>
</glyph>
<glyph name="uni01F4" format="2">
  <advance width="647"/>
  <unicode hex="01F4"/>
  <outline>
    <contour>
      <point x="296" y="750" type="line"/>
      <point x="346" y="910" type="line"/>
      <point x="426" y="910" type="line"/>
      <point x="360" y="750" type="line"/>
    </contour>
    <contour>
      <point x="327" y="240" type="line"/>
      <point x="327" y="310" type="line"/>
      <point x="587" y="310" type="line"/>
      <point x="587" y="0" type="line"/>
      <point x="498" y="0" type="line"/>
      <point x="498" y="240" type="line"/>
    </contour>
    <contour>
      <point x="510" y="99" type="line"/>
      <point x="468" y="29"/>
      <point x="400" y="-10"/>
      <point x="328" y="-10" type="curve"/>
      <point x="328" y="70" type="line"/>
      <point x="421" y="70"/>
      <point x="481" y="127"/>
      <point x="510" y="197" type="curve"/>
    </contour>
  </outline>
</glyph>
<glyph name="uni01F5" format="2">
  <advance width="492"/>
  <unicode hex="01F5"/>
  <outline>
    <component base="g"/>
    <contour>
      <point x="209" y="520" type="line"/>
      <point x="259" y="680" type="line"/>
      <point x="339" y="680" type="line"/>
      <point x="273" y="520" type="line"/>
    </contour>
  </outline>
</glyph>
<glyph name="uni01F9" format="2">
  <advance width="478"/>
  <unicode hex="01F9"/>
  <outline>
    <component base="gravecomb" xOffset="451"/>
    <contour>
      <point x="45" y="0" type="line"/>
      <point x="45" y="460" type="line"/>
      <point x="104" y="460" type="line"/>
      <point x="124" y="360" type="line"/>
      <point x="124" y="0" type="line"/>
    </contour>
  </outline>
</glyph>
<glyph name="uni0205" format="2">
  <advance width="471"/>
  <unicode hex="0205"/>
  <outline>
    <contour>
      <point x="195" y="710" type="line"/>
      <point x="275" y="710" type="line"/>
      <point x="320" y="530" type="line"/>
      <point x="256" y="530" type="line"/>
    </contour>
    <contour>
      <point x="85" y="710" type="line"/>
      <point x="165" y="710" type="line"/>
      <point x="225" y="530" type="line"/>
      <point x="161" y="530" type="line"/>
    </contour>
    <contour>
      <point x="33" y="240" type="curve" smooth="yes"/>
      <point x="33" y="348"/>
      <point x="94" y="470"/>
      <point x="239" y="470" type="curve" smooth="yes"/>
      <point x="378" y="470"/>
      <point x="434" y="350"/>
      <point x="434" y="210" type="curve"/>
      <point x="118" y="210" type="line"/>
      <point x="125" y="141"/>
      <point x="156" y="70"/>
      <point x="240" y="70" type="curve" smooth="yes"/>
      <point x="284" y="70"/>
      <point x="331" y="88"/>
      <point x="354" y="114" type="curve"/>
      <point x="415" y="98" type="line"/>
      <point x="399" y="58"/>
      <point x="341" y="-10"/>
      <point x="239" y="-10" type="curve" smooth="yes"/>
      <point x="83" y="-10"/>
      <point x="33" y="122"/>
    </contour>
    <contour>
      <point x="118" y="290" type="curve"/>
      <point x="357" y="290" type="line"/>
      <point x="344" y="358"/>
      <point x="309" y="390"/>
      <point x="239" y="390" type="curve" smooth="yes"/>
      <point x="180" y="390"/>
      <point x="128" y="353"/>
    </contour>
  </outline>
</glyph>
<glyph name="uni0206" format="2">
  <advance width="510"/>
  <unicode hex="0206"/>
  <outline>
    <component base="uni0311" xOffset="455" yOffset="200"/>
    <contour>
      <point x="110" y="80" type="line"/>
      <point x="460" y="80" type="line"/>
      <point x="460" y="0" type="line"/>
      <point x="110" y="0" type="line"/>
    </contour>
  </outline>
</glyph>
<glyph name="uni0212" format="2">
  <advance width="580"/>
  <unicode hex="0212"/>
  <outline>
    <component base="uni0311" xOffset="460" yOffset="200"/>
    <contour>
      <point x="242" y="300" type="line"/>
      <point x="410" y="0" type="line"/>
      <point x="520" y="0" type="line"/>
      <point x="352" y="300" type="line"/>
    </contour>
  </outline>
</glyph>
<glyph name="uni0215" format="2">
  <advance width="478"/>
  <unicode hex="0215"/>
  <outline>
    <contour>
      <point x="193" y="710" type="line"/>
      <point x="273" y="710" type="line"/>
      <point x="318" y="530" type="line"/>
      <point x="254" y="530" type="line"/>
    </contour>
    <contour>
      <point x="83" y="710" type="line"/>
      <point x="163" y="710" type="line"/>
      <point x="223" y="530" type="line"/>
      <point x="159" y="530" type="line"/>
    </contour>
    <contour>
      <point x="44" y="160" type="curve" smooth="yes"/>
      <point x="44" y="460" type="line"/>
      <point x="124" y="460" type="line"/>
      <point x="124" y="190" type="line" smooth="yes"/>
      <point x="124" y="107"/>
      <point x="124" y="55"/>
      <point x="192" y="55" type="curve" smooth="yes"/>
      <point x="255" y="55"/>
      <point x="352" y="115"/>
      <point x="352" y="230" type="curve" smooth="yes"/>
      <point x="352" y="460" type="line"/>
      <point x="433" y="460" type="line"/>
      <point x="433" y="0" type="line"/>
      <point x="353" y="0" type="line"/>
      <point x="353" y="90" type="line"/>
      <point x="314" y="43"/>
      <point x="232" y="-10"/>
      <point x="166" y="-10" type="curve" smooth="yes"/>
      <point x="49" y="-10"/>
      <point x="44" y="78"/>
    </contour>
  </outline>
</glyph>
<glyph name="uni021A" format="2">
  <advance width="560"/>
  <unicode hex="021A"/>
  <outline>
    <component base="uni0326" xOffset="370"/>
    <contour>
      <point x="50" y="600" type="line"/>
      <point x="50" y="680" type="line"/>
      <point x="510" y="680" type="line"/>
      <point x="510" y="600" type="line"/>
    </contour>
  </outline>
</glyph>
<glyph name="uni021B" format="2">
  <advance width="331"/>
  <unicode hex="021B"/>
  <outline>
    <contour>
      <point x="164" y="-70" type="curve"/>
      <point x="244" y="-70" type="line"/>
      <point x="244" y="-150" type="line"/>
      <point x="198" y="-280" type="line"/>
      <point x="164" y="-280" type="line"/>
      <point x="186" y="-150" type="line"/>
      <point x="164" y="-150" type="line"/>
      <point x="164" y="-123"/>
      <point x="164" y="-97"/>
    </contour>
    <contour>
      <point x="30" y="380" type="line"/>
      <point x="30" y="460" type="line"/>
      <point x="105" y="460" type="line"/>
      <point x="105" y="580" type="line"/>
      <point x="185" y="580" type="line"/>
      <point x="185" y="460" type="line"/>
      <point x="269" y="460" type="line"/>
      <point x="269" y="380" type="line"/>
      <point x="241" y="380"/>
      <point x="213" y="380"/>
      <point x="185" y="380" type="curve"/>
      <point x="185" y="314"/>
      <point x="184" y="247"/>
      <point x="184" y="181" type="curve" smooth="yes"/>
      <point x="184" y="83"/>
      <point x="197" y="57"/>
      <point x="266" y="56" type="curve"/>
      <point x="300" y="56" type="line"/>
      <point x="300" y="-9" type="line"/>
      <point x="267" y="-9" type="line"/>
      <point x="117" y="0"/>
      <point x="105" y="44"/>
      <point x="105" y="180" type="curve" smooth="yes"/>
      <point x="105" y="380" type="line"/>
    </contour>
  </outline>
</glyph>
<glyph name="uni0228" format="2">
  <advance width="510"/>
  <unicode hex="0228"/>
  <outline>
    <contour>
      <point x="159" y="-157" type="line"/>
      <point x="170" y="-160"/>
      <point x="189" y="-163"/>
      <point x="207" y="-163" type="curve"/>
      <point x="209" y="-163"/>
      <point x="211" y="-163"/>
      <point x="213" y="-163" type="curve"/>
      <point x="256" y="-163"/>
      <point x="272" y="-140"/>
      <point x="272" y="-111" type="curve" smooth="yes"/>
      <point x="272" y="-75"/>
      <point x="221" y="-63"/>
      <point x="193" y="-60" type="curve"/>
      <point x="224" y="7" type="line"/>
      <point x="285" y="7" type="line"/>
      <point x="262" y="-39" type="line"/>
      <point x="285" y="-47"/>
      <point x="329" y="-63"/>
      <point x="329" y="-116" type="curve" smooth="yes"/>
      <point x="329" y="-170"/>
      <point x="284" y="-202"/>
      <point x="229" y="-202" type="curve" smooth="yes"/>
      <point x="196" y="-202"/>
      <point x="167" y="-192"/>
      <point x="159" y="-186" type="curve"/>
    </contour>
    <contour>
      <point x="49" y="0" type="line"/>
      <point x="49" y="212" type="line"/>
      <point x="49" y="700" type="line"/>
      <point x="459" y="700" type="line"/>
      <point x="459" y="620" type="line"/>
      <point x="139" y="620" type="line"/>
      <point x="139" y="397" type="line"/>
      <point x="419" y="397" type="line"/>
      <point x="419" y="317" type="line"/>
      <point x="139" y="317" type="line"/>
      <point x="139" y="80" type="line"/>
      <point x="459" y="80" type="line"/>
      <point x="459" y="0" type="line"/>
    </contour>
  </outline>
</glyph>
<glyph name="uni0231" format="2">
  <advance width="480"/>
  <unicode hex="0231"/>
  <outline>
    <component base="dotaccent" xOffset="150" yOffset="40"/>
    <contour>
      <point x="105" y="700" type="line"/>
      <point x="105" y="770" type="line"/>
      <point x="375" y="770" type="line"/>
      <point x="375" y="700" type="line"/>
    </contour>
    <contour>
      <point x="240" y="-10" type="line"/>
      <point x="117" y="-10"/>
      <point x="35" y="86"/>
      <point x="35" y="230" type="curve" smooth="yes"/>
      <point x="35" y="363"/>
      <point x="126" y="470"/>
      <point x="240" y="470" type="curve"/>
      <point x="240" y="405" type="line"/>
      <point x="169" y="405"/>
      <point x="115" y="357"/>
      <point x="115" y="230" type="curve" smooth="yes"/>
      <point x="115" y="109"/>
      <point x="170" y="55"/>
      <point x="240" y="55" type="curve"/>
    </contour>
    <contour>
      <point x="200" y="580" type="line"/>
      <point x="200" y="660" type="line"/>
      <point x="280" y="660" type="line"/>
      <point x="280" y="580" type="line"/>
    </contour>
    <contour>
      <point x="240" y="-10" type="line"/>
      <point x="117" y="-10"/>
      <point x="35" y="86"/>
      <point x="35" y="230" type="curve" smooth="yes"/>
      <point x="35" y="363"/>
      <point x="126" y="470"/>
      <point x="240" y="470" type="curve"/>
      <point x="240" y="405" type="line"/>
      <point x="169" y="405"/>
      <point x="115" y="357"/>
      <point x="115" y="230" type="curve" smooth="yes"/>
      <point x="115" y="109"/>
      <point x="170" y="55"/>
      <point x="240" y="55" type="curve"/>
    </contour>
  </outline>
</glyph>
<glyph name="uni0237" format="2">
  <advance width="225"/>
  <unicode hex="0237"/>
  <anchor x="113" y="540" name="top"/>
  <outline>
    <contour>
      <point x="-28" y="-200" type="line"/>
      <point x="-7" y="-200" type="line" smooth="yes"/>
      <point x="103" y="-200"/>
      <point x="159" y="-143"/>
      <point x="159" y="-32" type="curve" smooth="yes"/>
      <point x="159" y="460" type="line"/>
      <point x="67" y="460" type="line"/>
      <point x="67" y="-44" type="line" smooth="yes"/>
      <point x="67" y="-90"/>
      <point x="41" y="-120"/>
      <point x="2" y="-120" type="curve" smooth="yes"/>
      <point x="-28" y="-120" type="line"/>
    </contour>
  </outline>
</glyph>
<glyph name="obarred" format="2">
  <advance width="514"/>
  <unicode hex="0275"/>
  <anchor x="257" y="530" name="top"/>
  <anchor x="265" y="-40" name="bottom"/>
  <outline>
    <component base="o"/>
    <contour>
      <point x="93" y="205" type="line"/>
      <point x="430" y="205" type="line"/>
      <point x="430" y="276" type="line"/>
      <point x="93" y="276" type="line"/>
    </contour>
  </outline>
</glyph>
<glyph name="uni02C5" format="2">
  <advance width="514"/>
  <unicode hex="02C5"/>
  <outline>
    <contour>
      <point x="216" y="530" type="line"/>
      <point x="286" y="530" type="line"/>
      <point x="486" y="964" type="line"/>
      <point x="416" y="964" type="line"/>
      <point x="252" y="606" type="line"/>
      <point x="88" y="964" type="line"/>
      <point x="16" y="964" type="line"/>
    </contour>
  </outline>
</glyph>
<glyph name="circumflex" format="2">
  <advance width="394"/>
  <unicode hex="02C6"/>
  <outline>
    <contour>
      <point x="40" y="540" type="line"/>
      <point x="130" y="540" type="line"/>
      <point x="219" y="653" type="line"/>
      <point x="175" y="653" type="line"/>
      <point x="264" y="540" type="line"/>
      <point x="354" y="540" type="line"/>
      <point x="246" y="700" type="line"/>
      <point x="148" y="700" type="line"/>
    </contour>
  </outline>
  <guideline angle="90" x="197" y="0"/>
  <guideline angle="0" x="0" y="540"/>
</glyph>
